<?xml version="1.0" standalone="no"?>
<!DOCTYPE svg PUBLIC "-//W3C//DTD SVG 1.1//EN" "http://www.w3.org/Graphics/SVG/1.1/DTD/svg11.dtd" >
<svg>
<metadata>
Created by FontForge 20120731 at Fri Dec 13 18:46:50 2013
 By 伏井 洋平
hui
</metadata>
<defs>
<font id="HuiFontP" horiz-adv-x="1024" vert-adv-y="1024" >
  <font-face 
    font-family="HuiFontP"
    font-weight="400"
    font-stretch="normal"
    units-per-em="1024"
    panose-1="2 0 6 0 0 0 0 0 0 0"
    ascent="880"
    descent="-144"
    x-height="279"
    cap-height="603"
    bbox="-28 -252 1111 991"
    underline-thickness="48"
    underline-position="-72"
    unicode-range="U+0020-FFE5"
  />
<missing-glyph 
d="M400 400v220h220v-220h-220z" />
    <glyph glyph-name=".notdef" 
d="M400 400v220h220v-220h-220z" />
    <glyph glyph-name="space" unicode=" " horiz-adv-x="512" 
 />
    <glyph glyph-name="exclam" unicode="!" horiz-adv-x="397" 
d="M172 -58l-34 29v34l15 39l53 15q20 -30 20 -69l-24 -44zM187 185l-44 39l-5 15v141l5 25l-5 19l15 93v73l34 15l34 -20l10 -39l-15 -49v-53l-10 -54v-78l-4 -5v-63l4 -25l-9 -29z" />
    <glyph glyph-name="quotedbl" unicode="&#x22;" horiz-adv-x="450" 
d="M153 467q-29 14 -43 43l-5 14v130l14 82l24 5l39 -24l5 -29l-15 -53v-67l-4 -20l14 -72zM273 519l-29 34v53l5 5v77l5 5v67l39 9l33 -24v-33l-9 -53v-53l-5 -19l5 -24l-20 -39z" />
    <glyph glyph-name="numbersign" unicode="#" horiz-adv-x="512" 
d="M332 -77l-28 28l-5 24v77l-5 39l5 24l-24 19l-58 -24l-5 -14l15 -44v-62q-15 -19 -44 -15q-38 53 -38 125l-48 20l-15 43q25 19 58 19l5 5v178l-53 29l-14 33l14 20l48 14l10 29l-5 5v48l-14 91l33 14l43 -19l5 -5v-134l24 -19l68 14l4 38l-4 5v101l-5 5v58l29 9l38 -19
l5 -5v-163l10 -24l19 -5l14 5l24 -19l5 -39l-14 -19h-20l-19 5l-19 -39v-106l-5 -38l58 -14l9 -34l-62 -29l-10 -14v-72l5 -20l-5 -19l5 -5v-72l5 -14l-14 -19h-25zM289 206l15 24v125l4 43l-24 15l-62 -19l-10 -15v-134l-5 -44q20 -14 44 -9z" />
    <glyph glyph-name="dollar" unicode="$" horiz-adv-x="512" 
d="M272 -103l-19 10q-24 28 -19 71l9 14v100q-38 19 -85 28l-19 -4l-38 19l-19 37l19 24h28q48 -24 105 -33l9 9v57l-5 5v85l-14 34q-71 42 -118 109q-24 38 -19 90q14 57 66 95l71 47v99l-5 15l38 9l29 -24v-52l9 -14h67l33 -33v-19q-52 -10 -95 -28l-5 -5v-90l5 -24l-5 -5
v-47l5 -38l-5 -19l5 -47q62 -24 114 -76q33 -29 23 -76q-42 -71 -118 -104h-10l-4 -15v-52l4 -5v-80l-9 -43l5 -14zM324 201l47 43v19q-19 33 -52 42h-14l-5 -5v-99l19 -5zM234 419v180h-15q-38 -24 -66 -66v-29q19 -47 62 -80z" />
    <glyph glyph-name="percent" unicode="%" horiz-adv-x="512" 
d="M159 -94l-29 19l-5 33q115 385 235 760l34 5l34 -29v-14q-144 -375 -241 -770zM341 7l-38 14q-43 43 -39 106q20 86 63 168l5 5h62l58 -34l14 -43v-87q-19 -57 -67 -101zM356 88l38 39l10 38v63l-19 5q-58 -58 -58 -140l5 -14h9zM125 348l-39 29q-33 48 -33 106
q14 91 82 158l48 34h52l34 -19l19 -48v-49q-28 -115 -120 -201zM144 430q77 72 87 173l-20 9q-48 -43 -76 -101l-15 -72l5 -14h14z" />
    <glyph glyph-name="ampersand" unicode="&#x26;" horiz-adv-x="512" 
d="M406 -130l-29 9l-38 96l-19 5q-53 -53 -129 -53l-48 33l-24 91l5 5v53q19 67 52 129l-76 48q-19 24 -19 57v58q33 110 110 201l52 57h19l29 -19l5 -34l-14 -4q-120 -115 -139 -273l19 -24h38q48 34 105 34q29 -20 24 -48q-86 -67 -124 -163l-19 -53v-62l5 -24h19
q62 24 110 82l9 28l20 5l33 -19l10 -43l-5 -15l24 -76l14 -5l24 -67z" />
    <glyph glyph-name="quotesingle" unicode="'" horiz-adv-x="415" 
d="M129 400l-19 34q39 79 63 162l-24 15q-30 34 -25 83l59 59h25l29 -20q39 -39 34 -93l-103 -230z" />
    <glyph glyph-name="parenleft" unicode="(" horiz-adv-x="425" 
d="M216 -98q-88 103 -98 240v74l-5 5v73q15 231 133 422l24 5l34 -25v-29q-103 -167 -122 -363v-49l-5 -24l5 -5v-74q5 -98 64 -176l19 -5q20 -20 15 -49q-30 -20 -64 -20z" />
    <glyph glyph-name="parenright" unicode=")" horiz-adv-x="445" 
d="M175 -108l-10 5l-24 47l19 10q53 100 62 219v71l5 5v95l5 5v119q0 119 -72 210q-33 14 -47 47v20l42 9q72 -48 105 -119q29 -81 34 -171v-196l-5 -5v-90q-14 -148 -72 -276l-28 -5l-10 5z" />
    <glyph glyph-name="asterisk" unicode="*" horiz-adv-x="512" 
d="M274 82l-29 10q-19 53 -24 116l-14 4l-5 -14l-15 -5l-29 -53l-29 -10l-33 29v29l96 92v15l-92 62l-24 53q15 20 44 15l24 -15l53 -57h15l4 19l-4 5v72q0 58 24 97h14q34 -5 44 -34v-24q-24 -44 -20 -102l20 -4l24 14l5 14l62 44l29 -15l5 -43l-116 -92v-14l121 -58
l10 -34l-29 -24l-116 63l-5 -29l19 -102z" />
    <glyph glyph-name="plus" unicode="+" horiz-adv-x="512" 
d="M233 76q-25 20 -30 50v145l-35 10l-70 -10q-30 20 -30 55q70 20 135 40l5 4v85l-5 50l5 20l-5 50l45 10l30 -25v-70l-5 -5v-60l5 -15l-5 -30l40 -10l80 20l35 -20l10 -39q-40 -25 -95 -25l-5 5h-50l-15 -5l-5 -15v-65l5 -5v-70l5 -5v-55q-15 -20 -45 -15z" />
    <glyph glyph-name="comma" unicode="," horiz-adv-x="402" 
d="M143 -98l-20 14v15l49 103h-14l-45 -4l-34 39v20l24 49l15 10h74l59 -20l5 -5v-64q-10 -79 -64 -143q-20 -19 -49 -14z" />
    <glyph glyph-name="hyphen" unicode="-" horiz-adv-x="512" 
d="M108 263l-29 55q158 17 317 29l32 -28l1 -32l-28 -27l-15 2l-24 13l-49 5q-104 -13 -205 -17z" />
    <glyph glyph-name="period" unicode="." horiz-adv-x="400" 
d="M160 -64l-30 15l-15 60q10 40 30 65h80l30 -25v-20q-10 -50 -50 -90z" />
    <glyph glyph-name="slash" unicode="/" horiz-adv-x="512" 
d="M143 -93l-34 22l-3 45q101 390 267 756l40 3l20 -11l2 -45q-157 -316 -247 -667l-5 -95z" />
    <glyph glyph-name="zero" unicode="0" horiz-adv-x="512" 
d="M191 -87l-54 24l-25 49v93l5 5v54q25 245 147 451l44 5l25 -20l5 -24l39 -25q24 -39 29 -88v-98l-5 -5v-49q-34 -191 -157 -348zM195 -14q54 59 84 132q49 103 63 226v98l-14 29l-35 15q-73 -142 -102 -299v-49l-10 -34v-79l-5 -24l15 -20z" />
    <glyph glyph-name="one" unicode="1" horiz-adv-x="400" 
d="M163 -89l-1 5q-33 25 -28 65q19 325 53 639l44 10l33 -25l3 -20q-44 -284 -56 -584l7 -50l-6 -30z" />
    <glyph glyph-name="two" unicode="2" horiz-adv-x="512" 
d="M201 -85q-50 0 -85 34l-10 30q160 249 249 527q-30 25 -75 20l-79 -40l-40 25l-10 30q45 30 100 45h49q70 -5 120 -60l5 -5v-70q-95 -238 -224 -462l10 -10h79q30 25 70 25q20 -20 20 -50q-35 -39 -90 -39h-89z" />
    <glyph glyph-name="three" unicode="3" horiz-adv-x="487" 
d="M166 -76q-34 20 -29 55l39 34l45 20q59 94 84 198l-45 15l-79 -70l-30 -5l-34 30v30q119 104 178 242l5 50l-59 10q-55 -20 -109 -35q-30 20 -25 59q64 35 143 35q55 -5 99 -40q25 -29 20 -74q-39 -89 -84 -173q45 -5 79 -40l10 -14v-55q-35 -128 -129 -237l-39 -35h-40z
" />
    <glyph glyph-name="four" unicode="4" horiz-adv-x="512" 
d="M295 -111l-60 50v90l5 5v85l5 25l-35 10q-55 -20 -120 -25l-20 15q-25 15 -20 40l190 424l45 5q20 -15 25 -40l35 -25v-50l-15 -55v-75l-10 -49v-75l-5 -25q20 -20 55 -15l30 25h10l50 -25l10 -40q-25 -30 -60 -20l-55 15l-40 -15l-10 -40v-80l10 -55l-5 -25l5 -15z
M240 209l10 10v75l5 5v64l5 5v50l5 5v50h-15l-110 -274h55z" />
    <glyph glyph-name="five" unicode="5" horiz-adv-x="497" 
d="M171 -72l-40 29l-5 35l40 30l35 -25l59 60q35 64 40 139l-15 20h-25l-59 -40l-25 -35l-30 -5l-40 35v40l5 5v59l5 5v75l5 5v50l5 5v59l5 30l-5 5v75l5 5h50l54 -10l20 10h90l30 -20l5 -20l-60 -20l-25 5l-94 -35l-5 -5v-59l-5 -5v-65l-10 -55v-54h15l44 19h55
q35 -9 60 -39l15 -65q-15 -129 -115 -219q-34 -34 -84 -24z" />
    <glyph glyph-name="six" unicode="6" horiz-adv-x="500" 
d="M216 -78l-39 24q-63 69 -73 157q49 260 132 510l39 5l25 -20v-34q-59 -152 -88 -319h14l25 10h83l59 -34l10 -39q-20 -138 -123 -240zM246 0q68 84 93 187l-39 19q-44 -10 -79 -54l-29 -54l5 -14l-5 -44l15 -49h24z" />
    <glyph glyph-name="seven" unicode="7" horiz-adv-x="512" 
d="M263 -87l-25 29v90l5 5v109l5 5v55q15 174 85 323l-30 15l-84 -15l-15 5l-30 -15l-10 -35l5 -5v-49l5 -5v-70l15 -75q-20 -14 -50 -9l-20 29q-15 30 -15 60v174l-5 35l10 49l40 5l20 -14v-10l40 -10l54 10l5 -5h60l25 -10h50l24 -15l5 -40q-94 -129 -109 -293v-50l-5 -5
v-75l-5 -4v-85l-5 -35l10 -54z" />
    <glyph glyph-name="eight" unicode="8" horiz-adv-x="502" 
d="M207 -58q-50 19 -85 59l-10 35q45 124 105 239q-100 114 -115 263l20 40l45 50h65q69 -5 124 -60q35 -35 45 -85q-60 -109 -105 -228q45 -65 50 -144q-5 -90 -65 -154l-19 -15h-55zM232 1q39 60 49 134q0 35 -24 45q-50 -74 -70 -159l25 -25h15zM257 339q49 85 59 184
l-10 25l-84 25l-45 -45l-5 -40q20 -89 80 -154z" />
    <glyph glyph-name="nine" unicode="9" horiz-adv-x="502" 
d="M329 -91l-44 25l-5 5v88l-5 5v80l5 5v54l10 83h-15l-83 -34q-39 9 -69 49l-14 39v83q14 118 88 211l24 14h59q39 -9 69 -44q29 -49 34 -103v-93q-20 -58 -29 -122v-59l-5 -5v-64l-5 -4v-115l15 -68q-5 -25 -30 -30zM221 298q59 39 89 108l9 44v49l-19 49l-39 5
q-35 -30 -54 -69l-35 -127v-49l15 -20h20z" />
    <glyph glyph-name="colon" unicode=":" horiz-adv-x="400" 
d="M188 43l-20 10l-10 64l15 54l35 10l34 -25v-34l-10 -15v-49q-14 -25 -44 -15zM168 383l-34 49v98q15 20 44 15l30 -24v-35l-5 -5v-49l-10 -44z" />
    <glyph glyph-name="semicolon" unicode=";" horiz-adv-x="432" 
d="M114 -105l-14 30q44 143 123 276l39 5l30 -25v-30l-163 -256h-15zM188 388q-34 34 -34 93v89l39 15l35 -35v-20l-5 -49l10 -54l-15 -34z" />
    <glyph glyph-name="less" unicode="&#x3c;" horiz-adv-x="500" 
d="M306 -96l-20 5q-63 234 -175 444q122 185 210 380l43 5l25 -39q-98 -181 -190 -366q92 -205 156 -419z" />
    <glyph glyph-name="equal" unicode="=" horiz-adv-x="512" 
d="M154 146l-35 49l35 20l30 -5q104 35 214 50l15 -35q-120 -65 -259 -79zM144 344l-20 10l-15 50q50 15 100 20h59l55 10h50l30 -30v-15l-15 -30h-15l-30 10h-89q-50 -20 -110 -25z" />
    <glyph glyph-name="greater" unicode="&#x3e;" horiz-adv-x="500" 
d="M136 -99l-33 19v46q65 199 181 375q-97 200 -162 413l46 4l23 -23q61 -227 177 -431q-70 -64 -112 -148q-60 -120 -102 -250z" />
    <glyph glyph-name="question" unicode="?" horiz-adv-x="452" 
d="M245 -79l-44 24l-5 45l19 30h45q25 -20 20 -60l-15 -34zM181 85l-35 39l-20 110q65 184 144 363l-50 25l-14 -5l-20 5l-5 -5h-55l-25 24v15l35 20h74q65 -10 115 -54l10 -15v-55q-95 -174 -139 -368l19 -89z" />
    <glyph glyph-name="at" unicode="@" horiz-adv-x="650" 
d="M275 -81q-74 5 -123 59q-65 104 -79 232l4 20l-4 30q34 257 178 470q29 30 69 30q79 -20 138 -80l5 -14l25 -15q69 -94 64 -223l-5 -25l5 -14l-5 -5v-70q-9 -183 -118 -326q-65 -59 -154 -69zM345 13l39 29v15l-39 89h-10l-60 -59h-29l-45 30q-20 34 -20 79
q20 198 139 356l49 5l35 -30q10 -69 25 -133l-30 -124v-99l15 -50h15q49 114 64 248v104l-5 5v49q-5 69 -69 119q-40 39 -89 49l-30 -15q-133 -207 -163 -460l5 -5v-49q15 -89 64 -163q30 -25 69 -25zM256 161q94 114 108 257v55l-19 5q-94 -139 -104 -312l10 -10z" />
    <glyph glyph-name="A" unicode="A" horiz-adv-x="512" 
d="M130 -94l-35 25l-5 45l35 215l-5 15q65 199 120 404l-5 20q20 35 60 25l30 -45l-10 -25q55 -284 105 -574v-70l-35 -10l-30 25l-5 15v50l-30 165h-15q-55 -25 -110 -40l-40 -235zM300 246l10 60q-10 84 -40 149q-35 -109 -55 -224l25 -5z" />
    <glyph glyph-name="B" unicode="B" horiz-adv-x="512" 
d="M187 -85l-40 40l-5 15v60l-10 50v70q-40 30 -50 70l5 10l15 15l30 15l5 5v164l-50 45v25l45 40l5 30h35l15 -5q70 25 150 25q50 0 85 -45l5 -45q-30 -80 -90 -145l-20 -24l90 -40q30 -40 30 -95q-25 -130 -130 -225q-50 -50 -120 -55zM247 15q70 60 110 145l15 70l-30 30
h-20l-115 -55l-15 -75l5 -5v-80l15 -35l20 -5zM232 339q80 85 125 185l-40 5l-110 -35l-10 -15v-65l5 -5v-79h15z" />
    <glyph glyph-name="C" unicode="C" horiz-adv-x="500" 
d="M250 -89q-49 10 -88 54q-44 54 -59 117v162q19 162 98 304l15 5l34 44l49 5l59 -40l9 -29q-9 -20 -34 -15l-39 15q-98 -118 -118 -269v-49l-9 -25v-88q9 -69 58 -123l20 -5l78 74h10l5 15l20 5q19 -15 14 -40q-34 -58 -88 -107z" />
    <glyph glyph-name="D" unicode="D" horiz-adv-x="492" 
d="M157 -82l-34 15l-5 14v63l-4 5v58l-10 53v154l5 5v102l9 62l-4 39l9 15v48l20 24h19q29 -29 68 -29l48 5q53 -5 92 -44l29 -48v-82q-58 -237 -194 -444zM196 39q91 174 140 367v48l-20 29l-43 10q-48 -10 -87 -48l-10 -39v-97l-4 -4v-97l-5 -24l5 -5v-97l19 -48z" />
    <glyph glyph-name="E" unicode="E" horiz-adv-x="512" 
d="M146 -80l-34 29v29l15 14v150l5 5v77l9 53v58l5 5v116l-29 10l-14 -5l-39 34v19q126 48 261 72h53l29 -24v-29q-29 -9 -63 -19h-67l-58 -24l-5 -5v-106l-5 -5v-63h19l150 43h48l29 -24v-19l-33 -29l-25 -5l-33 5q-82 -19 -160 -53l-9 -24v-102l-5 -33l5 -5v-53l4 -15
l25 -5q86 29 173 63l25 -19v-15q-116 -101 -276 -101z" />
    <glyph glyph-name="F" unicode="F" horiz-adv-x="512" 
d="M165 -69l-19 10q-24 30 -23 68l2 68l-5 5l1 73l-5 5l3 107l-5 5l1 55l5 5l1 58l-5 5l3 98q-24 25 -23 64q133 46 271 77l28 -26v-24q-103 -32 -203 -78l-4 -5l-3 -131l3 -39l15 -1q100 51 208 69q28 -21 23 -50q-123 -46 -248 -102l-2 -112l5 -5l-2 -78l18 -98
q-6 -29 -40 -23z" />
    <glyph glyph-name="G" unicode="G" horiz-adv-x="512" 
d="M352 -132l-44 39q0 39 -19 54q-30 -39 -79 -29q-54 29 -78 83l-15 44v49l-5 5v59l-5 5v98l10 24v64q15 113 83 201q30 19 69 15q44 -10 73 -49l25 -64l-25 -20l-44 35l-5 29l-29 5l-49 -54l-34 -132v-49l-10 -44l5 -20l-5 -20l5 -5v-88l24 -98l25 -5q54 30 78 89l20 147
l-25 9l-19 -5l-39 40v19l9 10h54l64 10l39 -30l5 -14q-24 -49 -29 -108v-59l-10 -44v-49l-5 -5v-49q20 -39 15 -83z" />
    <glyph glyph-name="H" unicode="H" horiz-adv-x="570" 
d="M442 -81q-45 45 -50 109v49l-5 5v109l5 15l-5 20l5 39l-10 10h-79l-143 -34l-5 -5v-188l10 -35v-49q-15 -25 -40 -20l-35 30l-5 44l5 35l-5 5v94l5 5v113l5 5v50l5 5v104l5 5v59l-5 5v69h35l25 -15l10 -39v-70l5 -14l-10 -40v-64l19 -10l75 15h79l49 -5l15 24v99l5 5v70
l5 5v69l30 10l34 -20l10 -25l-15 -94l5 -15l-5 -5v-74l-5 -5v-64l-10 -54v-218q20 -50 25 -109z" />
    <glyph glyph-name="I" unicode="I" horiz-adv-x="440" 
d="M148 -92l-39 34v34l5 5h54l4 39l-9 54v123l5 5v78l4 5v123l5 4v54q-34 15 -63 35l-15 44l34 10l44 -15l25 5l39 -5l39 5l39 -35v-24l-63 -15l-15 -24v-88l-5 -15l5 -25l-5 -5v-73l-5 -5v-206l15 -29l15 -5l34 15l34 -15l5 -34q-83 -54 -186 -54z" />
    <glyph glyph-name="J" unicode="J" horiz-adv-x="512" 
d="M233 -84q-88 19 -156 87l-9 39l24 10q58 -63 136 -68l29 175v82l5 5v233q-10 19 -39 14l-78 -24l-34 39v29q156 29 316 49l29 -20l5 -29l-24 -19h-83l-19 -10l-10 -44l5 -5v-179l-5 -5v-97l-10 -34v-58l-19 -78v-53l-15 -34z" />
    <glyph glyph-name="K" unicode="K" horiz-adv-x="487" 
d="M125 -89l-34 39v39l5 5v122l5 5v122l4 5v88l5 14l-5 49l5 29l-5 5v122l-9 44l29 15l39 -25l10 -73l-5 -19l5 -5v-127l-5 -39l5 -34h14q78 88 181 117l34 -34v-15l-5 -10q-102 -44 -190 -131l-10 -35l59 -53v-10l48 -39l30 -24q34 -34 39 -78l-5 -10h-34l-166 146l-10 -29
v-88l5 -39l-15 -44z" />
    <glyph glyph-name="L" unicode="L" horiz-adv-x="512" 
d="M120 -77l-19 14l-20 20v120l5 5v74l5 5v55l5 5v69l5 40l-5 25l5 15l-5 5v94l-5 5v55l-20 94l34 10l35 -19l15 -65v-60l10 -40v-104l5 -45l-5 -5v-79l-5 -5v-65l-5 -5v-64l-5 -5v-50l20 -10q134 25 254 85l29 -10v-30l-19 -25q-150 -75 -314 -109z" />
    <glyph glyph-name="M" unicode="M" horiz-adv-x="607" 
d="M471 -86l-40 35v71l-11 55v291l5 25l-5 30h-10q-60 -140 -105 -286l-30 -5q-60 121 -80 256h-15l-5 -15v-171l-6 -5v-110l16 -80l-21 -61l-25 -5l-35 25l-5 5v81l-5 15l5 5v140l5 5v116l5 5v221l5 15l-5 35q20 25 55 15l66 -55l10 -15v-86l35 -160h10q70 175 156 346
l30 5l30 -20l10 -35q-15 -30 -15 -60v-71l-5 -15l5 -30l-5 -40l5 -25l-5 -5v-136l-5 -20l5 -5v-115l5 -5v-65l10 -86z" />
    <glyph glyph-name="N" unicode="N" horiz-adv-x="557" 
d="M155 -85l-35 25l-15 66l5 35l-10 30v70l-5 40l5 5v256l5 5v171l25 10l45 -30q96 -211 201 -417l15 -5v296l-30 126l20 25l35 5l31 -30v-80l10 -51v-301q15 -75 25 -155l-5 -25l5 -21l-10 -20h-25l-26 31l-15 5q-105 230 -221 451h-20v-25l5 -5v-60l-5 -5v-231l20 -85v-91
z" />
    <glyph glyph-name="O" unicode="O" horiz-adv-x="512" 
d="M233 -83q-70 54 -105 134l-19 84v144q9 189 84 348l40 5q69 -44 139 -79q25 -60 30 -129v-60l10 -55v-94l-5 -5v-60q-20 -124 -110 -223l-15 -10h-49zM253 -14q74 95 94 209v50l5 5v54l-5 5v90l-30 124l-74 10q-50 -104 -65 -229v-54l-5 -5v-95q10 -89 60 -164l15 -5z
" />
    <glyph glyph-name="P" unicode="P" horiz-adv-x="512" 
d="M144 -85q-25 10 -35 35v59l-5 15l5 5v163l-5 20l5 5v94l5 20l-5 24l5 5v174l-5 24l5 5v50l40 5l54 -25l30 10h74q54 -15 94 -60l30 -49v-54q-45 -129 -154 -233l-104 -49l-5 -5v-129l10 -45l-5 -4v-50zM233 261q84 80 133 183l10 45l-39 45l-55 9q-49 -5 -84 -44l-15 -25
v-54l-5 -5v-119l-5 -49l25 -5z" />
    <glyph glyph-name="Q" unicode="Q" horiz-adv-x="607" 
d="M227 -86q-71 40 -96 111l-25 135v146q15 180 91 336q35 25 75 30q55 -30 95 -85l25 -101v-80l5 -5v-55l-10 -70l5 -26l-5 -5v-50q51 -50 111 -80q35 0 50 -20v-10h10v-30h-45q-70 25 -136 55q-20 -106 -90 -186zM247 -16q50 76 70 166l-60 60l-5 30q20 15 45 10l30 -5
l10 36v180q0 66 -40 121l-20 5l-15 -30l-20 -5q-55 -131 -70 -281l5 -6v-150q10 -70 45 -136h20z" />
    <glyph glyph-name="R" unicode="R" horiz-adv-x="512" 
d="M156 -90l-35 26l-10 35v293l5 5v171q-15 86 -41 162l31 15l40 -26l10 -20l30 -5l96 15q86 -10 152 -75l15 -61q-36 -81 -106 -146l-91 -86q106 -81 156 -197q21 -35 16 -80l-41 -5q-50 116 -141 217l-45 20l-16 -5l-5 -15v-81l5 -5v-66l5 -5v-60zM212 279q111 90 166 201
q-45 41 -111 36l-91 -25v-56l10 -25v-66l-5 -5v-60l26 -5z" />
    <glyph glyph-name="S" unicode="S" horiz-adv-x="512" 
d="M183 -86q-30 25 -70 25l-26 71l36 10l20 -15l25 -21h61l101 61q20 25 15 60q-121 111 -207 258l-15 96q10 60 60 100q41 31 91 41h91q35 -10 66 -41l5 -30l-31 -15l-35 20h-61l-90 -55l-21 -31v-50l56 -111q91 -76 156 -177l5 -65q-15 -45 -55 -76q-71 -55 -162 -55l-5 5
z" />
    <glyph glyph-name="T" unicode="T" horiz-adv-x="590" 
d="M313 -78l-30 15l-19 54l5 15l-5 15l5 29l-5 5v237l-5 5v78l-20 99l-29 5l-109 -30l-39 40v14q69 25 148 35h137l20 5l5 -5h69l34 5l45 -25l5 -24q-30 -25 -74 -20l-5 5h-49l-5 5h-69l-5 -45l15 -88v-64l-5 -35l5 -5v-128l5 -14l-5 -25l5 -5v-89l9 -39z" />
    <glyph glyph-name="U" unicode="U" horiz-adv-x="512" 
d="M221 -75q-55 35 -79 89l-30 114v148l5 25l-5 15l44 247l45 5l10 -5l20 -44q-30 -75 -40 -154v-59l-5 -5v-89l-5 -5v-69q5 -69 40 -129l15 -5q84 129 94 287v69l4 5v129l-4 40l19 29h35l30 -29v-40l-10 -20v-69l-5 -5v-114q-10 -193 -114 -346q-25 -20 -64 -15z" />
    <glyph glyph-name="V" unicode="V" horiz-adv-x="512" 
d="M231 -79l-35 30q-29 99 -44 203v79l-10 50v49q-15 124 -45 238q25 14 55 9q44 -99 54 -212v-55l5 -5v-64l5 -5v-84l5 -35h15q49 233 118 455l20 5l45 -19l5 -55q-99 -282 -163 -579z" />
    <glyph glyph-name="W" unicode="W" horiz-adv-x="567" 
d="M346 -85l-34 19q-39 98 -44 211h-15l-49 -211l-34 -5q-34 69 -44 147v49l-10 49v103l-5 5v54l-5 5v78l-5 5v103l-4 5v49l39 10l24 -15l10 -54l-5 -5v-98l5 -5v-53l10 -64l-5 -5v-54l5 -5v-49l15 -5q24 98 34 201v54l10 44v59l5 5v49q19 15 44 10l29 -25v-64l5 -4v-167
l-5 -5v-127l5 -20l-5 -39l10 -44h15q29 196 68 392v63l10 10h49q29 -19 20 -54q-45 -181 -79 -367v-49q-24 -93 -49 -181z" />
    <glyph glyph-name="X" unicode="X" horiz-adv-x="512" 
d="M145 -86l-35 24l-4 35q54 147 103 295q-39 158 -108 305l34 10l35 -25l78 -206h10l104 211l29 5l35 -24v-30q-89 -148 -143 -315q54 -113 113 -226l-30 -15l-34 20l-79 147h-15q-39 -98 -68 -202z" />
    <glyph glyph-name="Y" unicode="Y" horiz-adv-x="587" 
d="M275 -77l-34 45v84l-5 5v124l-5 5v64q-55 183 -159 341l35 10q64 -59 109 -143l25 -55h14l79 89h10l5 15q55 55 119 84q45 -10 35 -59q-119 -79 -203 -198v-50l10 -34l-5 -5v-109l5 -35l-5 -24l5 -5v-74l10 -50q-15 -25 -45 -25z" />
    <glyph glyph-name="Z" unicode="Z" horiz-adv-x="512" 
d="M332 -80l-5 5h-54l-40 10h-84l-40 35v19q89 248 178 495l-49 5l-5 -5h-64l-45 -5l-34 35v29l5 10h49l5 -5h133l5 5h65l20 -15q19 -14 14 -44q-104 -238 -188 -485q40 -20 89 -25h50l69 25q30 -10 35 -39q-45 -50 -109 -50z" />
    <glyph glyph-name="bracketleft" unicode="[" horiz-adv-x="477" 
d="M177 -79q-40 29 -30 79l5 5v95l5 5v94l5 5v194q-10 109 -55 204l10 15h80l79 24l30 -19l5 -30q-45 -25 -104 -35l-10 -30q20 -55 29 -119v-100l5 -15l-5 -5v-119l-4 -5v-84l-5 -5v-55l-5 -20l10 -10h54l15 -5l35 5l20 -15v-30l-5 -9l-35 -15h-129z" />
    <glyph glyph-name="backslash" unicode="\" horiz-adv-x="512" 
d="M237 -79l-35 40v24l10 45l-10 35h-65q-30 20 -35 55l35 19l15 -5l50 15l10 20v85l-25 5l-30 -5l-35 35v24l15 15h50l20 10l5 5v50q-75 114 -105 244l30 14l40 -24q20 -85 60 -159l15 -5q79 89 174 139l29 -25v-30l-69 -65h-10l-20 -19q-60 -45 -75 -110l10 -10h60l30 -25
v-19l-15 -20l-15 -5h-65l-10 -15v-75l40 -5l35 5l25 -40l-95 -49l-10 -45l10 -50v-54q-15 -25 -44 -25z" />
    <glyph glyph-name="bracketright" unicode="]" horiz-adv-x="477" 
d="M147 -96l-34 25l-15 29l24 30l90 20l5 5v199l5 5v119l5 5v80l5 5v49l20 120l-35 5l-85 -20l-39 45v14l10 15h64l144 20l25 -15l10 -44q-40 -105 -50 -219v-129l-5 -5v-65l-5 -5v-189l10 -50q-74 -19 -149 -49z" />
    <glyph glyph-name="asciicircum" unicode="^" horiz-adv-x="497" 
d="M351 464l-45 50q-10 65 -40 120l-20 5l-15 -5q-45 -55 -60 -120l-40 -10q-30 25 -30 60q45 90 125 165h45q100 -110 115 -255z" />
    <glyph glyph-name="underscore" unicode="_" horiz-adv-x="490" 
d="M117 -83q-35 20 -30 60l10 10h60l60 10l25 -5l5 5h65l15 5l40 -45l-15 -20l-15 -5h-85l-45 -10h-65z" />
    <glyph glyph-name="grave" unicode="`" horiz-adv-x="400" 
d="M256 603q-70 20 -120 80l-15 45l40 10l30 -20l40 -40v-10l35 -25l10 -25z" />
    <glyph glyph-name="a" unicode="a" horiz-adv-x="512" 
d="M152 -74l-50 39q-29 45 -29 105v55q10 124 104 218l25 15h50q49 -10 89 -50q20 -49 25 -109v-89l35 -75l15 -5l19 -45l-24 -20q-40 5 -65 45l-25 45l-15 5q-40 -80 -114 -134h-40zM177 5q85 90 114 199v65l-10 25l-34 5q-55 -40 -80 -105l-25 -79v-80l15 -30l15 -5z" />
    <glyph glyph-name="b" unicode="b" horiz-adv-x="492" 
d="M162 -87l-40 35v56l-5 5v61l-11 55v71l-5 6v131l5 5v51l6 5v61l5 5v51l20 132l25 5l41 -26l5 -40l-20 -86l5 -16l-10 -40v-51l-6 -5v-61l-5 -30h16l71 25q65 -5 111 -61l20 -40v-71q-30 -107 -121 -188q-46 -35 -107 -45zM223 19q66 66 96 142v51l-15 25l-40 15l-56 -25
q-36 -36 -31 -91l21 -117l20 -5z" />
    <glyph glyph-name="c" unicode="c" horiz-adv-x="495" 
d="M231 -87q-55 10 -90 55l-30 60v85q10 120 90 205q25 25 60 20q50 0 85 -45l10 -45l-40 -10l-50 40q-35 -30 -60 -75l-25 -110v-65l25 -40l40 -10q65 25 125 50l20 -15v-30q-70 -65 -160 -70z" />
    <glyph glyph-name="d" unicode="d" horiz-adv-x="512" 
d="M180 -81l-61 41q-50 55 -50 131q15 96 95 161q31 20 71 20l71 -20l5 15v51l5 5v70q15 142 70 263l41 5l25 -20v-41q-56 -106 -66 -237v-65l-10 -26v-75l-5 -5v-106l15 -56v-50l-20 -25h-15l-30 15l-81 -51h-60zM280 15l26 20v51l-5 5v91l-51 30l-65 -46q-36 -55 -41 -121
l25 -50l36 -15z" />
    <glyph glyph-name="e" unicode="e" horiz-adv-x="512" 
d="M194 -88q-40 5 -70 44q-39 55 -39 125v104q4 85 64 144q30 20 70 15q79 -45 134 -124v-35q-85 -75 -189 -104l-5 -5v-50l20 -45l30 -5q109 45 214 95q14 -20 9 -45q-104 -94 -238 -114zM219 175l59 40v15l-64 54q-30 -24 -45 -59l-15 -65l25 -5z" />
    <glyph glyph-name="f" unicode="f" horiz-adv-x="512" 
d="M240 -79l-31 25v56l5 16l-5 5v66l-5 5v87q-46 10 -86 25l-16 41l16 15h50l21 -5l15 15v51l-5 5v56q0 148 92 255l40 10q51 -10 87 -51l5 -25l-35 -10q-21 15 -46 10q-67 -82 -72 -189v-112q31 -15 72 -20l10 -31q-36 -25 -77 -30l-5 -41l5 -5v-71l6 -6v-66l5 -5v-61
q-16 -20 -46 -15z" />
    <glyph glyph-name="g" unicode="g" horiz-adv-x="497" 
d="M220 -140l-56 36v40l40 4l42 -18q37 42 37 102v60l5 5v93l-18 4q-37 -37 -93 -37l-28 14l-46 51l-5 23v47q14 101 102 176l65 18q46 -4 79 -42l23 -83v-74l-14 -33v-199l-5 -14l5 -23q0 -83 -65 -139zM219 223q46 33 69 79l14 79l-14 37h-28l-46 -28q-42 -69 -51 -153
l19 -28h13z" />
    <glyph glyph-name="h" unicode="h" horiz-adv-x="512" 
d="M135 -82l-34 29v40l9 55v60l10 49v70l5 5v69l5 5v70l-5 5v94l-15 80q15 25 45 20l35 -25v-85l10 -54v-110l-5 -44h15l15 10h49q50 -25 70 -80l15 -65v-49l30 -85l30 -25v-20l-15 -19h-25l-40 24q-65 110 -74 239l-25 5q-50 -89 -60 -199v-54z" />
    <glyph glyph-name="i" unicode="i" horiz-adv-x="400" 
d="M170 -85l-30 35v211l5 5v121l15 20h30l25 -15l10 -35l-10 -26v-60l-5 -15l5 -20l-5 -5v-95l-5 -51l5 -5v-55q-15 -15 -40 -10zM205 427q-35 5 -55 35l-20 61l35 15l40 -25l10 -41l15 -5l5 -15q-5 -25 -30 -25z" />
    <glyph glyph-name="j" unicode="j" horiz-adv-x="462" 
d="M140 -131l-38 33v15l57 23q66 90 80 198v147l-28 151l14 19h28l33 -29v-47l19 -99v-137q0 -160 -118 -269zM216 516l-33 24l-15 80l38 4l62 -61v-28z" />
    <glyph glyph-name="k" unicode="k" horiz-adv-x="487" 
d="M151 -89l-35 35v15l5 15l-5 24l5 45l-5 5v54q-10 45 -34 79l29 30v74l-5 5v124l-5 5v84l-5 20l15 20h30l35 -30v-277l24 -5q74 35 129 94h15l29 -20l5 -30q-79 -74 -173 -103v-20q89 -60 183 -114l10 -40l-25 -14q-89 54 -183 103l-5 -4v-80l10 -79q-14 -20 -44 -15z" />
    <glyph glyph-name="l" unicode="l" horiz-adv-x="400" 
d="M196 -74l-30 25l-10 81v60l-5 5v131l5 5v80l5 5v60l5 5v236l40 10l30 -15l5 -5v-100l-5 -5v-76l5 -15l-5 -5v-65l-5 -5v-60l-5 -5v-86l-5 -5v-50l5 -15l-5 -30l20 -151l-5 -10h-40z" />
    <glyph glyph-name="m" unicode="m" horiz-adv-x="582" 
d="M128 -86q-30 10 -40 40l-5 36l5 35l-5 5v85l-10 65l5 15l-10 36l15 20h35l25 -20v-66l15 -5q15 60 66 106q25 20 65 15l55 -50h15q20 30 50 25l35 -25q31 -136 86 -262l-25 -15l-40 21q-46 80 -61 175h-10q-40 -90 -65 -186l-35 -5q-35 26 -25 71l25 160l-15 20h-15
q-81 -130 -101 -286z" />
    <glyph glyph-name="n" unicode="n" horiz-adv-x="520" 
d="M134 -70l-30 25l-5 82l5 15l-5 5v116l-21 137q26 26 61 16q15 -31 21 -66v-56l5 -20h20l25 35q41 36 97 46l50 -21q41 -116 86 -228l26 -25v-20h-56l-66 66q-15 81 -35 157l-21 5q-66 -46 -96 -117l-15 -71v-66q-15 -25 -46 -15z" />
    <glyph glyph-name="o" unicode="o" horiz-adv-x="512" 
d="M222 -85q-46 6 -81 36l-35 60v121q25 111 106 202q35 20 80 20l51 -30q65 -91 81 -202q-16 -96 -96 -161q-46 -40 -106 -46zM262 -4q61 36 86 101l5 15v61l-45 111h-36l-50 -51q-25 -45 -46 -96v-60l-5 -35l21 -56l25 -10z" />
    <glyph glyph-name="p" unicode="p" horiz-adv-x="482" 
d="M124 -139l-28 27v146l-4 14l9 9v73l4 4v46l-4 27l4 5v118l-4 4v82l-5 14l28 14l54 -28q37 32 91 28q46 -9 82 -46l27 -45v-46q-18 -59 -63 -105l-14 -4l-4 -14q-46 -41 -110 -45l-27 4v-50l-5 -41l5 -13l-5 -5v-50l10 -55l-14 -63zM219 207q68 45 96 114l4 32l-9 22
l-54 14q-46 -36 -96 -50v-114l23 -32h13z" />
    <glyph glyph-name="q" unicode="q" horiz-adv-x="512" 
d="M369 -125q-40 30 -40 69v55l-5 4v60l-5 15l5 19l-5 5v55l-25 5q-39 -30 -94 -30q-54 10 -99 50l-19 44v74q24 74 79 134q44 44 109 39l64 -34h49l30 -20v-49l-10 -45l5 -35l-20 -79v-133l5 -15l-5 -20l5 -5v-54l25 -94q-20 -25 -49 -15zM245 206q54 25 84 74l5 75l-5 15
l-15 4l-15 35l-44 5l-74 -64q-35 -50 -35 -119l25 -35l39 -5z" />
    <glyph glyph-name="r" unicode="r" horiz-adv-x="512" 
d="M171 -77l-41 41v51l-5 5v66l-5 15l10 66l-35 164q20 15 45 10q36 -46 41 -107h10l46 35l5 16l67 46h56l56 -46l5 -31q0 -41 -31 -61l-41 36l-5 25l-15 5q-71 -46 -122 -122l-16 -41v-51l11 -56v-51q-11 -20 -36 -15z" />
    <glyph glyph-name="s" unicode="s" horiz-adv-x="512" 
d="M231 -80q-61 15 -106 71l-20 35l10 25l35 5q25 -50 71 -76h30q45 16 75 56v15q-105 85 -171 190l-5 56q25 50 76 65l95 15q55 -5 90 -45l5 -35l-35 -10l-10 20l-55 10l-80 -35l-10 -35l40 -66l90 -75q35 -40 40 -90l-35 -51q-55 -50 -130 -45z" />
    <glyph glyph-name="t" unicode="t" horiz-adv-x="547" 
d="M280 -92l-15 5l-20 45v291h-45l-76 -25l-50 45v20l15 16h50l5 5h81l25 15l5 5v130l-5 5v181l-5 15q15 25 40 20l40 -25l5 -40l-10 -40v-136l5 -15l-5 -5v-85l35 -10l71 15l40 -20l10 -36l-40 -20h-106l-15 -20v-80l-5 -15l5 -5v-50l-5 -30l5 -5v-56l15 -95h-50z" />
    <glyph glyph-name="u" unicode="u" horiz-adv-x="512" 
d="M399 -123q-66 76 -81 168l-15 5l-91 -92l-41 -5q-41 21 -61 61l-15 61v122l5 5v61l46 10q40 -15 30 -71l-10 -20v-56l-5 -36l15 -50h20q66 50 97 126v81l-5 31q20 15 50 10l31 -41v-111q15 -127 71 -238z" />
    <glyph glyph-name="v" unicode="v" horiz-adv-x="512" 
d="M220 -84l-15 5q-70 165 -105 340l45 15l35 -15q10 -105 50 -185q70 120 110 255l25 5l35 -15l10 -25q-75 -190 -150 -375z" />
    <glyph glyph-name="w" unicode="w" horiz-adv-x="532" 
d="M356 -83l-34 15l-50 178h-10q-39 -89 -69 -183h-30l-19 5q-35 49 -40 114v118l-20 129l35 15l35 -20l9 -30v-84l5 -5v-74h10q55 99 70 213l39 5l30 -25v-89q5 -69 34 -114l20 104v59l15 30l40 5l24 -20v-29q-10 -65 -34 -119v-64q-15 -65 -40 -129z" />
    <glyph glyph-name="x" unicode="x" horiz-adv-x="512" 
d="M134 -112l-20 45q64 89 109 183q-60 64 -84 148q20 15 44 10l40 -45l34 -69h20l74 114l35 5l30 -25v-30l-104 -123v-15q59 -59 84 -134q-10 -24 -40 -19l-74 98h-15q-49 -59 -74 -133z" />
    <glyph glyph-name="y" unicode="y" horiz-adv-x="512" 
d="M171 -123q-29 19 -24 47q43 95 76 195l-123 246l37 14l34 -23l76 -166l18 -5q48 95 81 199l24 9l38 -18l4 -38l-208 -451z" />
    <glyph glyph-name="z" unicode="z" horiz-adv-x="512" 
d="M242 -71l-60 15l-20 -5l-41 25l-15 30q86 136 156 276l-5 5h-85l-20 -5l-41 56l16 20h30l45 -10h65q50 -5 90 -31l5 -40q-75 -125 -150 -251l40 -15h85l66 15l15 -45l-30 -30l-31 -10h-50l-50 10z" />
    <glyph glyph-name="braceleft" unicode="{" horiz-adv-x="485" 
d="M246 -86l-25 29h-9q-25 34 -30 79l5 4v157l-10 44h-49l-34 30l-5 39q49 15 93 34l10 15v49l-20 69v49l-5 4v64q20 79 94 137q24 25 58 25l25 -15l5 -34l-64 -39q-54 -64 -54 -147l25 -118v-78l-20 -44l15 -30v-64l5 -4v-162l29 -39l20 -10l14 -39l-9 -5h-64z" />
    <glyph glyph-name="bar" unicode="|" horiz-adv-x="402" 
d="M202 -100l-44 40v15l10 49v60l-5 5v104l-5 25l5 15l-5 5v55l-5 5v99l-5 25l5 20l-5 5v74l-5 15l5 5v85l5 50l-5 5v64l-5 15l40 15l29 -20l5 -5v-358l5 -5v-49l5 -5v-65l5 -5v-75l5 -5v-119l5 -5v-50l10 -34l-20 -50z" />
    <glyph glyph-name="braceright" unicode="}" horiz-adv-x="482" 
d="M185 -98l-34 9l-19 30l14 4l20 25l58 34l5 19q-49 68 -49 160l25 97q-29 63 -29 136l34 223q-30 25 -64 29l-14 44l48 5q49 -5 78 -44l24 -53l-38 -184v-88l24 -53l29 -24v-30l-24 -19l-20 -44v-58l49 -136q-20 -43 -58 -58z" />
    <glyph glyph-name="asciitilde" unicode="~" horiz-adv-x="512" 
d="M335 490q-41 25 -66 71l-31 81l-25 5q-51 -46 -81 -102l-15 -40l-26 -5l-30 25v36q40 86 121 157h36q35 -5 66 -36l56 -101q45 51 66 117l35 5l25 -41l-50 -106l-56 -61z" />
    <glyph glyph-name="section" unicode="&#xa7;" horiz-adv-x="690" 
d="M451 -108l-5 5l-5 -5l-26 61q31 21 41 52q46 76 62 169l-21 10h-61l-21 -10h-56l-108 -16l-15 5l-15 -5q-36 10 -62 41q-20 26 -15 57q20 66 61 122l-66 26q-36 36 -36 87q46 113 138 210q56 77 143 87l21 -46q-149 -102 -230 -261v-21l25 -25l16 -5h112l67 10l5 -5h51
q56 -5 97 -51l11 -36l-72 -108l87 -36l15 -20v-51q-46 -118 -92 -241h-46zM390 245q56 57 82 123l-16 10h-77l-15 6q-56 -6 -97 -57q-36 -46 -46 -97l10 -10h61q52 10 98 25z" />
    <glyph glyph-name="dieresis" unicode="&#xa8;" horiz-adv-x="602" 
d="M177 588l-36 21l-11 36v73l-10 46l10 11h52l31 -26v-68l11 -36l-16 -42zM421 603q-31 21 -20 63l15 36v52q16 21 47 16l36 -26l6 -42l-42 -93z" />
    <glyph glyph-name="degree" unicode="&#xb0;" horiz-adv-x="602" 
d="M269 440q-57 5 -98 51l-25 46v61l30 57l16 5l15 31q51 61 128 71q62 -15 108 -66l20 -82q-31 -67 -87 -123q-46 -36 -107 -51zM294 522q57 30 87 82l11 61l-6 15l-56 5l-72 -51q-35 -41 -41 -97l31 -31h16z" />
    <glyph glyph-name="plusminus" unicode="&#xb1;" horiz-adv-x="750" 
d="M140 -50l-31 31v41q108 20 201 51l-15 11l-16 46l5 36l-5 5v57l21 154h-31l-129 -31l-31 21l-10 46l216 41l5 5v160l47 5q41 -31 30 -82l-10 -72l26 -11l82 21l31 -5l41 5l31 -26v-36l-144 -20l-15 5l-57 -16q-15 -87 -31 -180v-82h10v-16l-15 -46h51l160 36h57l46 -36
v-15q-46 -31 -103 -31h-62q-185 -21 -355 -72z" />
    <glyph glyph-name="acute" unicode="&#xb4;" horiz-adv-x="802" 
d="M333 501l-32 20l-5 32q78 109 130 233l5 6h58l20 -11l6 -41q-78 -110 -141 -224z" />
    <glyph glyph-name="paragraph" unicode="&#xb6;" horiz-adv-x="582" 
d="M408 -83l-31 21l-5 25l11 20v235l5 5v142l5 6v101l10 31l-5 5v51l-10 26l-46 5l-15 -16v-76l-6 -5v-72l-5 -5v-132l-15 -112l5 -5v-117l10 -26q0 -36 -20 -66l-20 -5l-41 30l-5 77l5 5v97l-5 20l5 15l-56 41q-36 71 -72 143v97q16 71 62 127l15 5l10 25q46 26 107 26
l71 -15l21 15h51q35 -26 30 -66l-5 -5v-204l-5 -5v-123l-5 -5v-51l-5 -5v-193l5 -26l-5 -15l5 -25q-20 -26 -51 -21z" />
    <glyph glyph-name="multiply" unicode="&#xd7;" horiz-adv-x="662" 
d="M133 -30l-31 26v46l160 242l-154 180v31l25 5l47 -25l5 -16l20 -20l103 -119q88 113 201 206h21l36 -26l10 -25l-46 -36h-11l-5 -16l-154 -149v-15l10 -26l21 -11l149 -144v-25l-16 -21h-15l-46 21q-57 82 -134 154h-16q-92 -108 -154 -226z" />
    <glyph glyph-name="divide" unicode="&#xf7;" horiz-adv-x="752" 
d="M410 -67l-41 25q-15 72 -30 139q20 15 46 10l30 -15q16 -52 26 -108l-15 -46zM139 209l-41 41v21q246 82 512 117l41 -25l5 -36q-36 -10 -77 -20h-51q-200 -31 -389 -98zM374 465l-41 51q-25 41 -30 98l30 10l47 -26l30 -122z" />
    <glyph glyph-name="Alpha" unicode="&#x391;" horiz-adv-x="750" 
d="M147 -93l-35 31l-6 36q72 281 185 553l-11 10h-56q-31 20 -25 51l5 5h92l46 15l36 -15q164 -317 271 -655l-41 -16l-46 46q-20 98 -66 190l-47 5l-92 -10l-5 5h-107q-41 -82 -52 -174l6 -21l-16 -51zM465 214l5 31q-41 113 -102 215l-16 5l-87 -241l51 -10h82l5 -5h57z
" />
    <glyph glyph-name="Beta" unicode="&#x392;" horiz-adv-x="720" 
d="M195 -77l-41 20l-25 61l10 16v56l-5 5v92l-36 35l-5 26l41 20l5 5v72l5 5v173l-5 15l5 31l-10 40l45 16l36 -31l5 -35l21 -6q40 16 86 21h72q96 -15 173 -77l15 -51q-20 -40 -61 -76l-71 -66q96 -5 178 -61l10 -51q-87 -133 -229 -194q-92 -20 -189 -36q-5 -25 -30 -25z
M414 66q97 45 148 137q-26 31 -72 26l-15 -5l-5 5h-102l-158 -41l-5 -5v-82l5 -5v-56l20 -25h21q86 15 163 51zM302 285q117 56 204 158v30l-92 26h-82l-112 -41l-5 -5v-117l-5 -5v-62h36z" />
    <glyph glyph-name="Gamma" unicode="&#x393;" horiz-adv-x="847" 
d="M300 -89l-41 10q-31 57 -36 128v169l5 6v102l6 5v67l10 66l-21 5l-82 -15q-35 20 -35 56q276 72 558 118h56l26 -26v-30l-36 -98v-51q-16 -92 -41 -184l-31 -5l-31 20l-5 36l46 261l-46 5l-266 -61l-26 -92v-57l-5 -5v-71l-5 -6v-81l-5 -6v-97l5 -20l-5 -26l31 -107z" />
    <glyph glyph-name="Delta" unicode="&#x394;" horiz-adv-x="832" 
d="M153 -97l-41 41l-10 61q36 15 51 51q97 229 209 454l-10 25l76 26l36 -26q137 -280 270 -565q-5 -26 -31 -31h-36l-5 5h-122l-5 5h-250l-5 -5h-71l-36 -41h-20zM627 10l5 5q-92 209 -199 408h-20q-107 -194 -184 -403l46 -10h56l16 5l5 -5h66l15 5l26 -5l35 5l5 -5h67
l5 -5h51z" />
    <glyph glyph-name="Epsilon" unicode="&#x395;" horiz-adv-x="710" 
d="M186 -93l-41 40v56l10 25v92l5 5v55l6 6v162q-11 121 -71 223l218 35l35 -5l46 10h50l132 26l41 -21l10 -25q-20 -30 -20 -71v-51l-21 -45l-25 -10l-36 30v41l11 65l-41 11l-86 -16h-81l-117 -25l-5 -20q25 -97 41 -198l25 -10h61l15 -5l20 5l36 -5l50 5q26 -5 36 -30
v-21q-41 -25 -96 -20l-5 5h-76l-6 5h-60l-11 -15v-86l-5 -5v-87l-5 -20l21 -10l5 5h61l35 10h71l5 5h76l15 5l5 16v81l-5 30l31 15l25 -25l5 -15v-56l20 -91l-25 -26h-20l-26 11l-223 -31l-15 5q-56 -5 -101 -40z" />
    <glyph glyph-name="Zeta" unicode="&#x396;" horiz-adv-x="757" 
d="M213 -85l-35 20l-10 40q126 268 277 525l-40 5l-76 -15h-50l-51 -10l-20 5l-20 -26l20 -121q-20 -30 -55 -20l-31 25v106l-20 86l10 10h51l5 -5h76l5 5h65l51 10h80l61 10l45 -25l5 -20q-161 -247 -282 -510l30 -15l5 5h56l5 5h95l6 5h75l25 21l36 101l25 5l30 -31
l-10 -40l25 -35l-15 -31l-15 -5l-15 -45l-30 -5l-31 10h-60l-5 -5h-51l-45 -10h-101z" />
    <glyph glyph-name="Eta" unicode="&#x397;" horiz-adv-x="920" 
d="M639 -91l-31 31v20l26 20v87l-5 5v133l5 45q-20 16 -51 11l-5 -5h-51l-5 -6h-56q-117 -10 -219 -45l-5 -5v-57l-5 -5v-51l5 -15l-5 -5v-56l20 -25q41 5 71 -21l5 -20l-61 -21l-5 6h-97l-40 40v16l35 30v117l5 5v67l5 5v61l6 5v56l5 5v66l-5 5v92l-16 31l-51 30l-5 31
l36 10l30 -10h107l56 -21v-20l-91 -25v-67l5 -5v-76l5 -31l-5 -51l30 -15l123 20h61l41 11h127l15 30v56l5 5v56l11 72q-36 5 -62 30l-5 31l16 15h51l5 5h71q51 0 87 -30l5 -26l-5 -5h-77q-15 -20 -15 -46v-66l-5 -5v-56l-5 -5v-56l-5 -16l5 -20q-21 -36 -21 -81v-67l5 -5
v-112l11 -36h61l20 -10v-30q-76 -26 -163 -31z" />
    <glyph glyph-name="Theta" unicode="&#x398;" horiz-adv-x="852" 
d="M337 -97q-107 5 -179 91q-40 51 -46 117v113q26 213 164 377l-6 15q62 46 133 51h71q128 -10 224 -107q46 -87 62 -184l-6 -5v-86q-30 -158 -147 -286q-82 -71 -184 -96h-86zM454 -16q132 61 188 194l41 117v132q-20 77 -71 138l-97 41h-102l-51 -31q-173 -178 -178 -428
q0 -92 61 -153q61 -40 138 -35zM296 188l-41 36v66l26 81l51 5l25 -20l5 -31l21 -5l5 5h132l31 11l10 25l51 10l25 -20v-51q-15 -41 -20 -87l-41 -10q-36 26 -30 66l-6 5h-71l-5 -5h-71l-56 -10l-21 -66z" />
    <glyph glyph-name="Iota" unicode="&#x399;" horiz-adv-x="632" 
d="M269 -74l-25 11h-76l-46 35v25l66 11l40 -6l11 11v126l10 61l-5 15l10 36v66l5 5v56l5 5v137q-66 15 -122 50l-5 31l56 10l51 -15l50 15l41 -15h157l30 -26v-30l-65 -10l-5 5h-102l-15 -15v-56l5 -15l-5 -36l5 -15l-5 -5v-76l-5 -5v-51l-5 -5v-56l-15 -91v-96l30 -16h127
q35 -10 25 -45l-30 -20h-97l-5 5h-50z" />
    <glyph glyph-name="Kappa" unicode="&#x39a;" horiz-adv-x="787" 
d="M152 -95l-41 35v21l41 15l10 26v142l-46 41l-5 31l56 20l5 15v97l5 5v61l-5 31l5 30l-15 67l-46 25l-10 36l10 10h51l5 -5h61l51 5l21 -15v-26l-11 -15l-50 -10l-6 -16l6 -5v-234h15q178 137 377 224l30 -25v-26q-203 -117 -402 -244l-5 -16q214 -91 418 -198l15 -41
l-21 -26h-35q-184 128 -387 199l-16 -15v-128l31 -10l30 5l26 -35l-20 -31l-72 -15h-51z" />
    <glyph glyph-name="Lambda" unicode="&#x39b;" horiz-adv-x="805" 
d="M153 -103l-46 36v20q118 277 261 543h-51l-5 -5h-51l-36 25l-10 31q20 26 51 16l5 -6h108l30 11l21 25h25l31 -15q102 -318 230 -625q-15 -25 -46 -25l-30 15l-5 31l5 25q-113 221 -185 461h-10q-169 -266 -271 -558z" />
    <glyph glyph-name="Mu" unicode="&#x39c;" horiz-adv-x="940" 
d="M709 -81l-65 20q-15 20 -10 46l5 5h60l20 -5l15 5l5 45l-20 95v60l-20 136v70l-10 70h-10q-96 -100 -186 -200l-15 -35l-45 -11l-30 26q-51 95 -101 185l-15 5l-20 -75v-65l-15 -55v-56l-10 -20v-75l-5 -30l10 -20l25 -20v-15l-50 -56h-25l-75 51l-15 30q25 15 50 25
l65 426v51l10 40h45l30 -30q71 -96 121 -201l15 -5l196 196h10l35 50l35 10l40 -25l5 -35l-5 -5v-76l10 -55v-50l5 -15l-5 -15l10 -35v-56l10 -40v-50l10 -10v-65l15 -65l25 -10l10 -26q-25 -30 -55 -35h-60z" />
    <glyph glyph-name="Nu" unicode="&#x39d;" horiz-adv-x="907" 
d="M143 -79l-41 36v15q20 20 46 20l10 36v86l5 5v51l30 167v61l6 5v106q15 20 45 15l26 -15l15 -40l111 -92q107 -147 249 -263h25l5 5v91l-5 20l5 5v117l5 5v147q-40 10 -76 25l-20 46l45 15l41 -5l15 20h46l15 -15h56l25 -20v-20q-30 -31 -71 -31l-5 -5v-167l-5 -5v-233
l-5 -26l5 -20l-5 -20l5 -15l-5 -16l5 -40l-46 -15l-30 15l-5 20l5 30q-213 173 -390 381h-16l-5 -36v-81l-5 -5v-51l-30 -213l5 -20h20l46 5q20 -10 15 -35q-51 -36 -106 -46h-61z" />
    <glyph glyph-name="Xi" unicode="&#x39e;" horiz-adv-x="750" 
d="M162 -88l-36 26l-5 5v51l5 30l-5 31l41 10l31 -15l15 -51h36l30 10h82l51 10h56l5 5h61l41 10l5 26l-5 51q20 15 51 10l35 -36v-25l-5 -41l5 -51l-41 -15l-15 15h-61l-5 -5h-66q-158 -15 -306 -51zM177 151l-35 46l5 31l-16 92l21 10q51 -15 92 -41l5 5h71l5 5h87l15 -5
l15 5l46 -5l26 10l10 56l30 5l41 -30l5 -5v-51l5 -5v-77q-25 -15 -56 -10l-25 46l-5 5h-133l-41 -5l-15 5l-102 -20l-20 -61zM137 371l-31 35v82l-5 20l5 5v77l-5 15l51 20l5 -5h87l5 5h56l5 5h178l20 5l6 -5h117l35 -25v-31l-20 -102l5 -25q-15 -20 -41 -15l-25 20l-10 76
l5 31l-21 15h-56l-5 -5h-137l-5 -5h-56l-5 -5h-82l-31 -15l-5 -5v-97q16 -26 11 -61q-21 -16 -51 -10z" />
    <glyph glyph-name="Omicron" unicode="&#x39f;" horiz-adv-x="762" 
d="M297 -85q-71 15 -127 71q-61 66 -66 158v76q51 224 234 393q26 30 71 25l31 -31v-20l-5 -20q102 -16 188 -72q41 -56 51 -122v-102q-5 -132 -112 -224q-66 -76 -153 -122l-35 -10h-77zM404 6q118 82 179 199l20 76v97l-36 82q-86 35 -178 56l-5 15h-20
q-163 -173 -189 -402l56 -118q46 -35 107 -35z" />
    <glyph glyph-name="Pi" unicode="&#x3a0;" horiz-adv-x="865" 
d="M245 -82q-36 5 -56 35l-5 31l30 25q26 166 56 333v111l-5 15h-66l-5 -5h-60q-31 20 -31 55l10 10h152l25 10l35 -5l5 5h51l80 16l26 -6l5 6h60l31 15h50l50 5l31 -20l5 -21l-20 -25l-46 -5l-5 -5v-313l5 -15l-5 -25l5 -5v-66l25 -75l5 -5h76l20 -36q-70 -40 -151 -40
l-35 30v30l5 41l-21 106v101l-5 5v181l-5 25l5 36l-10 20l-45 5l-35 -10h-56l-5 -5h-60l-16 -25v-51l6 -15l-11 -35v-81l-50 -272l45 -5l46 15l40 -25v-26q-86 -30 -176 -45z" />
    <glyph glyph-name="Rho" unicode="&#x3a1;" horiz-adv-x="772" 
d="M138 -77q-36 21 -36 56l25 21v102l11 45v62l10 35l-5 41l5 5v71l5 6v66l15 112l-5 15l5 21l-5 35l41 10l71 -15l77 15h76q143 -5 245 -91q25 -26 20 -67q-15 -61 -61 -112l-112 -91q-102 -56 -230 -56l-76 15l-5 -36v-56l-5 -5v-66l5 -15l-5 -31l5 -15l15 -5h148l46 -21
l5 -20l-41 -15h-86l-31 -11h-51l-5 -5h-71zM474 321q76 46 127 122l16 61q-67 51 -148 61h-117l-107 -25l-5 -5v-56l-11 -31v-66l-5 -5v-61l-5 -31l26 -10l20 5l51 -15q87 10 158 56z" />
    <glyph glyph-name="Sigma" unicode="&#x3a3;" horiz-adv-x="712" 
d="M562 -69l-30 15l-5 15l-61 11h-85l-40 -5l-40 5l-5 -5h-56l-5 -6h-85l-35 36v20q100 125 216 221l-236 246v20l20 50l40 5l5 -5h96l5 5h70l45 10h60l30 10l5 -5h71l25 5l45 -25l10 -15v-55l-30 -131l-25 -5l-25 15v75l5 5v71h-76l-5 -5h-65l-5 -5h-60l-5 -5h-60l-81 -15
v-16q111 -125 241 -240v-31q-90 -40 -165 -115l-26 -50l21 -5l5 5h200l15 5l26 -5l10 10v110q20 15 45 10l25 -20l5 -60l-5 -5v-126l-5 -15z" />
    <glyph glyph-name="Tau" unicode="&#x3a4;" horiz-adv-x="837" 
d="M313 -84l-40 35v20l20 14h54q15 25 10 55l-5 5v60l-5 5v164l5 5v179l10 64l-10 20h-49l-80 -15q-35 -69 -50 -154l-39 -10l-20 15l-15 45l35 114q-25 20 -20 50l10 10h184l5 5h79l5 5h70l34 -5l45 10h149q60 -90 60 -199l-20 -30l-30 -5q-25 20 -25 45v50l-24 74l-30 5
l-5 -5h-169q-20 -35 -20 -79v-65l-5 -35l5 -20l-5 -5v-94l-5 -5v-104l5 -5v-70q15 -35 20 -75l25 -5l29 10l35 -19l5 -20l-44 -30h-70l-5 -5h-60z" />
    <glyph glyph-name="Upsilon" unicode="&#x3a5;" horiz-adv-x="792" 
d="M246 -89q-35 20 -30 60l45 15l30 -10l30 5v90l5 5v105l5 5v95l-25 75q-110 104 -195 229v35l40 5l35 -15q50 -105 130 -195l35 -15l269 240h25l45 -20l10 -30q-155 -115 -300 -259v-30l10 -65l-10 -55v-100l-5 -5v-50l10 -35l20 -5l45 10l30 -25v-15q-30 -25 -65 -30h-49
l-85 -15h-55z" />
    <glyph glyph-name="Phi" unicode="&#x3a6;" horiz-adv-x="802" 
d="M298 -92l-30 15v40l30 15l15 -5l25 10l5 5v49l4 45q-94 25 -178 80q-50 49 -65 114v79q20 85 89 145q60 34 110 79h20l24 -5l5 5v60l-9 30q-40 5 -65 34l-5 35q20 15 50 10l5 -5h124l25 -25v-15l-50 -25l-5 -39l10 -90q119 -10 219 -69q59 -70 54 -164q5 -60 -44 -100
q-110 -74 -239 -114l-5 -5v-95l25 -9l45 9l34 -19l5 -20q-59 -45 -134 -55h-94zM343 157v14l4 40l-4 15l4 20l-4 5v55l4 5v109l5 5v70l-24 5q-110 -50 -150 -160l-4 -59l29 -75q60 -49 140 -49zM497 206l114 65l25 45v69l-25 55q-80 40 -169 60q-20 -35 -20 -80l5 -35l-5 -5
v-119l-5 -5v-70l25 -10z" />
    <glyph glyph-name="Chi" unicode="&#x3a7;" horiz-adv-x="950" 
d="M149 -83l-41 40v21l41 10l15 -5q36 10 61 45q81 117 182 228v21q-86 111 -187 213h-71l-36 40v26q21 15 46 10l30 -5l46 5l41 -5l45 10h66l31 -21v-15l-102 -35v-15l127 -163h15l127 152l-10 46l126 36h56l36 -26l5 -25q-31 -25 -76 -25l-81 -71h-11q-70 -82 -121 -168
q106 -126 208 -253l45 -5l61 15l25 -15v-31l-50 -30h-117l-25 -5l-31 20l-10 46l5 25l-142 183v10h-20l-152 -203h66l20 -10l5 -31l-157 -40h-91z" />
    <glyph glyph-name="Psi" unicode="&#x3a8;" horiz-adv-x="875" 
d="M344 -96l-34 30v19q24 20 59 20l5 25l-5 14l5 35l-15 54q-98 5 -162 79q-45 54 -59 123v59l9 49v49l10 59l-44 25l-10 34l49 20h59l5 5h79l49 -25l5 -19l-10 -10h-73l-30 -10l-30 -226q10 -69 64 -123q40 -25 89 -30l15 15v133l5 5v83l15 59v64l4 5v99l5 49
q-39 15 -78 44l-5 30l34 15l172 -25l5 -34l-54 -25l-5 -5v-148l-10 -39v-49l-9 -30v-69l-5 -5v-49l-5 -5v-54l-5 -39h20q137 88 192 246l9 49q-39 15 -73 34l-15 30l39 20l5 -5h59l30 15h59l15 -40q-20 -24 -55 -24v-15l5 -35q-39 -128 -113 -246l-93 -74l-79 -34l-5 -5v-99
q5 -29 34 -24l99 29l19 -34l-59 -35v-9q-64 -20 -128 -25h-59z" />
    <glyph glyph-name="Omega" unicode="&#x3a9;" 
d="M636 -78l-45 26l-10 35q86 60 141 150q60 96 80 206v60q-5 66 -50 116q-70 70 -166 80h-115q-106 -20 -186 -105q-35 -61 -60 -126v-65l-5 -5v-55q35 -121 105 -226l30 -15v-15l-5 -15q-95 -25 -195 -31l-46 56l-10 60l15 25l25 5q26 -35 36 -75l50 -5l20 10l5 20
q-90 105 -101 241v60l-5 15q16 131 111 226q70 65 161 85h160q146 -15 246 -130q45 -60 55 -136v-60l-5 -5v-50q-45 -151 -140 -276l5 -5h55l50 10q25 40 40 80l20 5l21 -25v-55l-21 -76l-5 -5h-140l-5 -5h-85z" />
    <glyph glyph-name="alpha" unicode="&#x3b1;" horiz-adv-x="777" 
d="M212 -84q-45 10 -80 50l-20 61v86q30 141 141 247l35 15h51l75 -51l46 -85h15q55 151 85 312l36 5l35 -40q-45 -202 -126 -393l55 -91l46 -15q25 30 60 30l16 -35l-16 -36l-75 -25q-41 10 -71 41l-65 70q-66 -86 -157 -131zM283 -3q91 55 141 146v15l-75 146l-31 10
l-25 -10q-101 -111 -121 -252l30 -71l26 -10z" />
    <glyph glyph-name="beta" unicode="&#x3b2;" horiz-adv-x="697" 
d="M141 -125l-40 44l10 10v50q35 212 143 395l15 5q35 70 99 129l50 25h84q74 -40 109 -119l5 -20v-54l-20 -40l-84 -74q39 -40 39 -99l-34 -54q-40 -35 -89 -40h-70l-89 25l-15 35l15 14h50l44 -19h50q54 14 74 69q-10 34 -45 44h-19l-40 -5l-30 25v30q99 5 174 79
q24 25 19 64l-29 65l-55 24q-54 -15 -94 -64l-44 -59h-10q-104 -198 -139 -426l5 -44q-15 -20 -39 -15z" />
    <glyph glyph-name="gamma" unicode="&#x3b3;" horiz-adv-x="787" 
d="M233 -69l-35 30v35q35 79 65 159v65q-15 49 -60 69q-49 5 -89 40l-5 20q25 15 55 10q59 -10 109 -55l5 -15l15 -5l30 -74h20l9 20l100 74l55 20h69q50 -10 90 -50l20 -64l-25 -45l-15 -5l-35 20l-5 35l10 24l-40 35h-30q-69 -25 -129 -74l-15 -20h-10q-94 -110 -129 -244
z" />
    <glyph glyph-name="delta" unicode="&#x3b4;" horiz-adv-x="725" 
d="M299 -93q-94 15 -168 64l-30 50v79q25 84 104 148q94 84 213 99l5 20q-84 89 -173 158v20q24 15 54 15h59l55 15h114l69 -25l10 -30q-20 -15 -45 -10l-39 15h-85l-74 -15v-14q104 -124 228 -208l5 -35q-15 -20 -40 -15l-25 5v-20l5 -5v-118q-9 -89 -79 -159l-64 -24h-50z
M423 -4q44 59 54 129v93l-20 70l-34 5q-94 -35 -173 -99q-75 -74 -80 -173q20 -35 60 -50l74 -5l15 5l20 -5z" />
    <glyph glyph-name="epsilon" unicode="&#x3b5;" horiz-adv-x="587" 
d="M240 -93l-80 46q-41 45 -36 105q10 46 51 81l70 51v15q-95 40 -141 131v20q76 76 177 96h86l35 -10l30 15l40 -30l11 -66l-31 -20q-55 45 -126 55q-75 -10 -136 -60l-5 -15q35 -46 91 -71l45 -10h71l30 -25v-20q-101 -31 -187 -96l-40 -81l15 -35l46 -15q80 25 151 85
l10 41l-10 30l25 10l45 -20q26 -20 21 -50l-46 -66q-85 -81 -196 -91l-5 5z" />
    <glyph glyph-name="zeta" unicode="&#x3b6;" horiz-adv-x="547" 
d="M317 -124q-25 15 -20 40q59 50 84 120q-129 5 -224 85l-25 70v60q45 239 219 424l-5 5h-89l-5 -5h-125l-30 50q15 20 40 15l20 -10h80l5 5h65l5 -5h64q45 0 75 -25l5 -25q-214 -205 -259 -484l25 -60q109 -40 229 -60l10 -45q-30 -80 -90 -150l-5 -5h-49z" />
    <glyph glyph-name="eta" unicode="&#x3b7;" horiz-adv-x="632" 
d="M479 -95l-29 14l-14 38l10 24l-5 19l5 5v195l4 5v62l5 28l-5 15l5 38q-9 81 -43 147l-24 5q-109 -76 -152 -195l-19 -57v-57l5 -15l-19 -24h-29l-28 29v48l4 4v48l5 29q-14 104 -52 200l28 9l34 -19l33 -95h14q53 105 153 157l47 5l48 -34q52 -90 62 -200v-104l-5 -5v-62
l-5 -5v-71l-4 -24l4 -5v-52l5 -15l-5 -23l5 -19l-9 -34z" />
    <glyph glyph-name="theta" unicode="&#x3b8;" horiz-adv-x="687" 
d="M324 -85q-101 10 -172 96q-40 55 -45 126v50q25 187 146 338l71 51h116q50 -5 86 -46q30 -65 45 -136v-101q-30 -171 -141 -313q-46 -50 -106 -65zM339 -10l20 11q81 100 116 216h-15q-106 -25 -217 -35h-55q-15 -25 -10 -55q5 -66 50 -116q40 -31 86 -36zM490 273
q26 40 21 91l-46 146l-15 10h-61l-60 -20l-5 -15l-66 -76q-50 -76 -65 -166h75l5 5h51l35 10h56l5 5h50z" />
    <glyph glyph-name="iota" unicode="&#x3b9;" horiz-adv-x="520" 
d="M253 -84l-41 25l-10 36l5 5v81l10 46v56l11 56v194l-11 51l36 10l36 -15l10 -26v-203l-5 -6v-50l-10 -51v-56l-6 -6v-66l36 -15q41 25 92 25l15 -5l5 -30q-76 -51 -173 -56z" />
    <glyph glyph-name="kappa" unicode="&#x3ba;" horiz-adv-x="572" 
d="M149 -86l-30 25v44l20 90v65l5 24l-10 25q20 30 15 70l-5 5v64l-5 5v60l-15 55q20 15 50 10l25 -25v-55l4 -5v-94l10 -45h15l174 104l35 -15l5 -24l-179 -110v-20q100 -64 214 -104l5 -30q-20 -20 -50 -15q-114 55 -229 105l-9 -70v-99l-15 -35z" />
    <glyph glyph-name="lambda" unicode="&#x3bb;" horiz-adv-x="590" 
d="M150 -85l-25 15l-10 26q90 85 161 186l20 41l15 5v10q-95 151 -211 297l35 15l45 -25q152 -222 298 -449l20 -10q25 -25 25 -60l-10 -21l-30 -10l-35 21q-26 90 -81 166l-15 5q-66 -96 -141 -187q-26 -20 -61 -25z" />
    <glyph glyph-name="mu" unicode="&#x3bc;" horiz-adv-x="840" 
d="M133 -120l-29 48q116 126 198 271q48 96 82 198l34 5l34 -24v-15l-29 -97v-91l29 -58l38 -10q58 29 82 87l15 39v72l5 19l-5 25l29 14l38 -14l10 -54l-5 -4v-87q5 -73 44 -131l43 -24l5 -24q-19 -15 -43 -10q-39 5 -63 39l-24 58h-15q-39 -39 -87 -63h-63l-48 29
q-34 39 -43 87l-15 5q-72 -150 -183 -285z" />
    <glyph glyph-name="nu" unicode="&#x3bd;" horiz-adv-x="675" 
d="M317 -85l-40 25q-80 215 -175 420q20 15 50 10q45 -45 70 -105l85 -245l20 -5q124 115 184 260l-35 30l-5 35l20 5l20 -5l20 5l35 -20q20 -35 20 -75q-45 -125 -155 -225l-109 -105z" />
    <glyph glyph-name="xi" unicode="&#x3be;" horiz-adv-x="527" 
d="M298 -88l-38 19l-5 24l72 49q34 38 29 92q-87 24 -164 72l-39 63v67q15 92 73 165q-34 19 -53 53l-5 14v49q43 53 77 111l-39 4l-4 -4h-63l-29 48l34 10l4 -5h116l44 -5l5 5h62q34 -10 25 -44q-107 -48 -165 -149v-20l20 -24h34q33 19 82 19l19 -14l5 -39l-15 -19
q-62 -10 -106 -58q-53 -72 -53 -164q14 -34 48 -49q68 -14 131 -48q24 -38 24 -87q-10 -67 -68 -116z" />
    <glyph glyph-name="omicron" unicode="&#x3bf;" horiz-adv-x="697" 
d="M275 -64q-81 16 -137 81q-25 36 -30 76v51q15 61 60 112q92 71 198 96h81q56 -10 102 -56q40 -45 50 -101v-51l-30 -56q-86 -86 -193 -136zM376 33q86 40 147 121l5 46l-35 76l-71 20q-107 -20 -193 -76q-50 -56 -50 -137q5 -40 45 -71q31 -20 76 -15z" />
    <glyph glyph-name="pi" unicode="&#x3c0;" horiz-adv-x="562" 
d="M170 -88l-50 35l-5 31l10 15v61l10 50v137l-10 26l-15 5l-11 35l36 15h96l5 5h152l56 11l20 -5l16 -36l-46 -35v-56l5 -5v-51l5 -5v-112h10l15 5l16 -30q-26 -46 -76 -56l-41 26l-10 30l20 20v102l-5 5v66l-5 20l5 20l-30 36h-26l-111 -21l-5 -15v-66l5 -5v-50l-15 -127
q30 -20 25 -51l-10 -25z" />
    <glyph glyph-name="rho" unicode="&#x3c1;" horiz-adv-x="537" 
d="M163 -72q-53 57 -53 133v175l-4 33l14 38v71l-5 5v52l-9 29q14 19 42 14l15 -5q42 57 104 62q66 -5 114 -57q47 -66 52 -152l-38 -61q-95 -81 -218 -86l-5 -28l5 -14l-5 -24l5 -14l-5 -34q24 -56 28 -123q-9 -19 -37 -14zM272 260q61 24 94 80l5 38l-47 86l-38 14
l-67 -47q-28 -38 -38 -91v-94l29 -10z" />
    <glyph glyph-name="sigma" unicode="&#x3c3;" horiz-adv-x="692" 
d="M306 -81q-86 15 -151 86q-56 55 -51 136q5 96 86 166q45 41 96 56h55l76 -10l15 5l25 -10h56l65 10l31 -26v-25l-61 -20h-50v-20l50 -40q20 -41 15 -86q5 -106 -75 -182l-81 -40h-101zM432 5q40 25 56 70l5 30v51l5 40q-21 46 -66 61l-55 25h-76l-20 5q-56 -35 -86 -96
q-25 -45 -20 -101q10 -45 50 -75q41 -31 86 -41h61z" />
    <glyph glyph-name="tau" unicode="&#x3c4;" horiz-adv-x="582" 
d="M348 -67l-67 52l-21 46v211l-15 21h-26l-82 -26l-36 26v36l159 36h93l82 10l47 -26l5 -31l-52 -15l-5 5h-82l-21 -15v-73l5 -15l-5 -5v-72l5 -21l-5 -41l16 -26l36 -5l31 5l15 -51q-31 -31 -77 -26z" />
    <glyph glyph-name="upsilon" unicode="&#x3c5;" horiz-adv-x="627" 
d="M489 -79q-57 51 -62 123l-20 5q-97 -108 -231 -123l-56 56l-10 72v66l20 118q-25 26 -20 62l31 5l46 -36l10 -77l-10 -25v-52l-11 -30v-62l16 -25l15 -6q128 62 205 180l15 92l-5 15l10 21l41 5l26 -21l5 -41l-15 -71v-103l46 -112l-15 -31z" />
    <glyph glyph-name="phi" unicode="&#x3c6;" horiz-adv-x="712" 
d="M280 -83l-23 32v60l-14 41l4 23l-13 56q-42 18 -79 55t-46 88v74q23 73 88 133l41 5l23 -32l-9 -23l-37 -23q-55 -56 -46 -139q9 -32 37 -60l23 -9v97q5 83 65 147q60 51 133 60h56q60 -23 106 -78q23 -28 18 -65q-32 -87 -101 -156q-88 -74 -199 -88l-4 -28l27 -147
l-9 -23h-41zM381 203q106 50 157 161l5 28q-14 32 -46 46l-14 4h-51q-55 -18 -102 -64q-27 -51 -36 -106v-88l23 -9z" />
    <glyph glyph-name="chi" unicode="&#x3c7;" horiz-adv-x="705" 
d="M202 -128l-24 5l-20 44l30 55q84 99 168 203v29q-5 50 -30 94l-34 10q-55 -20 -94 -59l-30 -59h-25l-30 29v30q45 74 124 114l15 5h54l65 -40q24 -35 34 -74h10q60 79 149 94l19 -15l5 -35l-94 -59q-54 -54 -74 -129l30 -84l54 -19q30 34 70 39l19 -44l-49 -55l-55 -5
q-44 5 -74 45l-39 79h-15q-79 -89 -129 -188z" />
    <glyph glyph-name="psi" unicode="&#x3c8;" horiz-adv-x="630" 
d="M269 -82l-24 14l-10 34q14 29 14 62v72l-9 20q-48 4 -87 33q-29 29 -33 67v77l9 39v58l-14 52l43 10l29 -29l5 -38v-63l-5 -5v-48l-5 -4v-58l29 -29l29 -5l19 15l29 211v106l5 43l-5 29q19 14 43 10l29 -24v-53l-5 -19l5 -20l-5 -5v-48l-5 -4v-58l-4 -5v-48l-10 -29v-48
h14q48 29 68 77l24 72v63l33 9q34 -14 48 -48v-24q-19 -96 -96 -173l-105 -72l-5 -14v-121l5 -14l-5 -5v-48q-15 -24 -48 -14z" />
    <glyph glyph-name="omega" unicode="&#x3c9;" horiz-adv-x="870" 
d="M235 -71q-61 5 -101 56q-30 35 -30 80q10 91 70 162l91 75l5 15q46 36 101 46l50 -25l6 -26q-96 -20 -162 -100q-76 -76 -86 -177q10 -35 46 -45h40q81 35 151 95l16 61l15 5l45 -20l15 -25v-61q30 -40 81 -30l91 40l20 51l-35 85l-36 21l-5 15l25 30l26 5l40 -30
q45 -71 56 -152q0 -50 -41 -80q-65 -51 -151 -51q-81 15 -146 61q-66 -56 -147 -81h-50z" />
    <glyph glyph-name="afii10023" unicode="&#x401;" horiz-adv-x="765" 
d="M203 -98q-30 5 -40 35v50l-5 5v175l5 5v65l10 25v80l5 5v129l-55 25l-15 40q170 45 344 80h135l30 -25v-20l-25 -45l25 -80l-40 -10l-30 10q-5 55 -30 100l-25 5q-124 -15 -234 -55l-10 -40l5 -40l-5 -24l5 -5v-50l-10 -55l35 -5l115 25h59l55 10l45 -25l5 -30
q-25 -20 -55 -25h-55l-15 5l-5 -5h-49l-135 -45l-15 -45v-85l15 -70h15q179 25 344 80l5 20l-5 35l45 5l30 -25v-90q-240 -55 -474 -115zM253 661q-45 40 -45 105l10 35h40l20 -10l15 -50l-5 -40l10 -35zM472 676l-20 10l-5 45l20 85h30l35 -20l5 -40l-30 -75z" />
    <glyph glyph-name="afii10017" unicode="&#x410;" horiz-adv-x="770" 
d="M147 -89l-41 35v62q77 261 189 507l-25 10l-41 -10l-46 41v15l15 15h97l36 16l15 36h46l36 -41q113 -318 251 -625l-15 -26l-41 -5l-41 26v56q-46 72 -72 154l-36 5l-20 -5l-31 10l-15 -5l-51 5l-5 -5h-103q-51 -87 -66 -190l15 -56l-21 -25h-30zM474 264l6 5
q-41 113 -93 225h-10q-61 -118 -102 -240l66 -11l5 5h62z" />
    <glyph glyph-name="afii10018" unicode="&#x411;" horiz-adv-x="730" 
d="M145 -89l-40 55l15 36l-10 30v181l5 6v100l-5 16l5 5v85l5 5v116l15 16h111l40 10h81l5 5h106l5 5h76l45 5l35 -25v-142l5 -20l-35 -25l-30 10l-15 25v91l-15 20h-51l-5 -5h-96l-50 -10h-51l-95 -25l-10 -56v-111l5 -15l-5 -40l20 -10q55 20 121 25l5 -5h50
q86 -5 152 -56q50 -50 50 -126q-35 -80 -111 -121q-81 -35 -177 -45h-85zM443 37q50 25 70 76v20l-30 50q-30 25 -71 25h-50l-25 5l-146 -45l-6 -5v-131l26 -46l5 -5h80z" />
    <glyph glyph-name="afii10019" unicode="&#x412;" horiz-adv-x="712" 
d="M150 -88q-41 36 -41 92v87l5 20l-5 15l5 5v72l5 5v81l5 6v122l-5 5v97l-5 40q20 16 46 11l30 -16l16 -20h25l56 15h72q81 -5 147 -56l10 -30q-30 -67 -61 -133q97 -10 163 -81l5 -5v-77l-66 -102q-158 -117 -356 -132l-16 -21h-35zM430 70q86 41 122 128v30
q-56 46 -127 41l-21 -5l-15 5q-86 -76 -199 -92l-5 -5v-97l-5 -30l10 -31l6 -5h66q91 15 168 61zM338 330q71 61 92 143l-61 15h-61q-56 -10 -107 -36l-5 -5v-81l-6 -5v-72l31 -5z" />
    <glyph glyph-name="afii10020" unicode="&#x413;" horiz-adv-x="660" 
d="M243 -85l-5 6h-66l-35 50l35 15l26 -5v21l-6 20l6 5v122l-6 5v61l-5 15l5 5v51l6 5v111l-26 91l-51 21l-15 40l56 10l5 -5h71q152 21 304 51l31 -20v-102l-21 -96l-30 -10l-25 45v66l5 21l-10 20l-16 5q-106 -25 -213 -41l-5 -5v-50q16 -41 21 -86l-5 -6v-96l-6 -5v-111
l6 -6v-121l10 -10h71l15 -36q-56 -40 -127 -51z" />
    <glyph glyph-name="afii10021" unicode="&#x414;" horiz-adv-x="857" 
d="M141 -135l-25 10l-5 39l49 49v19l-9 30l34 10l19 -5l20 10l5 4v59l54 182v63q29 93 39 191l-29 5l-5 -5h-49l-39 30v29l14 10h69l39 10h64l34 10h54l5 4h73l5 5h118l34 -24v-25q-24 -19 -59 -19l-5 -49l15 -49v-49l15 -79v-83l19 -122v-49l15 -25l44 -29l5 -30l-5 -14
l5 -5v-49q-10 -25 -39 -20l-29 25l-5 49l-5 4h-88l-35 -4l-14 4l-94 -14h-142q-88 -44 -166 -103zM621 46l5 5v54l-20 88v74l-5 5v49l-5 4v49l-9 40v58q-5 45 -30 79l-5 5h-98l-24 -10q-54 -225 -123 -446v-49l10 -24h64l5 4h68l5 5h103l5 5h49z" />
    <glyph glyph-name="afii10022" unicode="&#x415;" horiz-adv-x="730" 
d="M159 -100q-20 20 -20 51l30 15l5 25l-10 31l5 35l-5 25l5 6v65l5 6v71l10 50v178l-15 40q-36 0 -56 26l-10 40q127 36 264 61h50l66 15l31 -5l86 10l35 -25v-26l-10 -30l15 -96l-25 -15l-41 40q0 41 -20 76l-45 5l-36 -10h-56l-5 -5h-50l-112 -30v-51l10 -31v-60l-5 -5
v-102h41q121 15 243 36l51 -21l5 -30l-91 -30l-51 5l-5 -5h-51q-76 -11 -147 -41l-5 -15v-51l-5 -35l10 -31l-5 -5v-56l25 -20l127 20h56l86 26l10 40l-5 36l30 5l36 -15l10 -36l-5 -5v-76q-193 -41 -385 -76h-71z" />
    <glyph glyph-name="afii10024" unicode="&#x416;" 
d="M505 -104l-25 20h-55l-31 30v31l31 10l20 -5l15 15v60l-5 5v157h-10q-101 -151 -202 -303l-40 -5l-31 30v31q157 181 273 383q25 50 30 106l-30 35l-15 5h-61q-96 -25 -176 -96l-26 -35h-40q-30 20 -25 56q106 95 232 136h65l91 -30l5 40v81l-15 15h-60l-26 15l-10 40
l31 15h50l40 -5l31 5q40 -5 65 -30v-20l-35 -30l-5 -46v-80l-5 -5v-71h10q91 136 227 222h20l40 -25l5 -26q-85 -45 -156 -126q-76 -65 -121 -146q-40 -76 -50 -161l25 -46q80 -55 186 -65h71l5 -5h86l40 -21l5 -25l-10 -20l-30 -5l-66 15h-75q-127 10 -237 66l-6 -36
l11 -50l50 -20l10 -25l-20 -6l-5 -20l-40 -10l-16 -25h-10z" />
    <glyph glyph-name="afii10025" unicode="&#x417;" horiz-adv-x="722" 
d="M264 -94l-77 36q-21 41 -26 87q5 20 31 15l36 -20l25 -51l5 -5h62q102 10 174 92q51 56 61 128l-56 76l-26 16h-51q-56 -56 -138 -62l-26 21v31q77 56 154 107l56 103l-41 46l-51 10q-77 -16 -143 -62l-62 -92l-20 -5l-46 41v77q15 41 20 92l36 5l31 -20l10 -26h15
q72 51 164 51q82 -10 139 -77l15 -25v-56l-51 -103q61 -20 107 -77q31 -46 36 -102q-26 -102 -107 -179q-88 -67 -200 -72h-56z" />
    <glyph glyph-name="afii10026" unicode="&#x418;" horiz-adv-x="792" 
d="M550 -110l-25 10l-5 45l35 10l10 29v105l-5 5v64l-5 5v105l-5 5v104l-5 5v60l-15 5q-174 -249 -313 -517l-40 -5q-34 25 -34 64l5 30l-5 5v60l5 5v59l10 45v60l4 5v69l5 5v154l-54 30l-10 35q50 15 104 30h55l30 -20v-20l-50 -20l-5 -5v-59l-5 -5v-174l-10 -40v-50
l-10 -20v-64l15 -5q124 253 313 477h40l30 -25v-60l10 -54v-60l5 -25l-5 -20l5 -15l-5 -19l5 -5v-80l10 -55v-109l5 -15l-5 -5v-50q25 -10 54 -19l5 -20l-44 -25l-5 -15l-40 -10h-55z" />
    <glyph glyph-name="afii10027" unicode="&#x419;" horiz-adv-x="852" 
d="M575 -104l-36 31v25l36 21l5 5v97l-5 5v132l-5 5v158l5 16l-5 15h-15q-148 -235 -281 -474l-40 -5l-36 41l-25 158v76l5 5v77l10 51v71l10 71l-5 5h-61q-31 21 -26 56q61 26 123 41h71l41 -25v-21l-72 -10v-15l5 -5v-51l-15 -72v-81l-5 -5v-56l-5 -5v-62l-5 -5v-66l5 -15
h10q168 244 321 489h26l35 -26l10 -30l-5 -5v-321l5 -5v-153l11 -31l20 -5l56 10l15 -35q-81 -56 -178 -77zM351 650q-66 36 -102 102v21q20 15 51 10l56 -66h25l92 61l10 35h41l41 -25l5 -26q-61 -61 -133 -101l-35 -11h-51z" />
    <glyph glyph-name="afii10028" unicode="&#x41a;" horiz-adv-x="825" 
d="M186 -102l-41 36v21l41 25l5 16l-10 35v52l-5 5v128l5 25l-5 16l5 30l-5 41l10 16v174l-5 15l5 15q-41 6 -71 41l-6 31l36 16l46 -6l62 16l41 -21l5 -15l-41 -31l-5 -15l5 -5v-144l-5 -20l5 -15h15q144 87 297 143l36 -21l10 -35q-169 -72 -327 -159v-31
q194 -184 430 -271l10 -26l-10 -25l-36 -11q-225 108 -430 267l-5 -6v-76l-5 -16l5 -5v-51q10 -61 56 -108l-41 -35z" />
    <glyph glyph-name="afii10029" unicode="&#x41b;" horiz-adv-x="895" 
d="M581 -103l-46 31l-5 36l16 10h71q20 15 15 41l-5 5v51l-10 51v310l5 26l-5 5v66q-21 26 -56 21q-61 -16 -122 -31l-6 -5v-51l6 -31l-6 -5v-137l-5 -5v-56q-10 -158 -76 -291l-36 -20h-71l-122 46l-16 46l46 20q51 -31 107 -46l31 20q46 87 56 184v56l10 56v214l-31 10
l-152 -20l-51 46v15l15 15h117l5 5h56l5 5h62l142 21l21 -5l10 10h127l51 -15l15 -36l-46 -21l-10 -50l5 -6v-315l5 -16l-5 -30l5 -5v-97l11 -36l5 -5h56l20 -36q-25 -35 -66 -35h-71z" />
    <glyph glyph-name="afii10030" unicode="&#x41c;" horiz-adv-x="932" 
d="M156 -88l-46 25l-5 21l15 55l-5 5v82l5 5v61l10 35v66l10 51v76l21 121l-5 21l15 20h40l21 -10q101 -152 177 -310h10l325 360h40q41 -25 31 -66q-21 -45 -26 -96v-71l-5 -5v-96l5 -15l-5 -5v-153l5 -20l-5 -5v-76l56 -25l5 -26l-41 -25h-86q-30 20 -20 56l15 40v117
l-5 5v106l5 21l-5 15l5 5v106l5 6v50h-15q-111 -126 -223 -258l-20 -51l-31 -5l-30 15q-86 132 -157 269l-15 5l-11 -36v-71l-5 -5v-91l-20 -132v-66l15 -30h46l56 10l30 -35q-86 -36 -182 -46z" />
    <glyph glyph-name="afii10031" unicode="&#x41d;" horiz-adv-x="925" 
d="M664 -103l-30 16l-16 46q31 15 62 15l5 47l-5 5v77l-5 31l5 5v62l-5 25l5 16l-10 10h-165l-41 -10h-98l-36 -10h-77l-21 5l-10 -31v-160l10 -10h72l26 -20v-21q-36 -26 -82 -36l-16 -26l-31 -5l-25 15l-67 52l-6 26l37 20l5 5v67l-5 36l10 52v72l5 5v72l5 5v57l5 5v108
l-36 26l-5 25q16 21 41 16l5 -5h52l67 -36l15 -36l-46 -21l-16 -57v-61l-5 -5v-62q26 -21 62 -16l57 11h97l6 5h108l41 5l5 -5h62l15 36v67l10 98l-25 46l67 31q51 -11 92 -52l5 -15l-51 -31q-16 -82 -26 -165v-82l-5 -5v-144l5 -47l-5 -15l21 -62l51 -15v-21l-5 -15
l-67 -21h-93z" />
    <glyph glyph-name="afii10032" unicode="&#x41e;" horiz-adv-x="832" 
d="M390 -80q-112 30 -208 106q-56 71 -71 158v66q25 177 152 314q71 40 157 40h66q117 -25 198 -131l40 -71v-71q-30 -198 -142 -360q-55 -46 -126 -51h-66zM522 21q106 163 131 355q-25 76 -91 132l-56 30h-86l-116 -50q-81 -112 -107 -249v-76l51 -111l132 -66h66z" />
    <glyph glyph-name="afii10033" unicode="&#x41f;" horiz-adv-x="840" 
d="M223 -100l-101 30l-11 36l16 15h51q25 138 40 280v62l5 5v56l6 5v86l-11 21l-5 5h-51q-30 5 -40 35v26q20 15 51 10l35 -5l5 5h92l92 15h51l15 6l30 -6l6 6h86l51 10h82l35 -26v-15q-20 -26 -61 -26l-30 -76v-56l-11 -46v-56l-5 -5v-183l5 -5v-62l16 -56l61 -10l5 -30
q-56 -36 -127 -31q-41 0 -67 31l-5 30l36 21l5 5v56l-10 56v229l5 5v107l-10 36l10 25l-41 10l-61 -10l-20 5l-51 -10h-61l-26 -10l-5 -20l5 -6v-76l-5 -5v-66l-5 -5v-56l-5 -6v-50l-10 -51v-56l-16 -57v-71q21 -25 21 -61q-26 -25 -67 -20z" />
    <glyph glyph-name="afii10034" unicode="&#x420;" horiz-adv-x="812" 
d="M137 -90l-10 20l-15 5v29l50 20l5 40l-5 5v64l5 5v49l24 173v60l10 49v55l5 5v89l-5 34q20 20 50 15l5 -5h54l40 10h54l35 5q138 -10 247 -104q25 -34 20 -79q-35 -84 -109 -153l-15 -5l-10 -20q-138 -104 -316 -114l-15 -114l15 -64l5 -5h59l20 5l49 -25l10 -29l-25 -10
h-54l-5 -5h-94l-5 -5h-54l-20 5zM439 281q128 59 188 188v39q-89 65 -203 65l-64 -15h-65l-10 -10v-79l-10 -40v-49l-5 -5v-64l-9 -70l24 -10q84 10 154 50z" />
    <glyph glyph-name="afii10035" unicode="&#x421;" horiz-adv-x="822" 
d="M405 -73q-153 0 -265 112l-36 67v96q41 169 184 291q45 35 107 46h66l71 -16l15 51l36 5l31 -15l10 -56l-10 -36v-76q-16 -20 -46 -15l-36 20v51l-36 26h-66q-66 -11 -122 -62q-87 -101 -127 -224v-91l35 -57q61 -35 133 -50h102q81 20 157 61l6 5v66l-6 20q16 21 41 16
l51 -16l26 -25l10 -51q-41 -41 -46 -97l-20 -5l-67 10q-91 -46 -198 -51z" />
    <glyph glyph-name="afii10036" unicode="&#x422;" horiz-adv-x="890" 
d="M317 -104l-45 20v35q65 25 135 30l5 35l-10 50v100l5 5v140l5 5v80l5 5v59l5 5v65l-10 10h-90l-5 -5h-75l-45 -15l-10 -25v-70l-10 -19l-30 -5l-20 14l-10 35v60l5 25l-15 40l35 20l5 -5h70l5 5h110l20 5l15 -5l5 5h85l5 5h69l5 5h85l5 5h70l15 5q35 0 60 -30l15 -40
l-5 -5v-90l-20 -45l-30 -4l-20 19v95l-10 35l-25 5l-25 -10h-110l-35 -10l-15 -55v-89l-5 -5v-60l-10 -60l5 -20l-5 -5v-205l15 -55l75 -25l5 -40l-5 -5h-65l-54 -10l-35 5z" />
    <glyph glyph-name="afii10037" unicode="&#x423;" horiz-adv-x="885" 
d="M273 -96l-44 35l-5 39l-20 15l-5 30l35 15l24 -20l15 -25l20 -5q54 104 104 213q-99 178 -218 341h-49l-35 35v15l15 14h74l30 10h49l30 -10l5 -24l-35 -20l-5 -15q99 -138 168 -292h20q79 129 178 253l-54 34l-5 25q20 25 49 15l5 -5h109l50 10l19 -45l-64 -34l-15 -30
q-207 -228 -346 -490l-25 -69z" />
    <glyph glyph-name="afii10038" unicode="&#x424;" horiz-adv-x="835" 
d="M449 -94q-77 5 -143 36l-10 36l36 15l51 -10l5 5v61q-118 30 -209 117q-61 61 -72 148v81q21 92 92 158q82 82 184 117v21q-46 20 -62 66q26 20 67 15l15 -5l46 10h76l21 5l50 -30l6 -20l-6 -11h-66l-61 -10l-5 -36l51 -45q92 -26 163 -102l56 -87v-66
q-15 -143 -112 -255q-71 -61 -163 -71l-5 -46l10 -20l25 -5l31 5l15 -36l-15 -20q-41 0 -71 -21zM383 120l5 5v87l-5 36l5 5v295l-11 26h-20q-46 -16 -87 -51l-10 -21q-46 -35 -66 -86l-15 -102q10 -72 56 -128q61 -56 142 -71zM530 141q56 35 87 91q30 72 46 153v61l-36 56
q-66 72 -158 82l-10 -10v-72l5 -5v-153l-5 -5v-168l-5 -15l5 -15l-5 -16l30 -10z" />
    <glyph glyph-name="afii10039" unicode="&#x425;" horiz-adv-x="887" 
d="M208 -88q-57 0 -98 36l-5 31l5 5h51l21 -5q123 159 241 322l-180 226q-56 0 -97 25l-10 36q20 16 46 10l51 -10l21 5l82 -25l5 -16l-16 -36l133 -168h16l148 204h-10l-15 -5l-41 36v26l5 5h194l36 -26v-15l-15 -16h-51l-210 -281q92 -133 189 -251h21l41 5l25 -20v-16
l-20 -25l-149 -16l-36 26l-10 25l31 16l5 15l-133 185h-15q-98 -113 -175 -236l41 -15l6 -21q-57 -36 -128 -36z" />
    <glyph glyph-name="afii10040" unicode="&#x426;" horiz-adv-x="825" 
d="M689 -136q-40 5 -51 40l-25 41q-41 10 -82 15l-173 -30h-102l-5 -5h-97l-35 20l-5 36l10 10h51v15l-31 97v56l-5 5v61l5 5v72l5 5v66l26 107l-56 31l-10 35l10 11h51l25 -6l122 26l26 -36l-92 -41q-20 -91 -35 -188l5 -15l-11 -56v-92l6 -5v-61q5 -51 45 -87l5 -5h92
l107 20h51l20 16v46l-5 15l5 20l-5 15l5 6v132l6 5v194l-56 40v31l40 10l5 -5h158l31 -36q-51 -25 -102 -35l-5 -5v-224l-5 -6v-112l-5 -5v-61l66 -36l10 -66l26 -10l15 -36z" />
    <glyph glyph-name="afii10041" unicode="&#x427;" horiz-adv-x="827" 
d="M566 -103l-35 26l-5 30q15 20 40 15l26 -5l20 10v25l-5 5v51l-15 75v106l-5 16l5 35l-26 10q-70 -61 -156 -81h-66q-65 5 -111 56q-45 50 -45 121v55l20 101q-50 20 -101 40l-10 41q20 15 46 10l70 -20h86l30 -20l5 -26l-55 -15l-20 -91v-111l20 -55l40 -25h76
q101 40 192 111l25 146q-56 20 -101 55l-5 31l35 15l51 -20h50q56 0 96 -26l5 -25q-20 -25 -51 -25l-15 -50v-61l-15 -86v-166l5 -5v-81q10 -81 41 -156q-66 -31 -142 -36z" />
    <glyph glyph-name="afii10042" unicode="&#x428;" horiz-adv-x="882" 
d="M175 -102l-25 20l-5 31l15 20v66l-5 15l5 35l-5 16l5 5v50l5 6v65l10 41v56l5 5v61l5 5v81l-15 20q-30 -5 -50 25l-6 31l41 10l25 -10h107l25 -20v-21l-50 -20l-11 -15v-56l5 -5v-61l-15 -91l5 -15l-5 -5v-56l-10 -31v-116l-5 -31l10 -40h36l5 5h55l6 5h50l10 10v127
l-5 15l10 51v66l6 30l-6 15l11 26v162l-16 45l16 21h25l51 -10l35 5l41 -26v-25l-76 -20l-5 -46l5 -15l-5 -36l5 -45l-5 -5v-66l-6 -5v-56l-10 -56v-127l10 -30h51l5 -5h81l16 5v56l-6 5v142l6 5v81l5 5v51l5 5v137l-5 15l-26 15l-5 31q26 15 56 10l5 -5h86l26 -11v-30
q-21 -20 -51 -20l-15 -31v-126l-5 -5v-71l-5 -5v-87l-6 -5v-132l6 -40l-16 -46l-61 -10l-5 5h-101l-15 5l-5 -5h-107l-5 -5h-66l-96 -20h-51z" />
    <glyph glyph-name="afii10043" unicode="&#x429;" horiz-adv-x="962" 
d="M832 -127q-51 66 -127 86h-61l-5 -5h-121l-56 -15l-31 5l-126 -20h-51l-25 -5l-41 35v26l10 30l-5 5v147l5 5v81l5 5v97l5 5v61l-25 10l-35 -5l-36 35v15l10 10h112l20 5l46 -15v-15q-26 -35 -26 -86v-117l-5 -5v-101l-5 -5v-81l-5 -51q15 -20 51 -20l50 10h51
q20 15 15 40l-5 5v153l5 5v60l5 6v126l6 26q-41 5 -77 25l-15 35q15 21 41 16l5 -5h86q41 -6 66 -31v-20l-36 -15l-5 -61l5 -41l-5 -5v-61l-5 -5v-66l-5 -5v-101l-5 -15l10 -46l36 -10h66l15 5l5 -5h56l25 10l5 5v117l-5 15l5 35l-5 16l5 5v258q-56 5 -96 41l-10 25
q20 26 50 15l61 -10l21 5l81 -25l5 -20l-31 -21l-10 -50l5 -5v-76l-5 -5v-229l-5 -5v-71l41 -30q35 -61 55 -132z" />
    <glyph glyph-name="afii10044" unicode="&#x42a;" horiz-adv-x="825" 
d="M351 -92q-41 40 -56 91l10 30l-15 115l5 20l-5 5v55l5 5v191l-5 5v55l-5 5v51l-10 35h-35l-45 -20l-15 -66l5 -20l-20 -80h-30l-30 55l10 35v51l-5 15l5 5v75l10 10h105l85 15l46 -20l10 -25l-20 -15l-5 -55l15 -101v-115l20 -10q80 60 180 65q76 0 131 -55l35 -60v-51
q-15 -60 -60 -105q-96 -90 -206 -161zM446 14q135 80 211 210v36q-10 35 -45 45l-51 5q-95 -20 -170 -81l-30 -70v-50l5 -15l-5 -25l20 -76l15 -5z" />
    <glyph glyph-name="afii10045" unicode="&#x42b;" horiz-adv-x="897" 
d="M687 -85l-15 10h-51q-31 21 -26 57q36 10 67 20l5 41l-5 41l5 15l-5 5v93l15 97v66l-5 6v51l-5 5v61l-11 41l-25 5l-67 -15q-41 15 -30 67q97 5 184 25l66 -20l6 -36l-46 -26l-11 -56l16 -113l-5 -30l5 -16l-5 -5v-82l-6 -5v-66l-5 -6v-97l5 -25h31l15 5l26 -36
q-56 -46 -123 -77zM242 -80l-31 51l10 26l-10 51v113l-5 5v56l5 5v123l-5 16l5 41l-5 5v51l-15 56h-26l-36 -5l-31 51q21 21 52 21h107l97 -26l11 -25l-62 -11l-36 5l-10 -25l15 -77v-67l6 -5v-51l-6 -15l21 -5q72 51 159 56q66 -5 112 -51l26 -62v-76q-31 -77 -102 -139
q-103 -92 -246 -92zM360 12q97 52 153 149l15 61l-46 57h-25q-82 -21 -154 -77l-31 -46v-98l21 -61l31 -5z" />
    <glyph glyph-name="afii10046" unicode="&#x42c;" horiz-adv-x="752" 
d="M258 -92l-5 5h-51q-36 26 -36 66v174l5 5v76l-5 36l10 15v168l-5 5v77l-10 25l-46 26l-15 35q46 21 92 31h81l26 -41l-57 -30q-15 -26 -10 -62l10 -30v-133l21 -5q92 56 209 61q86 5 142 -61q36 -40 36 -91q-15 -102 -97 -179l-15 -5l-51 -61q-97 -92 -229 -107zM360 20
q61 36 112 82l5 15q61 61 102 137v46l-46 46h-82q-86 -20 -163 -66l-25 -26l-26 -56v-96l-5 -21l5 -5v-51l11 -41l25 -5z" />
    <glyph glyph-name="afii10047" unicode="&#x42d;" horiz-adv-x="882" 
d="M403 -83l-71 10l-21 -5q-86 5 -148 77l-15 35q0 41 36 56h15l26 -20l20 -66l61 -21h61l56 -10h51q102 5 179 71q51 87 66 189l-5 5h-61l-6 -5h-107l-5 -5h-66l-15 -5l-26 5l-91 -15h-77l-30 25l-5 31q30 15 66 15l15 -5l5 5h72l5 5h86l5 5h107l5 5h102l21 10l5 31
q-21 87 -87 153q-56 46 -122 61h-61q-117 -26 -219 -97l-36 -46h-41q-35 26 -51 61v16l5 5v56l-5 20l46 10l61 -45q87 61 194 81h117q112 -25 199 -127q56 -77 71 -173v-102q-15 -123 -81 -225q-82 -71 -194 -71h-112z" />
    <glyph glyph-name="afii10048" unicode="&#x42e;" horiz-adv-x="987" 
d="M164 -83l-56 20l-10 40q20 16 46 11l30 -6v16l-15 106v66l5 5v76l5 5v97l10 45v76q-35 10 -66 26l-10 45l41 10q111 -15 213 -50l5 -21l-20 -15h-71q-16 -25 -21 -56v-50l-5 -5v-66l-5 -5v-56q20 -15 51 -10l111 25q36 142 137 254q46 45 107 50l30 -30l5 -20
q127 -61 208 -173l15 -56v-50l-5 -5v-56q-20 -86 -86 -152q-76 -81 -177 -91q-107 5 -183 91q-51 71 -51 162l-35 5l-51 -15h-50l-31 -10l-5 -46q0 -66 36 -111l15 -5l45 10q26 -5 26 -31l-26 -25q-76 -25 -162 -25zM691 8q66 35 107 101l35 102v66l-30 70q-81 77 -178 102
l-55 -46h-10q-61 -91 -82 -203v-101q26 -66 87 -106l30 -11h51z" />
    <glyph glyph-name="afii10049" unicode="&#x42f;" horiz-adv-x="750" 
d="M164 -100l-40 15l-25 45q80 135 185 260q-70 10 -120 70l-30 60v79q85 115 205 165l105 25l74 -10l30 5l45 -30l10 -70l-30 -30l-15 -90v-54q-15 -80 -25 -160v-85l5 -20l-5 -25l10 -25l-5 -15l5 -5h85l25 -10l5 -35l-25 -15l-45 5l-134 -25l-30 30v25q20 15 50 10v15
l-5 5v50l-5 5v100l5 45l-25 5q-145 -75 -235 -225v-15l70 -20l5 -20q-60 -15 -120 -35zM474 305q15 114 34 229l-14 15h-55q-120 -35 -215 -130q-30 -30 -20 -74q20 -40 60 -60l25 -10h70z" />
    <glyph glyph-name="afii10065" unicode="&#x430;" horiz-adv-x="667" 
d="M249 -72q-66 10 -117 66l-26 41v87q15 51 51 92q72 57 164 57l41 -11q26 67 46 139l-25 20h-62l-123 -25q-36 20 -30 61l153 26l5 -5h57q56 -6 92 -47l5 -5v-61q-26 -72 -46 -143v-52l20 -87l31 -20l5 -36l62 -26l5 -15q-26 -36 -72 -26q-26 26 -61 21q-77 -56 -175 -51z
M362 20l26 20v26l-21 72v56l-41 20q-66 -15 -118 -66l-30 -92q15 -41 56 -62h77z" />
    <glyph glyph-name="afii10066" unicode="&#x431;" horiz-adv-x="605" 
d="M305 -74q-80 25 -146 96q-40 45 -50 100v76l-5 15q15 177 141 308l81 45q70 -5 126 -45l10 -25l-30 -10l-76 15q-106 -66 -151 -187l-5 -45h15l50 15h51q60 -15 111 -61l5 -15l15 -5q40 -45 50 -101q-25 -85 -101 -146q-40 -30 -91 -30zM336 -4q60 41 91 106v36
q-36 50 -91 85h-51q-55 -15 -96 -65l-10 -36q16 -55 61 -100l81 -36z" />
    <glyph glyph-name="afii10067" unicode="&#x432;" horiz-adv-x="537" 
d="M141 -90l-45 51v30l10 56v127l10 15v152l-10 86l30 10l46 -25l15 -21h41l5 6h50q76 -6 142 -51l10 -51l-60 -91l76 -76l5 -46q-5 -45 -46 -81q-81 -66 -187 -81h-51zM329 32q51 25 66 81q-21 30 -51 40h-51l-111 -45l-5 -5v-51l-5 -46l20 -25h20zM273 224l86 76v21
l-76 15l-91 -31l-10 -15v-81l40 -5z" />
    <glyph glyph-name="afii10068" unicode="&#x433;" horiz-adv-x="625" 
d="M223 -79l-45 20l-10 41l30 55v117l5 5v51l5 5v111l-25 11l-51 -6q-30 21 -25 56q121 31 243 51h51l86 20l35 -20l6 -46l-21 -5l-91 -172l-35 -10l-31 25v20l66 127h-56l-81 -15v-102l-5 -5v-76l-5 -5v-66l-5 -5v-50l10 -41l-15 -30v-51z" />
    <glyph glyph-name="afii10069" unicode="&#x434;" horiz-adv-x="790" 
d="M634 -127l-20 10l-5 20v89l-10 10h-114l-15 -5l-15 5l-5 -5h-55l-159 -30l-30 5q-29 -34 -69 -44q-25 20 -20 49q30 50 80 70h9q60 144 115 288h-65l-35 35v20q110 25 224 40h55l114 15l45 -25l5 -30l-70 -20v-10q25 -189 95 -358l-15 -114l5 -10zM584 67l5 20
q-40 139 -74 278l-50 5l-45 -15l-129 -303l20 -5l5 5h55l34 10h125l15 -5z" />
    <glyph glyph-name="afii10070" unicode="&#x435;" horiz-adv-x="687" 
d="M307 -43q-97 0 -163 82q-30 40 -35 91v97q45 92 127 168q25 21 61 16q122 -31 219 -133l10 -51q-112 -41 -239 -61h-82q-25 -25 -15 -61q15 -41 51 -66l66 -16h51q102 36 189 112l30 -15v-30q-61 -67 -132 -118l-72 -15h-66zM424 268v10q-51 56 -122 56q-51 -30 -81 -81
v-21l25 -5q97 5 178 41z" />
    <glyph glyph-name="afii10072" unicode="&#x436;" horiz-adv-x="732" 
d="M340 -83l-41 36l-10 66v61l-15 5l-87 -86l-10 -21l-46 -5q-25 21 -25 51l198 189v30l-25 97l-31 5l-61 -30l-10 -21l-41 -15l-35 36v20q50 46 107 71h61l51 -15l10 15v77l35 15l46 -31l5 -30l-25 -128h15q56 62 128 87l30 -15l10 -36l-153 -112l-40 -46v-15
q10 -41 46 -71l81 -21q51 15 87 56l35 21l26 -21v-20q-41 -61 -97 -92l-15 -5h-72q-56 20 -107 51l-5 -5v-71l16 -62q-11 -20 -36 -15z" />
    <glyph glyph-name="afii10073" unicode="&#x437;" horiz-adv-x="622" 
d="M231 -75l-57 31l-10 26l5 10l51 10l57 -15q61 25 107 71l16 21h10l31 72l-26 25h-20q-77 -66 -175 -82q-30 21 -25 57q72 61 159 97l15 20h10l31 77l-31 36h-36q-66 -15 -117 -61l-31 -41q-21 -26 -56 -26q-31 20 -36 56v77l10 46l36 5l36 -30v-16h15q51 36 108 51h71
l62 -30q41 -46 35 -108l-30 -72l20 -30l31 -21q20 -25 15 -66q-15 -51 -56 -87l-15 -5l-26 -36q-46 -46 -102 -62h-82z" />
    <glyph glyph-name="afii10074" unicode="&#x438;" horiz-adv-x="685" 
d="M153 -121l-36 36l-10 41v91l5 5v77l5 5v122l-5 5v62l-10 56l35 10l31 -16l15 -45v-143l5 -5v-61l-5 -5v-56h10l143 147h10l5 16q82 66 148 142h31l35 -25v-41l-15 -92v-71l5 -5v-97l15 -81q-20 -21 -56 -16l-25 21l-15 91v174h-16q-132 -128 -244 -265l-31 -67z" />
    <glyph glyph-name="afii10075" unicode="&#x439;" horiz-adv-x="722" 
d="M544 -83l-36 20l-5 41l10 66l-5 15l5 25l-15 102v50l-5 5v81l-20 5q-188 -167 -259 -385l-30 -5l-46 41l5 5v258q-10 76 -35 147l30 15q30 0 51 -25l25 -127v-55l5 -31l-5 -15l15 -5q112 177 279 314h36l30 -20l5 -25l-10 -36v-61l-5 -15l10 -40v-61l15 -92v-50
q15 -26 10 -61l-30 -76zM280 449l-51 25q-35 41 -35 97l30 15l36 -25l15 -36l30 -5q81 30 157 71l21 30l35 6q26 -16 15 -51l-65 -71q-87 -41 -188 -56z" />
    <glyph glyph-name="afii10076" unicode="&#x43a;" horiz-adv-x="635" 
d="M178 -58l-45 35v31l15 35v122l-10 30v96q-20 71 -31 142q21 16 46 10l41 -35l20 -147h15q106 81 233 117q26 -16 20 -41l-223 -127v-15q142 -66 274 -152l5 -20q-20 -26 -50 -15q-127 70 -259 131l-10 -10v-152l-20 -30z" />
    <glyph glyph-name="afii10077" unicode="&#x43b;" horiz-adv-x="842" 
d="M269 -84q-63 10 -115 52l-5 31l52 10q47 -31 104 -31l26 26v62l16 94v130l-6 15h-20l-130 -36h-57q-37 21 -32 57q187 47 375 78h67l31 -10l6 5h52l5 5h78l31 -26v-15l-47 -16l-10 -21v-161l-5 -16l5 -15l-5 -5v-104l67 -21l5 -31l-104 -52l-20 10h-63l-31 21l-5 31
q31 11 67 21l11 42l-5 5v83l5 5v83l5 5v52l-16 52l-15 11h-57l-99 -26l-5 -5v-52l10 -63l-10 -36v-52l-11 -21v-52l-5 -15l5 -16l-15 -68l-47 -20h-83z" />
    <glyph glyph-name="afii10078" unicode="&#x43c;" horiz-adv-x="785" 
d="M640 -88l-41 26l-5 5v71l-10 41v72l-5 5v82l-6 5v51h-15q-72 -92 -159 -169h-51l-72 47q-46 61 -71 133h-10l-6 -5v-72l-5 -5v-190l-5 -30l10 -41q-15 -21 -46 -16l-30 21l-5 15v51l-6 5v62l11 36v117l5 6v128l15 20h31l15 -5l36 10l36 -20q15 -108 87 -190l31 -5
l225 241h31l30 -21l5 -46l-10 -25v-62l-5 -46l10 -51v-72l5 -5v-77l16 -25v-52l-16 -20h-20z" />
    <glyph glyph-name="afii10079" unicode="&#x43d;" horiz-adv-x="677" 
d="M149 -45l-36 37v66l-5 6v61l-6 5v57l6 26l-6 41l6 5v98l-6 41q26 15 57 10l26 -20v-88l-5 -5v-77l10 -10h82l21 5l5 -5h170l20 15l6 31v93l5 5v87l46 16l31 -26v-52l-10 -30v-93l-6 -5v-67l-10 -31l5 -46l-5 -26l10 -87l-20 -26h-26l-31 31v87l-5 5v52l-10 10h-57l-5 -5
h-190l-36 -5v-62l20 -93l-10 -31h-41z" />
    <glyph glyph-name="afii10080" unicode="&#x43e;" horiz-adv-x="662" 
d="M290 -39q-87 21 -160 88q-26 47 -26 109q16 119 109 202q62 51 139 51q83 -41 166 -88q41 -57 41 -129v-114q-51 -62 -124 -93l-83 -26h-62zM415 54l51 31q26 37 21 83l-5 5v52q-5 41 -26 78l-57 20h-52l-46 -10l-21 5q-57 -36 -77 -98l-21 -52v-77q26 -42 67 -57l72 -16
z" />
    <glyph glyph-name="afii10081" unicode="&#x43f;" horiz-adv-x="722" 
d="M149 -79l-46 47l15 15h62l11 31l-6 6v72l6 5v57l15 145q-26 21 -21 52q26 15 57 10l31 -10h78l52 10h170l36 -26l6 -15l-26 -37v-108l-5 -36l5 -16l-5 -5v-52l10 -21l36 -25v-26l-83 -16l-51 31l-6 26l21 26v181l5 41l-15 21h-42l-62 -16h-62l-46 -15l-16 -41v-52
l-10 -41v-88l-5 -47q36 -26 36 -67l-41 -16h-104z" />
    <glyph glyph-name="afii10082" unicode="&#x440;" horiz-adv-x="572" 
d="M157 -79l-39 29l5 54l-10 44l5 5v48l-15 39q25 34 25 83v166l-20 122l49 10l24 -20v-10h25l73 39h78l78 -39l5 -14l19 -5l29 -64v-82q-34 -93 -112 -171q-78 -68 -185 -73l-5 -15l5 -19l-5 -25l10 -48l5 -5l5 -30l-15 -19h-34zM264 155q103 63 151 171l10 24v54l-24 44
q-34 34 -83 29q-69 -25 -122 -83l-5 -39l5 -5v-93l-5 -5v-107l24 -10z" />
    <glyph glyph-name="afii10083" unicode="&#x441;" horiz-adv-x="640" 
d="M285 -51q-77 10 -133 61q-52 46 -46 113q30 159 153 276l51 31h57q51 -15 92 -61l5 -36l-26 -10l-35 20l-31 31h-21l-71 -62h-11q-66 -107 -92 -230q21 -51 72 -72l41 -5q102 21 179 108l26 61l30 10l36 -30v-41q-77 -77 -158 -144z" />
    <glyph glyph-name="afii10084" unicode="&#x442;" horiz-adv-x="680" 
d="M356 -43l-36 15q-21 21 -16 57l11 41v51l-6 16l6 5v149l-11 41l-31 5l-139 -25q-30 20 -30 56l20 16h57l41 10h62l25 10h57l149 26l47 -21l5 -30l-11 -11h-51l-52 -15h-51l-15 -5l-6 -16v-77l6 -51l-6 -16l6 -46l-6 -52l6 -20l-6 -46l11 -52z" />
    <glyph glyph-name="afii10085" unicode="&#x443;" horiz-adv-x="650" 
d="M216 -80l-20 36l92 178l-41 41q-26 97 -87 184q-36 31 -52 82l36 21l41 -21q72 -107 123 -225l10 -5v-16h10l159 236h41l26 -21v-30q-62 -67 -103 -144q-71 -112 -143 -230l-26 -77z" />
    <glyph glyph-name="afii10086" unicode="&#x444;" horiz-adv-x="722" 
d="M365 -89l-25 21l-5 15v78q-103 5 -175 77l-6 15l-15 5l-36 57v87q36 93 118 170q62 57 139 72l5 5v52l6 5v52q20 15 51 10q36 -16 26 -62l-16 -41v-57q93 5 160 -51l31 -52v-82l5 -46q-5 -47 -36 -77q-82 -83 -185 -124l-6 -21l11 -77l-21 -31h-26zM329 92l11 10v149l5 5
v57l5 5v57l5 36l-31 10l-61 -41q-73 -77 -93 -175q10 -52 56 -88q47 -25 98 -31zM453 138q67 41 103 103v128l-36 36l-83 16l-15 -31v-51l-5 -6v-56l-5 -5v-57l-5 -5v-93h10z" />
    <glyph glyph-name="afii10087" unicode="&#x445;" horiz-adv-x="645" 
d="M150 -89l-25 15v30q56 113 137 214l-158 143v26q21 15 51 10l138 -133h25q46 72 112 138q41 41 92 51l25 -16l5 -30l-117 -102l-81 -107l158 -143v-20l-36 -15l-163 132q-76 -86 -132 -183z" />
    <glyph glyph-name="afii10088" unicode="&#x446;" horiz-adv-x="710" 
d="M585 -113l-32 16q-5 51 -31 98l-20 10h-88l-238 -36l-31 21l-5 41l31 16v155l5 5v166l-62 31l-10 36l51 5l52 -10l47 5l25 -26v-16l-31 -25l-5 -37v-51l5 -6v-98l-5 -5v-119q21 -15 47 -10l103 20h67l16 16v57l-5 5v52l-5 5v77l-6 6v51q-25 37 -36 78l11 10h67l5 -5h67
q26 -15 21 -41q-31 -16 -62 -26l-5 -52l10 -46v-62l5 -6v-88l47 -36l5 -41l-5 -21q26 -46 26 -103z" />
    <glyph glyph-name="afii10089" unicode="&#x447;" horiz-adv-x="650" 
d="M482 -79q-26 5 -31 31v67l-5 5v67l-16 5q-57 -56 -129 -77h-82q-62 26 -93 82l-10 47v61l-5 6v108l-5 15q20 26 51 15l31 -25v-36l-5 -5v-57l5 -5v-83l26 -46l51 -15q93 36 165 113l21 31v56l20 26v52l-5 15q26 26 62 15l26 -20v-52l-26 -128v-52l-5 -5v-72l-5 -26
l15 -92q-15 -26 -51 -21z" />
    <glyph glyph-name="afii10090" unicode="&#x448;" horiz-adv-x="722" 
d="M155 -34l-36 36v154l5 40l-5 6v66l-11 103l41 10l31 -21v-76l10 -47l-5 -20l5 -5v-87l-5 -5v-72q31 -26 77 -20l15 5l52 -5l5 5v220l-5 5v82l-5 15l5 16l25 5l36 -16l10 -15v-92l5 -46l-5 -51l5 -31l-10 -51l10 -36l6 -5h92l25 20v51l-5 5v57l-5 20l5 16l-5 5v123l-5 30
q15 21 41 16l41 -31v-41l-5 -46l5 -51l-5 -46l5 -5v-108l15 -56q-20 -26 -51 -21l-26 5l-5 -5h-97l-5 -5h-271z" />
    <glyph glyph-name="afii10091" unicode="&#x449;" horiz-adv-x="752" 
d="M603 -118l-26 5l-16 52l6 26l-6 5v57l-20 16h-52l-5 -6h-67l-42 -15l-51 10l-6 -5h-51l-5 -5h-52l-26 -5l-10 -42l-31 -5q-42 26 -37 73l6 5v62l5 5v103l5 52l-5 16l5 36l-5 41l36 11l36 -31v-140l-10 -98l5 -16h52l15 5l16 -5l72 16l5 5v67l-5 5v57l-5 5v88l-5 26
q20 16 46 10l37 -46l-6 -5v-109l6 -52l-6 -41l11 -10h124l15 36l-5 5v181l-21 88l37 10l36 -26l21 -98v-57l-6 -31l6 -41l-6 -16q0 -57 31 -98l-15 -26v-77l5 -16l-10 -21l5 -20q-5 -21 -31 -16z" />
    <glyph glyph-name="afii10092" unicode="&#x44a;" horiz-adv-x="790" 
d="M410 -80q-87 -6 -107 65l5 16l-5 5v50l-20 107v81l-5 5v86l-20 97l-41 5l-20 -11l-15 -25v-56l5 -20l-21 -25h-20l-30 15l-11 40v56l6 5v56l40 30l5 -5h122l45 -20q21 -86 31 -182l-5 -21l10 -40h20q41 25 86 30h56q76 -10 142 -50q25 -21 20 -51q-76 -137 -207 -223z
M445 11q86 66 147 152v20q-46 25 -101 25q-56 -20 -107 -40l-25 5v-25q5 -76 30 -147l31 -5z" />
    <glyph glyph-name="afii10093" unicode="&#x44b;" horiz-adv-x="802" 
d="M533 -87l-40 20l-10 36l10 10h60l10 10v50l-5 5v121l5 20l-5 6v65l-20 106q-35 5 -61 30l-5 36l31 10l30 -5l45 5q56 -26 111 -36l15 -40l-20 -10l-55 10l-5 -5v-71l10 -25v-257l20 -10l30 5l31 -25l-51 -41zM215 -82l-45 20l-15 71v65l-5 6v161q-16 91 -46 171
q20 26 56 16l30 -26l30 -206l-5 -21l20 -15q46 61 106 81h61q45 -10 75 -50q21 -31 16 -71q-21 -66 -76 -111q-86 -76 -202 -91zM316 24l40 25l5 15q41 31 61 76v15l-25 25h-25q-71 -45 -116 -121l-11 -50l26 -10z" />
    <glyph glyph-name="afii10094" unicode="&#x44c;" horiz-adv-x="685" 
d="M239 -78l-30 20l-20 60l5 15l-10 61l5 5v166l5 6v75l-5 20l5 26l-15 55q-35 0 -66 25l-10 36q51 15 106 25l96 -46l5 -25l-50 -20l-5 -25l5 -5v-136l25 -5l75 25h101q66 -5 111 -51l5 -30q-35 -86 -106 -161q-70 -71 -166 -91l-20 5l-15 -5l-10 -20zM330 22l25 11l21 20
q85 65 121 156l-31 15h-75q-61 -30 -126 -40l-10 -30v-51l5 -5v-50l15 -36l30 -5z" />
    <glyph glyph-name="afii10095" unicode="&#x44d;" horiz-adv-x="612" 
d="M316 -73q-96 15 -182 45l-5 16l-25 15l-5 25l35 10q71 -40 157 -50l76 35q55 65 70 141l-40 5l-227 -35l-25 10l-21 40l10 15h51l131 21h86l45 10l10 45q-10 61 -60 106q-36 20 -81 20l-106 -50l-45 -76l-31 -5q-30 30 -25 81l36 106l25 5l50 -26l61 26h50
q86 -10 146 -81q36 -50 46 -111v-55l10 -26q-35 -121 -121 -222q-40 -35 -96 -40z" />
    <glyph glyph-name="afii10096" unicode="&#x44e;" horiz-adv-x="747" 
d="M397 -75q-56 15 -96 56l-25 50v61l5 45l-50 5l-51 -20l-5 -5v-51q5 -65 30 -121l-45 -15l-30 25l-26 152l5 25l-5 5v131l5 5v66q0 45 26 75h20l40 -30v-30q-15 -56 -20 -116l5 -15l-5 -20l30 -11l76 16q40 105 121 191l35 15h56q86 -55 151 -136l10 -60v-76l-5 -5v-51
l-55 -80q-61 -56 -131 -81h-66zM488 16q70 40 96 111l5 65l-5 5v51l-41 60l-75 26l-51 -36q-60 -106 -76 -237l21 -55l60 -20z" />
    <glyph glyph-name="afii10097" unicode="&#x44f;" horiz-adv-x="582" 
d="M159 -79l-35 35v20l156 191h10l5 25l-5 5h-61q-55 5 -95 51q-35 35 -30 90l60 75q65 55 146 65h50q20 26 55 26l35 -21l15 -80l-5 -5v-85l25 -50l-20 -26v-120l26 -141l-26 -15l-35 20q-25 36 -25 86v85l-5 15h-10q-110 -115 -201 -246h-30zM390 303l5 5v50l-15 50
l-35 10q-80 -15 -141 -70l-25 -55l45 -35h61z" />
    <glyph glyph-name="afii10071" unicode="&#x451;" horiz-adv-x="687" 
d="M334 -54q-117 0 -194 97q-30 35 -35 86v128q25 71 71 132q66 61 153 61q102 -10 183 -76l71 -92l-5 -30q-112 -41 -234 -51h-66l-5 -5h-77q-20 -26 -15 -67q10 -56 56 -91q46 -31 102 -26q97 31 173 102l26 -15l5 -26q-46 -66 -118 -107zM482 303l5 15q-67 71 -158 66
l-82 -46q-30 -30 -35 -71l5 -5h76q97 10 189 41zM232 491l-41 36l-5 35l20 67l36 5l36 -26v-35l-16 -36l6 -15l-16 -31h-20zM456 501l-20 21v71l15 56l20 5l46 -20l5 -41q-10 -51 -35 -92h-31z" />
    <glyph glyph-name="uni2010" unicode="&#x2010;" horiz-adv-x="602" 
d="M163 213l-42 41v11v5l5 15l78 16l31 -5l5 5h62l5 5h88l26 5l36 -26l5 -20l-20 -26h-104l-5 -5h-57z" />
    <glyph glyph-name="afii00208" unicode="&#x2015;" horiz-adv-x="927" 
d="M89 216l-47 50v16l16 19l51 -4l6 -6l103 -8l161 7l26 -6l343 15l51 -4l52 1l31 -24l5 -31l-10 -19l-36 -2l-31 7l-68 -11l-41 9l-182 -11l-73 5l-166 -8l-26 8l-26 -9l-72 6l-5 -4z" />
    <glyph glyph-name="quoteleft" unicode="&#x2018;" horiz-adv-x="800" 
d="M582 517l-52 20l-25 57v57q31 73 82 135l31 5l31 -26v-21l-51 -77l82 -21q31 -26 26 -62l-15 -31q-47 -41 -109 -36z" />
    <glyph glyph-name="quoteright" unicode="&#x2019;" horiz-adv-x="800" 
d="M205 457l-5 5q10 62 41 118l-16 6q-36 -26 -77 -36l-31 25v52l-5 36l67 82h26l77 -41q41 -62 41 -139q-15 -62 -62 -108h-56z" />
    <glyph glyph-name="quotedblleft" unicode="&#x201c;" horiz-adv-x="800" 
d="M558 502l-62 57v31q42 104 109 202l36 5l31 -20l5 -31q-46 -47 -67 -104l57 -21l21 -51l-37 -47l-25 -21h-68zM357 518l-47 26l-21 72l52 99l16 5q20 51 57 93l31 5l31 -21l5 -26q-52 -36 -78 -88v-15q47 -21 73 -67v-31l-52 -47l-16 -5h-51z" />
    <glyph glyph-name="quotedblright" unicode="&#x201d;" horiz-adv-x="802" 
d="M495 481l-31 21v36l36 21l20 72l-15 5v-5l-62 -11q-41 21 -62 62v21l62 77l46 10l67 -41q41 -36 41 -93l-5 -15l5 -15q-10 -72 -51 -129q-21 -21 -51 -16zM237 497l-36 36v15q41 36 52 88h-26l-67 -26l-46 36l-16 57l26 15q5 36 36 57l52 20q61 -25 113 -67
q25 -20 20 -51q-20 -93 -72 -175z" />
    <glyph glyph-name="dagger" unicode="&#x2020;" horiz-adv-x="847" 
d="M429 -87q-36 15 -41 52l5 5v140l5 16l-5 5v265l-42 11l-156 -32h-57l-31 26v26l16 11h72l47 10h63l5 5h52l26 11l5 36l-10 94l5 31l-5 52l52 10l31 -26v-41l-5 -6v-124l10 -21l36 -5l52 10h52l78 21l47 -31v-26q-36 -26 -83 -21l-5 5h-63l-5 -5h-93l-21 -16v-31l5 -15
l-5 -6v-62l5 -16l-5 -15l5 -5v-260l5 -5v-63q-21 -15 -47 -10z" />
    <glyph glyph-name="daggerdbl" unicode="&#x2021;" horiz-adv-x="675" 
d="M304 -105l-36 16l-11 41l11 41v218l-31 10l-83 -16l-26 16l-10 31q25 21 57 21h62l31 15l5 5v78l10 46v57l-26 11q-51 -26 -114 -26l-36 26v31l16 10h57l103 26l5 5v150l42 10l31 -20l10 -37l-10 -82l15 -21h47l5 5h72l26 -15l11 -31q-37 -26 -83 -26l-26 10h-57l-15 -15
v-88l-11 -93l36 -6l88 31h68l31 -25v-21q-109 -31 -218 -52l-10 -67l5 -5v-114l-5 -26l5 -5v-83l-10 -26z" />
    <glyph glyph-name="twodotenleader" unicode="&#x2025;" horiz-adv-x="942" 
d="M203 196l-26 21v47q16 57 26 119l42 6l26 -21v-63l-26 -104zM673 197l-26 42q31 68 42 140l41 6l37 -32v-36l-37 -109z" />
    <glyph glyph-name="ellipsis" unicode="&#x2026;" horiz-adv-x="942" 
d="M169 155l-41 36v36q15 57 25 119l31 5l37 -20l5 -31l-31 -145h-26zM744 166l-31 21l-5 31l36 119l31 5l31 -21l5 -36q-15 -67 -46 -119h-21zM446 177l-26 10l-10 47l21 113h41l26 -20v-52l-31 -93z" />
    <glyph glyph-name="perthousand" unicode="&#x2030;" 
d="M253 -67l-36 47q146 288 313 559l26 11l42 -26l5 -27q-188 -266 -324 -559zM770 -15q-47 21 -68 68l-5 37l-15 5l-32 -47q-36 -42 -89 -57h-52l-47 36q-21 32 -16 73q27 94 115 162l32 32h47l21 -11l41 -115l16 -5q47 68 89 141l47 5q47 -10 84 -52q31 -37 26 -89
q-16 -83 -89 -146q-47 -37 -105 -37zM812 64l32 15q41 58 52 126l-5 21h-21q-58 -26 -84 -89l-16 -73l26 -11zM572 74q42 26 63 73l5 32l-16 21h-16q-47 -27 -73 -74l-15 -62l26 -5zM128 262l-63 47l-21 68q32 105 89 199l57 26h63q47 -5 84 -47l21 -52v-68l-68 -100
q-47 -52 -110 -73h-52zM206 351q52 42 84 94l5 16v52l-42 31l-78 -57q-47 -68 -52 -152l31 -10z" />
    <glyph glyph-name="minute" unicode="&#x2032;" horiz-adv-x="600" 
d="M237 496l-36 31v21q62 88 98 186l52 5q36 -20 26 -62q-62 -103 -140 -181z" />
    <glyph glyph-name="second" unicode="&#x2033;" horiz-adv-x="602" 
d="M136 470l-31 11l-11 37q63 126 142 246l31 6l37 -27l5 -26q-89 -115 -141 -241zM315 502l-16 42l136 210l37 10l37 -52l-163 -210h-31z" />
    <glyph glyph-name="uni203B" unicode="&#x203b;" horiz-adv-x="810" 
d="M368 -107l-10 5l-37 167l42 10l36 -31l11 -73v-58zM164 -50l-31 42q68 110 141 214q52 37 84 94v16q-79 104 -168 198l-5 37l42 10q94 -83 167 -198h16l136 162h36l42 -47l-21 -26l-151 -157v-16l183 -188l26 -10q21 -26 21 -58q-27 -21 -58 -21l-219 235
q-115 -130 -209 -277zM123 190l-27 37v68l21 94l21 10l37 -21l10 -26l-21 -88v-68l-31 -6l-5 6zM661 232q-42 63 -53 141l6 5h52q36 -57 42 -125l-16 -21h-31zM405 540l-21 11v73l-16 84l42 5l36 -37l6 -42v-62l-26 -32h-21z" />
    <glyph glyph-name="uni2103" unicode="&#x2103;" horiz-adv-x="802" 
d="M428 -99q-73 15 -130 73q-42 47 -53 109v74q37 125 141 219q94 104 225 125l58 -36l10 -47l-10 -21h-27q-20 31 -52 26q-94 -52 -177 -125q-58 -79 -89 -168v-57l31 -63q58 -42 131 -36q68 26 130 73l26 31h21l37 -36l5 -42q-99 -58 -204 -99h-73zM198 355l-52 26
q-47 42 -42 110q42 78 105 151l57 11q68 -11 120 -68l27 -52v-58l-21 -36q-58 -68 -141 -84h-53zM324 465q26 26 26 63l-26 36l-37 11q-78 -32 -110 -110v-21l53 -21z" />
    <glyph glyph-name="afii61352" unicode="&#x2116;" 
d="M160 -119l-30 10l-10 19v84l35 227v54l5 5v49l5 5v69l5 5v108q19 20 54 15l24 -25q79 -187 153 -374l15 -5q69 167 93 350l-10 78l30 55l10 4h49l15 -39q-49 -285 -133 -561l-30 -10l-54 34q-98 138 -143 301h-14l-5 -25v-98q-15 -64 -25 -128v-59l-5 -5v-74l5 -30
l-10 -34zM854 -50l-30 20v14l10 15v59q20 25 54 20l25 -20v-44q-20 -30 -30 -59zM622 24q-39 5 -64 39l-4 5v74q24 133 98 241q25 25 59 20l44 -30q50 -49 55 -118v-49q-25 -79 -89 -138q-39 -44 -99 -44zM667 102q49 55 74 114v59l-20 49h-20q-39 -74 -74 -153v-49l-5 -15
q5 -19 30 -14z" />
    <glyph glyph-name="uni2121" unicode="&#x2121;" 
d="M328 -94l-34 24l-24 140v72l5 34l-5 5v58l5 5v58l5 5v58l5 38l-15 19h-14l-102 -14l-29 14l-19 39l34 19h53l43 -4q116 14 232 33l34 -19l5 -29q-48 -19 -102 -29l-33 5l-15 -5l-5 -14v-92l-9 -48v-223q9 -67 29 -130q-20 -19 -44 -19zM835 -32q-24 63 -29 136v116l-4 33
l4 5v126l5 5v106l34 10l34 -20l5 -43l-5 -5v-63l-5 -5v-111l-5 -5v-58l5 -4v-131l14 -53v-48l-29 -10l-19 5zM618 2l-101 53q-58 78 -68 174q24 58 53 111l53 20q77 0 126 -63l14 -29v-48q-19 -44 -63 -68l-67 -10l-15 5l-9 -19l14 -34l15 -10q33 -38 82 -33l63 14l19 -24
q-48 -44 -116 -39zM599 210l29 29v34l-34 29h-15q-33 -20 -43 -53v-39l38 -15z" />
    <glyph glyph-name="uni212B" unicode="&#x212b;" horiz-adv-x="737" 
d="M135 -71q-31 21 -20 57q88 255 202 499l-93 57q-37 26 -26 73q5 57 52 99q57 46 125 57h67q63 -11 104 -63l16 -78q-26 -72 -83 -135l-16 -5l-26 -57q83 -229 187 -447l-16 -26l-26 -10l-36 20l-5 21l5 31l-62 120l-16 5l-114 -21h-73l-16 5l-26 -15q-36 -88 -62 -182z
M453 194l5 15q-52 99 -78 203h-21l-78 -218l62 -11l6 6h98zM432 553q52 52 62 119l-10 26l-78 16q-63 -21 -115 -58l-20 -67l10 -31l68 -11l52 11l26 -11z" />
    <glyph glyph-name="uni2160" unicode="&#x2160;" horiz-adv-x="555" 
d="M155 -82l-25 15l-10 45l30 10l50 -5l10 15v65l-5 5v140l5 30l-5 15l5 5v60l5 4v80l5 5v50l-10 20l-5 5h-55l-35 40v15l45 10l35 -5l20 25h45q89 -45 184 -65l10 -25l-10 -15h-50l-104 20l-10 -10v-125l-5 -5v-154l-5 -5v-155l15 -40l5 -5h54l5 5h90l20 -30l-40 -20h-50
l-104 -20h-110z" />
    <glyph glyph-name="uni2161" unicode="&#x2161;" horiz-adv-x="755" 
d="M244 -99l-36 25h-55l-36 26l-5 25l41 20l45 -5l15 45l-5 15l5 5v116l5 16l-5 15l5 20l-5 15l5 5v61l-5 5v101l5 25l-10 55l-65 25l-15 41q15 20 40 15l50 -15h51l5 -5h146l197 -46l5 -35l-46 -5l-30 5q-25 -25 -20 -66l5 -5v-50l5 -15l-5 -5v-91l-5 -5v-55l-15 -86v-56
l35 -10l91 20q20 -10 15 -35q-141 -60 -303 -76h-50l-10 -25zM445 17l5 15l-5 5v106l5 5v56l5 5v55l5 5v101l-5 20l5 5v76q-25 20 -55 20h-121v-15l5 -5v-287l-5 -5v-117l-5 -50q25 -25 60 -15z" />
    <glyph glyph-name="uni2162" unicode="&#x2162;" horiz-adv-x="860" 
d="M144 -94l-35 30v25q50 20 110 25l5 25l-5 5v50l-5 5v235l5 5v104l-10 55l-50 40v25q25 15 55 10l5 -5h145l15 5l15 -5l4 5h60l5 -5h195l55 -10l15 -35l-15 -10h-65l-15 -15v-105l-5 -5v-84l-5 -5v-50l-5 -5v-60l-10 -25v-80l15 -15h50l60 15l30 -10l5 -40l-75 -25h-65
l-230 -40h-64zM384 1v15l-15 55v65l-5 5v140l5 5v89l-5 50l5 20l-10 30l-5 5h-55l-15 -15v-95l5 -5v-64l-5 -5v-55l-5 -35l5 -15l-5 -5v-100l20 -90h45zM548 26l5 5l-10 40v120l5 5v70l5 5v84l5 5v70l5 40l-15 15h-100q-25 -25 -15 -60l5 -5v-60l5 -30l-5 -4v-80l-5 -5v-50
l-5 -15l5 -20l-5 -20l35 -120h60z" />
    <glyph glyph-name="uni2163" unicode="&#x2163;" horiz-adv-x="842" 
d="M546 -76l-31 20q-61 234 -122 474h-56l-46 10l-15 -61l5 -5v-260l-5 -31l10 -50l20 -6l67 21h56l15 -26l-31 -30l-142 -36h-92l-15 -5l-36 31v30l36 10l30 -5q26 21 16 56l-5 5v189l5 46l-5 5v117q-36 20 -77 25l-20 46q15 21 41 16q132 -16 254 -51l31 5l35 -21
q57 -163 67 -341h15q56 148 97 301v71l51 25l41 -20l5 -41l-26 -40v-57q-81 -208 -153 -417h-20z" />
    <glyph glyph-name="uni2164" unicode="&#x2164;" horiz-adv-x="740" 
d="M319 -84l-35 15q-67 285 -163 565l5 6h51q101 -204 132 -433h15q133 229 240 463l41 5l40 -25l5 -26q-168 -275 -305 -565z" />
    <glyph glyph-name="uni2165" unicode="&#x2165;" horiz-adv-x="867" 
d="M253 -85l-46 46q-46 102 -61 219v61l-11 56l6 26l-6 5v71l-20 102l10 31l41 5l31 -21l10 -35l-5 -46l5 -5v-56l5 -21l-5 -25l5 -5v-107l36 -178l15 -6q107 214 183 444l41 10l31 -20l5 -36q-97 -260 -230 -504zM533 -59q-36 20 -31 61l51 15l5 5v51l-5 16l5 40l-5 26l5 5
v51l16 86v62l10 96l-61 51v26l45 10q102 -20 194 -66l5 -26l-10 -10h-61l-36 10l-10 -10v-112l-5 -5v-66l-10 -31v-56l-5 -5v-66l-5 -41l10 -31l20 -5l61 21l26 -16l5 -15l-15 -25l-97 -36l-26 5z" />
    <glyph glyph-name="uni2166" unicode="&#x2166;" horiz-adv-x="887" 
d="M267 -80q-60 45 -91 106l-20 131v86q-15 126 -50 242l45 5l30 -20q26 -106 46 -212v-136q0 -56 30 -86q76 197 156 388l41 5q15 -25 10 -60q-86 -217 -151 -444zM545 -80l-5 5h-86l-30 30l-5 26q25 25 60 15l5 50l-5 40l5 6v50l20 136v56l15 116l-45 5l-35 -5
q-31 25 -31 60q26 15 56 15h55l5 5h127l40 -10l15 5l76 -25l5 -15q-20 -25 -51 -25l-15 -46v-55l-10 -46v-80l-5 -5v-197l20 -50l56 -21v-25l-10 -15h-157l-25 5zM646 -14l5 20l-11 40v262l11 56v96l-41 10q-25 -30 -30 -71v-65l-10 -51v-60l-15 -86v-51l-5 -5v-65l15 -25
l75 -10z" />
    <glyph glyph-name="uni2167" unicode="&#x2167;" horiz-adv-x="965" 
d="M360 -86l-36 25l-5 41l107 25v15l-15 21v147l10 50v66h-10q-76 -192 -163 -380l-35 -5l-25 20q-31 107 -46 218v56l-15 106v66l-21 132l51 5l31 -30v-71l10 -81l-5 -21l10 -20v-81l5 -5v-51l10 -91h15q102 188 147 395l-35 61l15 21h111l56 10h61l30 5l6 -5h60
q76 -5 142 -41v-30l-40 -10l-5 -5v-142l5 -5v-97l-5 -5v-106l-5 -5v-82l10 -25q45 -5 76 -35l5 -16l-51 -20l-25 5l-46 -5l-5 5h-91l-5 5h-71l-5 -5h-61zM715 5l10 36l-10 25v66l5 5v122l-5 15l5 51l-5 5v126l-15 36l-5 5h-51l-10 -10v-71l5 -5v-66l5 -5v-162l-5 -6v-65
l5 -31l-5 -30l10 -36l61 -10zM578 15l5 46l-10 35v117l5 5v91l-5 5v76l-5 5v66l-10 21l-36 5l-20 -10l-10 -82l5 -50l-5 -5v-76l-5 -5v-51l-5 -15l5 -21l-5 -5v-60l-5 -21l15 -76l45 -5z" />
    <glyph glyph-name="uni2168" unicode="&#x2168;" horiz-adv-x="870" 
d="M428 -84l-41 30v36l11 30h-16q-116 -56 -243 -76l-35 30v31l76 20l5 46l-5 5v106l5 5v71l5 5v76l5 6v76l-5 50q-36 0 -61 31l-5 35l51 10l5 -5h101l5 -5h81l20 -10l11 -56l-41 -10l-30 10h-61l-5 -25l5 -46l-5 -15l5 -5v-56l-5 -5v-71l-5 -5v-51l-5 -5v-137l35 -10l96 21
l31 -26q66 117 137 233q-61 102 -107 213q15 26 46 16l40 -36l56 -116l15 -6l127 173h20l31 -15l10 -51q-101 -101 -152 -223q56 -122 106 -243l-40 -11q-31 11 -36 36l-71 157h-10q-81 -106 -137 -228z" />
    <glyph glyph-name="uni2169" unicode="&#x2169;" horiz-adv-x="727" 
d="M172 -86l-36 30l-5 30q106 126 192 258q-86 126 -207 216l-5 36q20 25 51 15q116 -96 196 -217h15l187 237h20l36 -20l10 -25q-111 -137 -207 -278q86 -111 187 -196v-31l-36 -15l-86 56q-40 70 -95 131l-16 5l-186 -232h-15z" />
    <glyph glyph-name="arrowleft" unicode="&#x2190;" horiz-adv-x="985" 
d="M440 83q-153 111 -327 174l-6 16h-10v32q95 52 164 153h10l79 121l37 5l42 -31v-27l-116 -126v-21l16 -6q143 37 296 58l26 -5l63 16h59l42 -26l5 -32q-21 -21 -47 -21h-64l-5 -6h-85l-36 -10h-53q-148 -37 -301 -58v-11q127 -58 243 -142l5 -27z" />
    <glyph glyph-name="arrowup" unicode="&#x2191;" horiz-adv-x="985" 
d="M450 -10l-36 31l-5 20v103l10 21v51l5 5v52l5 5v77l21 144l-16 5l-123 -144h-36l-31 31v31q129 139 273 257h36l36 -25q62 -191 154 -366l-41 -10q-57 36 -82 98l-72 159l-16 5l-10 -51v-57l-5 -5v-56l-5 -6v-66l-5 -6v-67l-6 -5v-51l-10 -36v-88l5 -41q-15 -20 -46 -15z
" />
    <glyph glyph-name="arrowright" unicode="&#x2192;" horiz-adv-x="997" 
d="M565 81l-26 21v26q78 99 162 188v15l-16 6q-277 -68 -538 -173l-42 37v31q277 99 559 167v16q-104 26 -198 84l-11 52l37 5q177 -84 360 -146l5 -37l-10 -21l-31 -21q-84 -125 -199 -240z" />
    <glyph glyph-name="arrowdown" unicode="&#x2193;" horiz-adv-x="985" 
d="M468 -56l-47 31l-188 345l16 21h26l52 -37q47 -115 104 -225h21l6 16v52l-6 6v83l6 5v68l5 6v57l5 26l-5 5v58l5 21l-5 21l5 5v57l-10 68l31 16l42 -26l10 -42v-105l-5 -5v-68l5 -5v-63l-10 -15v-63l-6 -5v-73h11l141 162h37l31 -21v-21q-152 -136 -235 -303l-16 -47z
" />
    <glyph glyph-name="arrowdblright" unicode="&#x21d2;" horiz-adv-x="802" 
d="M456 7l-42 57l63 109h-11l-275 -62h-52q-37 20 -31 57q192 31 379 83h78l36 47q-31 36 -78 41l-389 -67l-32 26v36q172 26 333 63v15q-73 42 -130 99l-5 36l41 11q172 -156 369 -245l6 -46l-68 -42q-93 -83 -145 -187l-16 -26z" />
    <glyph glyph-name="arrowdblboth" unicode="&#x21d4;" 
d="M343 -19q-109 130 -239 223l-10 52q156 83 244 239h26l31 -46l-42 -73l37 -5q145 10 265 62l-47 42l-5 41l26 16q125 -104 265 -167q21 -20 16 -52q-141 -135 -219 -296l-36 -10l-31 21v31q26 67 67 135h-10q-187 -37 -369 -78v-21l78 -62l5 -37q-21 -20 -52 -15z
M774 287l32 58l-57 15q-42 -26 -94 -26l-36 5l-172 -36h-62l-6 -5h-52l-26 -5l-31 5l-72 -63v-20q31 -21 77 -21l16 10h78l286 57l16 -5q52 21 103 31z" />
    <glyph glyph-name="universal" unicode="&#x2200;" horiz-adv-x="795" 
d="M402 -72l-47 47l5 31q-25 31 -36 72q-77 88 -113 192l-47 36l-5 41l10 26q-41 83 -62 171l26 10l46 -31l63 -160l51 -11l5 6h94l5 5h51l6 5h56l47 21l78 196l31 5l36 -31v-36q-129 -300 -279 -589zM407 89l103 207l-51 5l-36 -11h-57l-83 -15v-21q41 -93 119 -170z" />
    <glyph glyph-name="partialdiff" unicode="&#x2202;" horiz-adv-x="732" 
d="M254 -79q-71 16 -123 77l-25 57v76q5 52 51 82q87 62 195 67q107 -16 194 -72l15 31v82q-25 133 -107 246l-46 20h-51l-16 5q-71 -10 -133 -56l-15 -21h-36l-31 52q67 66 149 87h117q67 -6 118 -62q108 -138 128 -317q0 -154 -107 -267q-98 -66 -220 -87h-57zM439 39
l56 36l31 72q-77 61 -174 66q-88 -15 -154 -77l-26 -76l31 -57l67 -25q92 15 169 61z" />
    <glyph glyph-name="existential" unicode="&#x2203;" horiz-adv-x="695" 
d="M231 -44l-5 5h-84q-42 26 -31 74l5 5h52l69 -11l5 6h94q74 5 137 36l5 6v68l-5 21l5 5v58l-10 10h-58l-194 -42h-58l-37 37v32q179 36 357 57l16 53v52l16 100q-21 16 -53 11l-5 -6h-63l-37 -10h-52l-158 -26l-37 36v37l32 11h79l68 15h68l5 6h90l5 5h68l47 5l37 -31v-32
q-47 -173 -63 -362l5 -16l-5 -47l21 -147l-31 -21l-37 21l-26 10l-116 -26h-68z" />
    <glyph glyph-name="gradient" unicode="&#x2207;" horiz-adv-x="890" 
d="M436 -97q-27 16 -21 42l5 21l-16 6l-31 36q-158 242 -273 499l10 11h53l52 10h95l5 5h199l6 -5h194q52 0 89 -37l11 -47q-147 -226 -268 -467l-68 -74h-42zM462 40q115 199 247 399v16h-58l-26 10h-121l-5 5h-105l-6 -5h-57l-21 -5l-16 5l-5 -5h-69l-15 -5v-21l215 -373
l16 -5l21 -21z" />
    <glyph glyph-name="element" unicode="&#x2208;" horiz-adv-x="797" 
d="M304 1q-84 5 -142 68q-57 115 -67 251q5 151 73 271l94 32h83l21 -5l5 5h131l42 5l68 -26l10 -37l-10 -10h-194l-5 -5h-125l-47 -26l-52 -89v-53l36 -15h131l31 10h110l26 5l21 -5l68 11l42 -26v-27l-37 -26h-68l-21 -5l-36 5l-6 -5h-94l-31 -10h-57l-16 -6l-105 16
l-5 -31q5 -100 58 -178q52 -21 115 -21l31 5l5 -5h131q73 21 151 32q26 -21 16 -53q-68 -41 -152 -47h-104l-42 -5l-31 5z" />
    <glyph glyph-name="suchthat" unicode="&#x220b;" horiz-adv-x="795" 
d="M196 9l-79 26l-11 43l69 21l42 -21h122q121 10 221 68q58 79 58 180l-10 10h-85l-5 -5h-106l-5 -5h-79l-106 -27h-84l-37 27v37l16 16h100l27 10h58l5 5h100l5 6h143l53 16l5 21l-53 95l-100 42h-137q-90 -21 -185 -42l-32 26l-5 37q106 32 216 53h90l5 -6h53
q79 -10 148 -63q63 -74 79 -169v-116l-10 -53v-52q-27 -64 -74 -117q-127 -52 -269 -63h-143z" />
    <glyph glyph-name="summation" unicode="&#x2211;" horiz-adv-x="760" 
d="M137 -49q-41 25 -36 66l144 123l20 21l108 61l5 15l-108 82v11l-46 30q-61 77 -123 139v15l16 15h87l179 31h67l5 5h51l107 15l52 -20l5 -36l-16 -15h-61l-72 -16l-5 6h-97l-184 -31v-16l10 -20l20 -10q108 -113 236 -200v-36q-133 -41 -246 -133l-5 -20l20 -5h52l15 5
l41 -5l5 5h225l21 -5l20 5l36 -31v-31l-10 -10h-77l-5 5h-51l-16 5l-5 -5h-92l-5 -5h-195l-25 -10h-67z" />
    <glyph glyph-name="radical" unicode="&#x221a;" horiz-adv-x="955" 
d="M301 -81q-106 116 -201 238v37l37 21q74 -79 132 -174h16l53 243v58l5 5v79l6 21l-16 27h-53l-32 31l-5 27q290 63 586 105q32 -21 32 -58q-101 -26 -206 -47h-53l-169 -37l-11 -21v-132l-10 -53v-58q-32 -159 -85 -306z" />
    <glyph glyph-name="proportional" unicode="&#x221d;" horiz-adv-x="935" 
d="M598 14q-57 15 -92 66q-21 47 -62 72q-51 -82 -138 -123h-56q-82 51 -123 139l-21 81v72q16 133 128 225l36 16q62 -10 108 -67l41 -77h15l41 57l15 5l26 41q41 36 97 46h72q61 -5 102 -56q41 -41 36 -103l-41 -10l-51 92l-72 26q-71 -21 -128 -77q-41 -87 -46 -190
q26 -97 103 -169l30 -5q87 36 128 128q5 21 26 26h15l46 -26l5 -25q-76 -92 -169 -159l-20 -5h-51zM291 96q76 51 117 133l5 41q-20 118 -102 210l-31 10q-76 -72 -97 -169v-107l67 -118l25 -10z" />
    <glyph glyph-name="infinity" unicode="&#x221e;" 
d="M237 -15l-87 46q-47 57 -41 139q30 159 133 293q52 57 134 52l72 -36q36 -42 41 -98q-10 -52 -25 -103h10q98 134 226 226l42 6q61 -11 108 -62q30 -47 46 -103v-119q-16 -97 -82 -169l-67 -41h-83q-97 36 -180 123l-5 15h-10q-77 -97 -180 -159zM273 72q88 62 150 149
q-31 36 -31 88v62l-6 15l16 31h10v15l-46 21q-46 -21 -88 -62q-66 -108 -97 -226v-77l36 -36h20zM742 93q51 41 72 97l15 67v78q-10 51 -41 97l-36 11q-82 -52 -155 -124q-56 -62 -87 -134q77 -103 190 -113z" />
    <glyph glyph-name="orthogonal" unicode="&#x221f;" horiz-adv-x="842" 
d="M158 -68l-45 40v25l5 20l-5 36l5 40l-5 5v76l5 5v55l5 5v76l5 5v116l-5 5v86l-5 5v60l-10 31q20 25 50 20l41 -35v-36l-5 -45l10 -46v-75l5 -15l-5 -5v-101l-5 -5v-111l-5 -5v-106l10 -25h35l151 25h51l5 5h55l5 5h66l5 5h71l60 15q35 -15 46 -50l-16 -31l-55 -5l-25 10
l-15 -5l-21 5l-50 -10h-56l-5 -5h-60l-5 -5h-61q-121 -15 -227 -60z" />
    <glyph glyph-name="angle" unicode="&#x2220;" horiz-adv-x="835" 
d="M142 -24l-37 16l-5 57l99 130q145 125 265 281h10l99 135l36 5q37 -21 32 -62l-188 -208h-10q-109 -135 -218 -265l36 -5l5 5h73l5 5h68l5 5h172l41 11h78q31 -21 31 -58l-15 -15h-52l-16 -5l-15 5l-16 -5l-5 5h-52l-5 -5h-125l-5 -6h-58l-20 -5l-16 5l-47 -10h-62z" />
    <glyph glyph-name="uni2225" unicode="&#x2225;" horiz-adv-x="800" 
d="M285 -78l-41 21l-5 56l5 20l-10 61l5 31l-5 25l5 5v56l5 5v118l5 5v81l5 5v102l5 21l-5 51l5 5v132l-5 36q20 25 51 15l36 -31v-71l-5 -5v-56l-5 -25l5 -21l-11 -25l6 -5v-82l-6 -5v-92l-5 -5v-148l-5 -5v-153l-5 -15q31 -25 26 -61l-5 -36zM524 -52q-30 0 -51 25l-10 61
l10 16v178l5 5v76l5 6v56l5 5v112l6 5v71l5 5v51l5 5v153l35 10l31 -15l5 -5v-158l-5 -5v-51l-5 -5v-97l-5 -5v-61l-5 -5v-82l-5 -5v-193l-6 -6v-56l21 -56q-10 -35 -41 -35z" />
    <glyph glyph-name="logicaland" unicode="&#x2227;" horiz-adv-x="832" 
d="M676 -46l-51 51l5 16q-103 226 -195 463l-21 5q-144 -226 -232 -473l-46 -6q-31 21 -26 57q78 180 175 350l31 36q31 77 77 149l42 10l46 -46q113 -298 242 -581l-21 -31h-26z" />
    <glyph glyph-name="logicalor" unicode="&#x2228;" horiz-adv-x="800" 
d="M345 -28l-31 21q-112 312 -204 640q25 15 56 10l36 -36q66 -241 138 -476l15 -5q113 246 231 491l15 5l5 16l51 5l31 -21v-35q-87 -103 -138 -226q-87 -184 -159 -379z" />
    <glyph glyph-name="intersection" unicode="&#x2229;" horiz-adv-x="800" 
d="M618 -43l-47 42v21l31 137v136q-5 137 -79 242q-47 31 -105 31l-89 -52l-37 -63l-26 -27q-52 -136 -84 -283v-58l5 -47q-15 -21 -42 -16l-42 32v15l6 6v99q36 195 126 368q68 73 157 100h63q84 -16 147 -84q47 -74 68 -158v-52l16 -100l-5 -42l5 -5v-63q-10 -42 -21 -84
v-53l-31 -42h-16z" />
    <glyph glyph-name="union" unicode="&#x222a;" horiz-adv-x="720" 
d="M308 -33q-90 21 -159 90q-32 32 -37 75v85l-6 5v58l-5 53l5 6v53l6 5v53l10 69l-5 48l16 21l37 5l42 -37v-26l-15 -69v-53l-11 -43v-132l5 -32l-5 -32l21 -74l16 -6q27 -32 69 -47h64q47 5 85 47q79 133 100 287l-16 63v54l-10 58l58 16l43 -27v-37l-11 -42l21 -112
q-32 -185 -143 -339q-48 -37 -111 -43h-64z" />
    <glyph glyph-name="integral" unicode="&#x222b;" horiz-adv-x="762" 
d="M239 -84q-52 21 -93 68l-5 15l-31 21l-11 47l47 15l31 -20l47 -73q26 -21 57 -16q42 21 57 68q52 135 63 291v67l5 6v62l5 5v89q5 98 57 176l47 11q57 -11 104 -52q42 -32 42 -84l-32 -10l-78 78h-15l-37 -47l-15 -78v-52l-5 -5v-57l-11 -62l5 -21l-10 -47v-52
q-16 -172 -99 -317l-57 -26h-68z" />
    <glyph glyph-name="uni222C" unicode="&#x222c;" horiz-adv-x="935" 
d="M555 -30l-109 42l-10 47q21 15 52 10q36 -31 83 -41q31 114 42 233v99l5 5v172l5 5v161l5 5v52l11 11h62q93 -52 140 -146v-15l-36 -16l-83 104h-16l-15 -31v-62l-6 -32l6 -5v-57l-6 -16l6 -20l-6 -21l6 -42l-6 -5v-68l-5 -5v-99l-10 -31v-52l-11 -46v-52l-20 -78l-6 -6
h-78zM238 -9q-72 21 -130 78l-5 37l21 25h36q26 -31 37 -67l46 -10l32 36l41 239v57l5 5v52l6 6v88l5 21l-5 15l5 26l-5 31l15 99l52 5q78 -31 146 -83l21 -67l-37 -11l-41 63l-73 26l-11 -68l6 -21l-6 -20l6 -21l-6 -5v-63l-5 -5v-83l-10 -47v-68q-11 -135 -73 -254
q-31 -21 -73 -16z" />
    <glyph glyph-name="uni222E" unicode="&#x222e;" horiz-adv-x="720" 
d="M250 -98l-60 45v30l30 10q35 -25 76 -30l20 15l25 136q-111 10 -196 85q-25 40 -40 81v60l40 75q85 90 196 111l5 5v65l30 130l15 10h60q91 -15 156 -85l5 -15l-40 -10q-51 45 -116 45q-40 -70 -40 -156q75 -20 136 -75l30 -55v-65q-10 -66 -71 -106l-90 -60l-45 -236
l-20 -10h-106zM341 188l5 5v116l-5 50l5 40l-5 15l5 15l-5 15h-10q-91 -40 -151 -125l-5 -25l40 -81l61 -30h60zM451 248l55 61l5 15v50q-20 45 -65 65h-25l-10 -45v-115l10 -41h15z" />
    <glyph glyph-name="therefore" unicode="&#x2234;" horiz-adv-x="687" 
d="M127 -61l-30 35v133l5 5v71l45 5l26 -25v-61l-5 -5v-57l-5 -45l10 -31l-20 -25h-26zM555 -41l-36 41v25l5 5v117l6 16l-6 25l11 21l25 5l41 -31v-81l-5 -5v-97l-10 -31zM316 468l-21 46l16 51v66l10 57l25 5l41 -26l5 -36q-15 -86 -56 -157z" />
    <glyph glyph-name="uni2235" unicode="&#x2235;" horiz-adv-x="722" 
d="M338 -54q-42 72 -47 156q16 20 47 15l31 -15l16 -115l-11 -36zM546 341l-16 20v58l16 62l31 5l36 -26l5 -26l-20 -57l5 -16q-21 -26 -57 -20zM166 361q-36 94 -62 193q21 15 47 10l36 -31l26 -156q-16 -26 -47 -16z" />
    <glyph glyph-name="uni223D" unicode="&#x223d;" horiz-adv-x="912" 
d="M180 52l-73 62l-15 52v68l5 5v68q5 124 83 223l52 5q52 -20 99 -57l41 -78q-15 -26 -47 -21l-72 84h-16q-62 -84 -67 -193v-57l-6 -36l16 -52h31q234 234 494 405l57 11l26 -16q26 -47 31 -99v-109q-26 -130 -88 -244l-68 -11l-124 42l-26 47q20 31 62 20l88 -41
q78 135 83 296l-10 26l-21 5q-244 -187 -478 -405h-57z" />
    <glyph glyph-name="uni2252" unicode="&#x2252;" horiz-adv-x="757" 
d="M506 2q-47 15 -83 62l-11 52q21 15 47 10l88 -88l-15 -31zM152 173l-36 36v37l104 21l15 -6q198 26 385 78l42 -26l10 -36q-255 -57 -520 -104zM173 391l-31 21l-11 52q78 16 156 26h52l151 21h57l37 -36v-21l-37 -21h-98q-141 -16 -276 -42zM246 589q-73 10 -130 47
l-16 57l42 10q78 -41 151 -83l5 -21l-5 -10h-47z" />
    <glyph glyph-name="notequal" unicode="&#x2260;" horiz-adv-x="690" 
d="M245 -109q-30 26 -36 62q16 108 47 206l-26 5l-98 -26l-31 26l-5 36l185 62q26 62 31 134h-31l-113 -36l-26 10l-20 57q103 36 211 51q20 93 36 185l41 5q41 -25 31 -72q-21 -46 -21 -103h47l41 11l51 -21l5 -36q-41 -20 -92 -26h-52l-20 -10q-26 -62 -31 -128h26
q82 20 164 46l31 -16l10 -30q-123 -57 -262 -88q-31 -108 -46 -221v-62q-16 -26 -47 -21z" />
    <glyph glyph-name="equivalence" unicode="&#x2261;" horiz-adv-x="745" 
d="M155 -55l-47 32l-5 37l26 15l5 -5h89l6 5h52l53 11h57q121 16 237 37l36 -32v-37q-26 -15 -52 -15h-79l-79 -16h-57l-32 -11h-52zM197 203l-37 36v27l63 21h63l32 10h79l152 26l42 -26l5 -37q-42 -10 -89 -21l-26 6l-42 -11h-53zM150 470l-32 32v31q27 16 58 16h126l5 5
h116l5 6h63l5 5h69l15 5l42 -37v-15l-26 -27h-21l-26 6l-32 -6l-26 6l-52 -11h-132l-5 -5h-63l-37 -11h-52z" />
    <glyph glyph-name="uni2266" unicode="&#x2266;" horiz-adv-x="802" 
d="M280 -70q-31 0 -52 26l-5 36q213 47 426 84l42 -26l5 -26l-5 -11l-88 -26h-63zM145 70q-31 6 -41 37v26l10 10h109q166 31 322 73q-197 135 -421 197l-10 47l468 260l26 -21v-36q-167 -104 -338 -203l-5 -21q218 -109 426 -234l5 -36q-47 -21 -93 -31l-32 5
q-208 -47 -426 -73z" />
    <glyph glyph-name="uni2267" unicode="&#x2267;" horiz-adv-x="785" 
d="M129 -77l-36 25v41l10 5h57l5 5h51q225 36 445 93l41 -36v-21q-225 -61 -455 -102h-52zM160 97l-31 30q-26 41 -31 87q195 159 405 277l5 15q-180 77 -359 164q-20 26 -15 56l41 11q225 -118 450 -221l16 -35l-31 -21q-143 -87 -292 -174l-15 -20q-56 -21 -103 -62
l-15 -36h26l153 31h57l41 15h92l51 6l36 -41l-10 -21l-6 -5h-51l-5 -5h-56q-179 -26 -353 -51z" />
    <glyph glyph-name="uni226A" unicode="&#x226a;" horiz-adv-x="860" 
d="M459 -67l-36 16q-170 139 -314 308v31l169 144q93 83 155 180h31l31 -30v-31l-289 -304q129 -165 299 -273v-20l-16 -21h-30zM736 -41q-190 93 -365 231q-36 26 -31 73q175 149 335 308h25q36 -20 36 -56l-82 -67l-5 -16l-211 -190v-16q144 -128 309 -200l20 -52z" />
    <glyph glyph-name="uni226B" unicode="&#x226b;" horiz-adv-x="887" 
d="M388 -100q-31 16 -62 16v-6h5v26l-5 31q181 217 352 445v16q-207 82 -398 191q-21 26 -16 62q21 15 47 10q227 -139 470 -248l5 -41l-31 -21q-155 -202 -310 -409l-52 -56v-16h-5zM171 -2q-36 26 -36 62q124 166 274 316v15q-150 57 -290 135l-15 51q15 21 41 16
q176 -103 362 -181l16 -41l-37 -37h-10q-26 -46 -67 -93q-62 -41 -98 -103h-11q-51 -62 -93 -135z" />
    <glyph glyph-name="propersubset" unicode="&#x2282;" horiz-adv-x="880" 
d="M410 36q-147 21 -262 120q-36 47 -47 100v57q27 84 74 157l26 10v11q135 73 287 109h172l74 -26l10 -36l-47 -16l-26 10h-63l-5 -5h-89q-141 -31 -261 -110q-42 -57 -68 -120v-52l37 -68q104 -57 224 -68l16 5l16 -5q125 21 250 37l47 -11l6 -57l-21 -16h-63l-21 5l-5 -5
h-52l-141 -26h-68z" />
    <glyph glyph-name="propersuperset" unicode="&#x2283;" horiz-adv-x="812" 
d="M140 10q-43 26 -32 69q32 21 74 21l37 -11h202q127 64 202 181q31 48 31 111l-37 75q-101 69 -233 69l-59 -11h-74l-5 -5h-122q-32 21 -27 58l11 21h32l5 -5h117l58 10h127q133 -10 234 -111l26 -32q32 -58 32 -132l-79 -165q-101 -90 -218 -138h-69l-16 5l-21 -5l-16 5
l-5 -5h-69l-5 -5h-101z" />
    <glyph glyph-name="reflexsubset" unicode="&#x2286;" horiz-adv-x="840" 
d="M177 1l-37 37v21l27 21h95l85 21h69l59 11h74l5 5h106l32 6l43 -22l10 -47l-10 -11h-69l-6 5h-106l-5 -5h-59l-42 -11h-74l-133 -31h-64zM368 154q-127 0 -217 101q-32 59 -48 128v63q16 85 80 149q175 79 376 101h80l37 -22l5 -37l-10 -10h-96q-191 -16 -350 -122
q-32 -59 -42 -122l16 -80l16 -11l47 -42l80 -21h138l16 5l16 -5l5 5h69l5 5h53l32 6l43 -11l5 -58q-21 -16 -48 -11l-5 5h-53l-5 -5h-91l-5 -5h-90l-5 -6h-54z" />
    <glyph glyph-name="reflexsuperset" unicode="&#x2287;" horiz-adv-x="850" 
d="M138 -11l-32 31v37l42 10h58q247 37 499 69l42 -37v-32l-11 -10h-126zM175 115l-27 15q-21 21 -15 58q204 32 383 131q52 63 68 147l-21 42q-105 53 -220 69h-121q-42 -27 -95 -32l-31 26l-5 32l5 16q68 21 142 31l5 -5h94q153 -11 279 -95l42 -78v-63q-21 -74 -69 -142
q-194 -110 -414 -152z" />
    <glyph glyph-name="perpendicular" unicode="&#x22a5;" horiz-adv-x="820" 
d="M139 -50q-37 26 -37 62l32 16h57l161 31l5 5v57l-10 52v224l5 5v187l-5 42l46 15l42 -36v-67l-5 -6v-135l-5 -5v-239l15 -83l16 -11h140l52 11l73 -26l10 -37l-21 -15h-72l-5 5h-63l-5 -5h-125l-5 -5h-62z" />
    <glyph glyph-name="uni22BF" unicode="&#x22bf;" horiz-adv-x="932" 
d="M771 -51l-26 11l-21 35l-35 11h-67l-5 5h-154q-163 -21 -322 -57l-36 36v26q46 77 113 148q169 190 338 384h10l46 62l56 51q36 10 67 31l46 -26l25 -46v-189l6 -6v-117l5 -16l-5 -41l5 -35l-5 -6v-153q25 -21 25 -57l-31 -46zM730 67l5 5v328l-5 5v143l-11 36h-20
q-179 -184 -343 -384h-10q-57 -72 -108 -148h46l113 20h56l5 5h123l5 -5h62l76 -10z" />
    <glyph glyph-name="uni2312" unicode="&#x2312;" horiz-adv-x="995" 
d="M855 433l-52 73q-99 88 -218 119h-63l-36 5q-193 -36 -354 -155q-31 15 -36 52q99 88 218 140l120 31h130q197 -47 343 -208l5 -21l-16 -26z" />
    <glyph glyph-name="uni2460" unicode="&#x2460;" 
d="M433 -84l-5 5h-60q-130 35 -225 138q-64 85 -59 195q20 150 110 274q59 80 149 131l105 35h95q164 -25 289 -135q85 -85 100 -200v-105q-20 -115 -105 -205q-139 -133 -333 -133h-61zM558 -10v10q-20 19 -20 49v105l-5 5v200l-6 5v175q21 15 46 10l31 -21l3 -33l-8 -72
l5 -5v-89l3 -6v-99l5 -6v-174l-5 -30l25 -5q71 30 131 91q79 85 100 190v64q-15 110 -105 190q-120 84 -269 89q-110 -30 -195 -115q-95 -118 -130 -259v-69q15 -90 89 -156q55 -44 126 -59h49l15 10h84z" />
    <glyph glyph-name="uni2461" unicode="&#x2461;" 
d="M453 -84q-143 51 -275 138q-67 66 -77 158v61q15 199 168 341q51 41 117 46h51l16 5l5 -5h91q174 -20 301 -153q66 -91 82 -208v-77q-36 -97 -128 -173q-127 -107 -285 -133h-66zM682 44q107 66 173 173l15 56v51q-35 102 -107 194q-96 61 -214 81h-71l-20 -5l-46 5
q-71 -15 -127 -66q-92 -128 -118 -280v-56l41 -107q122 -87 275 -92v-20h31q86 20 168 66zM371 90l-36 30v26l118 96l5 16q81 66 147 142v21l-101 10l-5 -5h-82q-31 20 -31 51l11 10h137q77 0 133 -51l10 -46l-31 -51h-10l-20 -30l-16 -5l-25 -36q-66 -51 -112 -117h61
l25 -5l6 5h56l45 5l16 -5l5 -31q-46 -25 -107 -30l-21 5l-5 -5h-173z" />
    <glyph glyph-name="uni2462" unicode="&#x2462;" 
d="M388 -106q-141 40 -258 150q-39 46 -44 101v152q10 212 176 363q91 70 202 91h75l15 5l5 -5h56q156 -21 267 -141q71 -87 81 -197v-71q-36 -182 -181 -317q-152 -96 -329 -131h-65zM448 15l-34 19l-16 41l35 10l20 -5q67 25 117 91q40 40 40 95l-66 11q-55 -31 -120 -46
l-46 25l-5 36l121 65q65 70 96 152q-36 24 -81 19l-126 -60l-25 -25h-31l-35 25v26q76 70 172 96h100l76 -41q25 -30 25 -71q-35 -70 -75 -141q50 -10 86 -50l15 -51q-26 -86 -91 -151q-61 -70 -152 -70zM670 44q142 91 202 243l21 106l-5 5v65q-26 81 -81 147
q-81 55 -172 75h-126q-146 -20 -252 -141q-106 -161 -106 -368q5 -65 46 -116q100 -85 231 -100q126 30 242 84z" />
    <glyph glyph-name="uni2463" unicode="&#x2463;" 
d="M417 -108q-35 0 -61 30q-148 102 -295 224v153q30 153 163 260q188 163 443 178q122 -15 214 -112q87 -112 87 -260q-16 -183 -153 -315q-123 -128 -291 -158h-107zM631 9q153 86 230 239l30 107v92q-20 92 -86 168q-51 41 -107 56h-67q-214 -41 -382 -199
q-122 -117 -122 -285l41 -66q112 -82 234 -143h61l82 -10zM540 14q-46 66 -51 148l-26 5l-127 -16l-5 6h-61l-51 30l-11 26l194 224l112 97h36l30 -41l-10 -66l5 -16l-5 -5v-56l-5 -5v-87l26 -15q35 31 86 31l56 -21l5 -30l-5 -15q-76 -21 -158 -36l-5 -51l10 -51v-51z
M484 233l10 10v51l-5 51l5 5v56h-15q-92 -86 -153 -183l40 -5l6 5h66z" />
    <glyph glyph-name="uni2464" unicode="&#x2464;" 
d="M451 -89q-187 46 -348 162q-71 81 -81 187q35 166 167 292q166 146 373 187h70q152 -15 263 -136q86 -96 91 -222v-76q-21 -146 -137 -257q-191 -91 -398 -137zM516 -3l5 15l-20 10l-5 26l71 45q65 76 70 172l-5 15l-60 15q-51 -10 -91 -46l-25 -60h-35l-36 30v36l5 5
v105l-10 36l5 15l-30 116l30 15l36 -15l5 -15l25 -5l91 25h95l106 -35l5 -15l-10 -21l-25 -5l-45 15h-81l-131 -45l-5 -15l10 -25v-51l25 -5l41 15h70q61 -10 101 -60l10 -20v-76l-35 -66l-15 -5q-15 -55 -51 -95h30q111 30 202 116q56 85 71 191v81q-15 111 -101 192
q-66 45 -146 65h-81q-197 -45 -353 -192l-20 -25h-10q-66 -91 -91 -196v-56q15 -60 55 -111q31 -35 76 -55l197 -51h60z" />
    <glyph glyph-name="uni2465" unicode="&#x2465;" 
d="M488 -77q-148 36 -285 102q-92 127 -92 295l5 5v92q10 112 77 204q112 66 244 76h97q148 -25 265 -127t148 -234v-82q-21 -102 -102 -178q-102 -97 -225 -148h-81zM671 30q82 46 148 122h10q51 77 61 173q-25 123 -137 214q-107 87 -250 97l-5 -5h-61q-117 -15 -214 -92
q-41 -76 -51 -168v-102q0 -117 66 -208l26 -11l76 -20q61 -26 128 -41h117zM457 71l-56 30q-35 41 -51 87v66q41 153 92 301l31 5l25 -46q-46 -92 -66 -194h25q46 26 107 21l67 -46l20 -31v-66l-25 -46l-46 -41q-56 -35 -123 -40zM544 168l56 56v30l-5 15l-56 11
q-66 -21 -127 -46l-11 -41q16 -36 46 -61h21z" />
    <glyph glyph-name="uni2466" unicode="&#x2466;" 
d="M385 -72l-41 25v26l20 25q-131 36 -238 137q-35 46 -40 106v92q25 202 202 339q66 66 147 86h87q192 -5 334 -141q61 -97 71 -218v-56q-20 -162 -137 -289q-187 -96 -405 -132zM547 55q-51 10 -41 66q61 192 132 385h-56q-76 -25 -152 -41l-5 -50l15 -56v-71l-45 -15
l-31 35l-15 127v132q21 25 51 15l35 -41h41l111 31h71l66 -20l5 -46q-81 -218 -157 -441zM694 95q66 31 101 102q36 71 51 147v101q-10 91 -66 167q-101 76 -233 87h-81q-61 -26 -117 -61l-10 -21l-106 -116h-11q-50 -91 -60 -203l5 -15l-5 -41q15 -60 55 -111
q97 -66 208 -97h81l21 -5z" />
    <glyph glyph-name="uni2467" unicode="&#x2467;" 
d="M410 -76q-56 5 -102 46l-10 46q-86 45 -162 126q-41 51 -51 112v61q25 172 162 299q107 81 239 106h91l5 -5h51q121 -20 218 -116q65 -77 76 -173v-91q-26 -157 -137 -279l-15 -5l-6 -15q-121 -91 -273 -112h-86zM496 31q-76 35 -137 96l-5 31l137 116v15q-76 92 -87 213
l11 10h91q56 -15 116 -30h56l10 -10h76l31 -26v-15q-81 -50 -152 -111h-10l-5 -15l-51 -41v-30q35 -56 30 -127l-40 -66l-41 -10l-15 5zM683 56l71 51q92 121 112 268v56q-15 97 -91 168l-112 55h-51l-15 10h-81q-142 -25 -248 -126q-82 -97 -112 -213v-81q10 -76 81 -132
l20 -15v-10q107 -82 234 -112q101 25 192 81zM521 92q25 30 20 71l-20 50h-15l-66 -71v-15q30 -35 76 -40zM557 325l101 96q-76 36 -167 41l-10 -26l55 -111l15 -5z" />
    <glyph glyph-name="uni2468" unicode="&#x2468;" 
d="M499 -85q-198 50 -355 192q-66 76 -76 173v116q21 117 107 208q116 102 263 127h76q188 -10 320 -162q101 -127 111 -289v-86q-10 -112 -111 -188q-107 -76 -233 -91h-102zM418 6l15 5q51 -46 122 -41q152 21 269 127q35 56 55 117v91q-15 147 -116 259
q-112 106 -269 106q-147 -20 -264 -117q-70 -76 -96 -172v-111q10 -92 76 -158q91 -76 203 -111zM601 26l-21 26v243h-15q-61 -66 -147 -71l-56 30q-40 51 -35 117q20 106 91 187l61 31h76l66 -36q40 -55 51 -126l-26 -92v-197l5 -5v-56l5 -20l-15 -26zM459 300
q81 46 131 127l5 50l-20 41l-56 15l-55 -35q-46 -61 -66 -137v-56l5 -15l25 -5z" />
    <glyph glyph-name="uni2469" unicode="&#x2469;" 
d="M402 -89q-46 5 -82 36q-148 91 -244 239l-21 61v87q41 142 158 255q66 66 158 76h112l5 -5h56l5 -5h82q117 -10 204 -97q102 -148 127 -326q-10 -117 -92 -204q-127 -102 -295 -117l-46 5l-5 -5h-122zM402 48l-36 21l-20 56v112l5 5v66l30 174l31 5l36 -26v-20l-31 -163
v-77l-5 -5v-76l36 -31v-20q-16 -26 -46 -21zM774 48q76 46 102 128l15 97q-26 142 -107 259q-72 62 -168 62h-72l-5 5h-132q-107 -10 -179 -102q-71 -92 -106 -194v-56l30 -97l36 -25q66 -77 153 -122l56 -21h51l86 -10q133 10 240 76zM611 99l-62 36q-25 41 -30 87v71
q20 97 86 173l21 16l30 10l41 -10q61 -77 87 -163v-51q-21 -82 -87 -148q-41 -21 -86 -21zM651 171q51 46 72 107v51l-36 76l-25 5l-16 -5q-51 -81 -61 -178l26 -61l25 -5z" />
    <glyph glyph-name="uni246A" unicode="&#x246a;" 
d="M497 -91q-213 46 -370 223q-41 51 -46 117v66l25 122q97 136 244 207l152 51h51l50 5q142 -10 244 -116l5 -16l15 -5q66 -86 71 -197l-5 -16l5 -45l-5 -46l5 -20q-20 -162 -147 -279q-56 -35 -117 -51h-76l-40 10zM735 6q71 55 101 137l26 81v50l5 5v102q-10 101 -76 182
q-66 56 -152 71h-86q-168 -30 -300 -142q-101 -96 -101 -233q5 -96 86 -157q132 -132 309 -147l6 5h76zM456 31l-40 15l-21 41v319l-5 20l36 21l40 -26l5 -5v-50l-5 -5v-269l21 -46zM700 56l-26 10l-10 61l15 92v106l-5 5v96q15 21 46 16q30 -21 30 -56l-5 -5v-122l5 -20
l-5 -5v-51l-25 -122z" />
    <glyph glyph-name="uni246B" unicode="&#x246b;" 
d="M411 -98q-168 96 -320 223q-40 50 -50 111v97q30 116 126 202q152 137 345 188h56l30 5q162 -15 284 -132q107 -116 117 -269v-86q-16 -121 -122 -208q-157 -126 -370 -131h-96zM406 8l-41 25v51l-5 5v147l5 15l-5 26l5 20l-5 15l5 26l-5 15l5 20l-5 15l5 15l-5 6v91
l35 10l31 -15l5 -5v-193l5 -20l-5 -5v-203l15 -46zM771 38q86 56 136 142l26 76v112q-26 106 -91 198q-112 106 -269 101q-208 -40 -370 -198q-61 -76 -91 -167v-66q10 -71 65 -121q137 -122 305 -163q157 16 289 86zM639 99q-41 0 -66 36l-5 20q50 25 86 71h10l5 15l15 5
q71 76 102 168l-26 20h-66q-76 -36 -157 -66l-20 15l-5 31q96 81 223 81l96 -46q31 -25 21 -71q-46 -91 -117 -167l-41 -36v-15l6 -5h60l61 15l26 -10l5 -20l-31 -31l-86 -10l-15 5l-5 -5h-76z" />
    <glyph glyph-name="uni246C" unicode="&#x246c;" 
d="M371 -92l-30 25v19l10 21q-186 89 -271 279l-15 111q15 136 120 236l55 55q156 111 347 121q130 -31 240 -116q131 -105 146 -261v-55l-5 -4v-66q-10 -171 -151 -285q-70 -55 -160 -70h-155l-25 5zM742 27q90 60 131 156q25 85 35 175v66q-15 100 -91 175
q-95 70 -205 111h-60q-201 -46 -351 -206q-46 -65 -66 -146v-55q25 -105 95 -196l116 -75v25l-10 50v50l-5 15l5 5v157l5 5v65l15 90l35 5q40 -15 30 -65l-9 -30v-61l-5 -4v-76l-6 -5v-156l25 -114l15 -5h131l15 -5q85 5 155 49zM607 52l-45 35v15q75 16 136 75q29 31 29 75
l-24 6q-46 -40 -101 -50l-35 30v25q50 45 105 76q45 59 60 129l-29 36h-51l-85 -56l-41 -39h-19l-36 34v25q65 71 146 101h65l91 -50l25 -45v-65q-20 -51 -46 -96l46 -50v-50q-15 -61 -71 -111q-50 -50 -120 -50z" />
    <glyph glyph-name="uni246D" unicode="&#x246d;" 
d="M403 -74l-30 20l-5 26l5 20q-142 30 -259 127q-25 40 -35 91v66l-5 15q10 162 147 274q127 127 299 142h51q157 0 263 -117q71 -111 97 -243q-11 -157 -127 -269q-137 -121 -314 -152h-87zM657 48l5 15l-20 46l5 35l-5 5v51l-26 10l-5 -5h-86q-46 15 -71 56l-10 61
q71 111 182 187h46l25 -35v-71l11 -46v-56l20 -5l30 26h51l20 -16v-15l-116 -56l-5 -15v-121l20 -6q81 66 116 158l21 66v55q-26 122 -102 218q-71 56 -162 61h-81q-142 -35 -253 -137q-122 -111 -127 -274q15 -65 45 -126l158 -61v10l-16 81v238l-10 61q15 21 46 15l25 -25
v-76l5 -5v-243q0 -56 41 -97l106 -20zM642 266v10l5 20l-5 5v51l-5 5v61l-21 10q-66 -66 -101 -142l5 -15l30 -15h56z" />
    <glyph glyph-name="uni246E" unicode="&#x246e;" 
d="M424 -98l-36 25v36q-153 0 -255 107q-51 71 -71 158v81q36 163 173 291q133 127 316 127q158 -5 275 -122q102 -102 117 -240v-96q-30 -107 -122 -189q-183 -127 -397 -178zM342 14v295l-5 16l5 20l-5 5v66l-5 31l46 10l30 -30v-36l-5 -46l5 -5v-296l10 -45l41 -16h56
l123 56v16q-26 0 -41 15l-5 15q71 41 102 117l5 51l-11 21l-20 5q-61 -46 -117 -97l-36 26l-5 5v66l5 5v199l-5 20q15 20 46 15l41 -40h56l5 5h102l41 -16l5 -15l-16 -20l-30 -5h-102l-71 -21l-6 -15l6 -20l-6 -6v-50l21 -6q41 36 97 31q35 -15 56 -56l10 -26v-56
q-31 -61 -66 -122h10q97 56 148 153l20 66v77q-15 112 -97 198q-86 92 -209 97h-56q-153 -25 -265 -153q-86 -107 -122 -234v-51q20 -82 61 -153q66 -56 153 -66z" />
    <glyph glyph-name="uni246F" unicode="&#x246f;" 
d="M375 -83q-142 21 -242 137q-61 75 -81 166v56q30 141 141 252q151 116 333 156h116q111 -10 192 -96q101 -106 126 -242l-5 -20l5 -45q-25 -147 -141 -253q-106 -70 -232 -90h-76l-5 -5h-51zM360 -27l10 10h70l15 -5q192 5 338 121q76 86 106 197v70q-35 121 -131 217
q-50 36 -116 46h-96q-191 -41 -343 -182q-75 -106 -91 -232q16 -91 86 -161q61 -71 147 -86zM370 8q-41 36 -46 91v55l-5 6v216l-10 51q20 25 51 15q30 -10 35 -40l-10 -26v-80l10 -61l-5 -15l5 -20l-5 -5v-61q15 -55 25 -116l-5 -10h-40zM587 89l-71 40q-30 56 -25 126
l50 212l40 5l31 -25v-25q-31 -46 -36 -101l5 -5h96l81 -40q25 -26 20 -66q-50 -66 -121 -111zM647 160l66 40l10 40q-41 31 -96 25l-56 -25l-5 -25v-50l41 -26z" />
    <glyph glyph-name="uni2470" unicode="&#x2470;" 
d="M448 -96q-158 10 -265 137q-76 102 -101 229v107q15 107 91 189q107 87 240 112h66l5 5h66l5 -5h51q128 -20 230 -107l5 -15l20 -10q87 -87 92 -204q-21 -184 -153 -321q-112 -102 -265 -112h-66zM464 -45l30 20h61q102 20 189 92q102 112 137 254v77q-25 81 -96 142
q-87 67 -194 82h-132q-138 -20 -245 -117q-61 -87 -71 -194q10 -148 102 -265q56 -61 132 -76v20l-10 31v107l-5 20l5 5v61l-5 21l5 5v132l5 21l-5 15l10 51h41l25 -20v-36l-10 -46v-148l-5 -20l5 -51l-5 -5v-102l15 -61l-5 -20h21zM652 97q-25 21 -15 51q66 117 107 245
l-36 5l-122 -36l-5 -35l15 -97q-15 -21 -46 -16q-30 36 -35 82l5 20l-21 123l36 10q36 -21 76 -21l107 21h72l35 -31v-15q-40 -158 -132 -296z" />
    <glyph glyph-name="uni2471" unicode="&#x2471;" 
d="M346 -97q-117 51 -208 157q-66 66 -76 158v86q36 157 162 278q122 102 279 107h86l5 -5h51q147 -15 259 -122q50 -56 71 -127v-50l5 -36l-15 -66l-16 -10q-25 -96 -96 -172q-56 -61 -122 -107q-116 -65 -248 -86h-91zM295 -6q16 21 46 16l25 -41l71 -10q193 25 340 152
q101 112 137 248v56q-15 71 -66 122q-101 91 -243 91h-61l-5 -5h-56q-122 -20 -218 -96q-112 -117 -137 -269v-56q20 -101 107 -172l55 -41zM382 60l-31 26l-15 76v61l-5 5v142l-10 65q15 21 40 16l26 -16l10 -45l-5 -15l5 -5v-173l25 -116q-15 -26 -40 -21zM620 76
q-61 10 -102 60l-15 21v61l46 81q-61 55 -76 126v61l35 41l36 10h86q61 -15 111 -66q31 -41 26 -101l-107 -71l-5 -26q66 -55 97 -132q-26 -40 -71 -60zM676 147l10 20q-31 45 -76 76h-16q-40 -31 -30 -81l46 -36h30zM615 344l91 86q-20 36 -56 46l-61 5l-40 -20l-10 -46
q15 -50 61 -81z" />
    <glyph glyph-name="uni2472" unicode="&#x2472;" 
d="M500 -105q-188 66 -340 218q-71 81 -81 188v50q5 147 122 249q127 111 299 122l5 -6h51q172 -20 304 -152q71 -71 91 -162v-81q-5 -91 -56 -167l-15 -5q-30 -61 -76 -117q-91 -106 -218 -132h-51zM652 -14q142 92 213 239l30 101v66q-25 91 -96 162q-111 97 -264 112h-55
q-157 -26 -279 -152q-41 -51 -56 -112v-51l-5 -5v-86q25 -106 122 -182l121 -76l31 5l20 -46l31 -10h96zM662 47l-15 5l-5 21v111l5 46l-5 15h-15l-92 -35l-45 20l-31 61l6 5v50q15 66 70 112l56 35h51l51 -40l20 -66v-51l-5 -5v-86l-5 -5v-51l-10 -61l10 -40l-21 -41h-20z
M378 52l-20 16l-5 15v152l-5 15l10 30v178l36 10q35 -20 30 -61l-10 -30v-132l-5 -5v-112l10 -60q-15 -21 -41 -16zM591 280q41 21 61 61v71l-10 21l-25 5q-71 -41 -102 -112v-51l5 -15h31z" />
    <glyph glyph-name="uni2473" unicode="&#x2473;" 
d="M453 -86q-66 0 -122 31l-5 15q-127 56 -234 163q-61 71 -72 163v92q21 137 138 239q97 77 214 97h51l5 5h66l5 -5h51q214 -36 372 -194q56 -71 77 -152v-87q-16 -97 -87 -173q-163 -168 -382 -194h-77zM683 26q122 66 214 184l30 86v72q-15 81 -76 142q-138 123 -311 148
h-97q-168 -10 -285 -143q-71 -96 -76 -224q15 -102 91 -178q148 -138 347 -143q86 16 163 56zM357 62q-51 10 -92 46l-5 20q102 87 163 199l5 41q-36 30 -87 25q-25 -20 -56 -15l-35 30v16q25 25 61 25h61l102 -51q20 -41 15 -86q-61 -97 -122 -189l41 -5l163 31l20 -31
q-61 -46 -138 -56h-96zM632 133l-51 36q-36 41 -41 92v71q5 36 36 66q56 51 127 51q71 -41 117 -102l5 -56q-35 -76 -96 -137l-36 -21h-61zM678 205l86 91v31l-15 36l-61 15l-56 -31l-21 -41v-61l21 -51h30z" />
    <glyph glyph-name="SF100000" unicode="&#x2500;" 
d="M121 300l-35 20l-15 35l15 16h186l5 5h76l15 5l5 -5h197l45 -5l46 5l5 -5h101l25 -6l35 6l5 -6h56l5 6h65l21 -16v-20l-16 -20l-35 -15h-136l-5 5h-91l-5 5h-207l-15 5l-30 -5l-25 5l-5 -5h-127l-5 -5h-126z" />
    <glyph glyph-name="uni2501" unicode="&#x2501;" horiz-adv-x="930" 
d="M369 -103l-30 20v30q104 170 134 375l-15 20h-94q-110 -25 -220 -65l-35 25v20q115 65 250 80h54l5 -5h50l55 -35l20 -35v-60q-45 -185 -130 -355zM638 352l-40 35l-45 244q20 25 50 15l30 -30v-50q20 -100 45 -194zM778 392l-30 29l-5 30v50l-45 165l30 20l45 -20
q25 -75 40 -155v-55l5 -20l-15 -39zM378 466l-19 10q-55 140 -110 275l40 15l40 -30q45 -120 89 -235q-10 -30 -40 -35z" />
    <glyph glyph-name="SF110000" unicode="&#x2502;" 
d="M499 -63q-40 20 -40 70l10 15v76l5 25l-5 5v318l5 5v96l5 5v146l-5 5v101l46 5l30 -20l5 -40l-5 -41l5 -20l-5 -35l5 -5v-81l-5 -15l5 -5v-50l-5 -5v-142l-5 -5v-50l5 -25l-5 -51l5 -15l-5 -35l5 -5v-172l-20 -55h-31z" />
    <glyph glyph-name="uni2503" unicode="&#x2503;" horiz-adv-x="925" 
d="M304 -87l-81 56q-81 131 -112 289v106q5 147 107 259l30 10q46 -10 76 -46q66 -71 76 -167v-66l5 -5v-71h16q121 127 273 167l61 -25q31 -36 25 -91q-40 -147 -167 -254q-86 -66 -167 -137zM334 -16l36 30h15l25 -5q178 107 279 279q20 41 20 86l-20 10
q-142 -71 -258 -192l-36 -46h-15l-61 36l-5 20q30 61 25 132l-5 5v55q-10 82 -50 152l-31 6q-50 -92 -66 -193v-101q31 -147 107 -274l25 -10z" />
    <glyph glyph-name="SF010000" unicode="&#x250c;" 
d="M513 -110l-36 25l-5 55q21 66 26 137v60q-15 81 -41 162l41 15l20 -5l181 30h116l61 25h55l26 -25v-25q-66 -41 -152 -41h-116l-131 -30l-5 -30l20 -101l-5 -15l5 -25l-5 -5v-56l-10 -30v-116z" />
    <glyph glyph-name="uni250F" unicode="&#x250f;" horiz-adv-x="977" 
d="M286 -93q-86 56 -158 142v72q-20 56 -25 117v86q10 174 127 296l5 5h51l31 -20q76 -102 82 -240l15 -5q91 117 214 178l71 26h61q46 -10 82 -51l20 -61q-25 -82 -86 -148l-16 -5l-10 -26h-10l-5 -15l-66 -71q-169 -153 -352 -280h-31zM332 100l21 82h-21l-15 -36l-15 -20
l10 -31h15zM241 136l66 153h-21l-30 -41h-10q-26 -51 -31 -112l20 -5zM449 146l26 15v21l25 5q0 41 16 71h-26v-30l-41 -36v-21h-20v-10l5 -20h10zM368 182l5 5l-5 10h-15v-15l10 -5zM210 299l31 25l5 61l-21 11v10h-10l-5 -15l5 -16l-15 -20v-56l5 -5zM684 309l76 107h-10
q-46 -51 -76 -112h5zM511 324l71 51l25 61h-15q-66 -45 -107 -112l20 -5zM261 421q20 20 15 51h-15v-15l-26 -5l-5 -21l26 -15zM781 436v11l5 35l-5 16l-51 10q-51 -16 -97 -36v-15l51 -10q20 25 51 20z" />
    <glyph glyph-name="SF030000" unicode="&#x2510;" 
d="M514 -110l-41 26l-5 5v87l5 5v143l-5 5v57l5 5v97l-21 10l-5 -5h-87l-5 -5h-72q-56 -5 -107 -20l-5 5h-98q-30 20 -30 56l20 15h82l5 5h51l5 6h144l61 15h77l67 -26l10 -30l-10 -36v-108l-6 -5v-66l6 -6v-81l5 -16l-5 -5v-107l-21 -26h-20z" />
    <glyph glyph-name="uni2513" unicode="&#x2513;" 
d="M367 -96q-40 10 -69 45l-20 64q15 90 54 169h-24l-5 -5h-50l-15 -5q-89 0 -139 60l-25 64l35 75q74 50 159 60h64l105 -25v15l-15 124q20 104 79 189q25 35 70 30q35 -15 50 -50l5 -15v-139l-20 -90h15q59 70 134 115l70 10l69 -45l15 -25v-69l-70 -120q55 -20 75 -74
v-30q-30 -75 -99 -134l-55 -25h-50q-84 10 -154 54q-50 -109 -134 -203zM382 -12q90 100 129 224l-10 30h-14l-40 -20q-75 -104 -95 -234l25 -5zM765 147q65 50 84 120l-59 34q-85 -79 -184 -114l-5 -15q40 -25 89 -40h50zM407 277l45 34v15q-50 40 -110 50h-54
q-70 -10 -125 -50l-14 -59l4 -15l50 -20h60q79 10 144 45zM636 326q74 25 144 55q50 60 69 129l-5 15l-39 5q-65 -30 -115 -79q-59 -65 -94 -140h15zM521 361q25 114 45 229v74l-5 20h-10q-55 -69 -69 -159v-84l24 -85h10z" />
    <glyph glyph-name="SF020000" unicode="&#x2514;" 
d="M472 334l-11 5l-30 62l5 5v62l5 5v62l5 5v51l5 5v52l-5 15l5 41l-15 78l25 25h16l41 -20l10 -36l-5 -5v-67l5 -26l-5 -5v-93l-5 -5v-51l-5 -5v-62l5 -16l15 -5h83l5 5h118l5 5h129l21 11h61l26 -11l10 -46q-20 -20 -51 -20l-31 5l-5 -5h-62l-5 5h-57l-30 -11l-16 6
l-51 -11l-16 5l-5 -5h-113z" />
    <glyph glyph-name="uni2517" unicode="&#x2517;" 
d="M311 -124v10q-40 25 -30 65l25 125l35 5l30 -15l5 -30l-15 -40v-60l-5 -50zM695 -4l-115 95l-15 60l35 10q50 -70 125 -110l15 -5l5 -20l-35 -30h-15zM436 136q-85 35 -125 120l-5 50l5 15l-5 15q0 74 60 124q75 60 170 70l34 -5q15 50 55 90l70 70h50l20 -35l-10 -20
l-80 -75h-10q-20 -30 -25 -65q35 -30 45 -70v-79q-15 -80 -80 -140l-99 -65h-70zM121 186l-35 30v25l30 10l15 -5l5 5h145l20 -15v-20l-35 -20h-50l-35 -10h-60zM496 211q74 35 104 110l15 45v49l-15 35q-25 25 -59 20q-75 -25 -135 -75q-30 -54 -30 -119l45 -65l50 -15z
M765 306l-35 30v25q105 29 200 84l30 -20v-25q-45 -44 -100 -69zM281 405q-95 10 -170 70l-5 25q15 20 45 15q80 -35 160 -80l5 -20zM391 525l-35 25l-15 60v75l-5 35l40 10l35 -30v-120l10 -40z" />
    <glyph glyph-name="SF040000" unicode="&#x2518;" 
d="M53 344l-35 40v21q35 10 76 20l20 -5l97 20h66l82 11l5 -5h87l20 15v46l-5 5v137l5 21l-5 5v112l-5 20q20 21 51 16l35 -31v-31l-5 -5v-188l-5 -41l5 -5v-66l10 -72l-20 -25h-31l-56 20h-137l-158 -30h-61z" />
    <glyph glyph-name="uni251B" unicode="&#x251b;" 
d="M249 -93l-70 35l-10 50q50 95 125 180h10l5 25l-120 70q-50 45 -45 109l30 35l60 10q95 -20 190 -45q15 165 95 305l40 5l35 -20l14 -30v-75l-49 -205h15q104 115 249 125q50 -10 90 -40l10 -45l-165 -134l-75 -45l-5 -20q50 -45 65 -105v-75l-40 -55l-50 -25h-55l-79 50
l-40 65l-20 5q-70 -90 -170 -145zM274 -18l5 5l-20 15l-5 -25h15zM584 102l10 20h-10l-15 -25h10zM559 132l-10 5v10l20 10l5 20h-10v-5h-10v-10h-20v-35h20zM603 137l-19 10v-15h14zM409 147l20 20h20l10 15v35h-20l-15 10l-5 -30h-50v-30l5 -15h10v-10h20zM529 202l5 15
h-15v-15l5 -5zM404 252v10l5 15l-35 15v-20h10v-20h20zM594 257l4 20h10v15h-10l-14 -35l5 -5z" />
    <glyph glyph-name="SF080000" unicode="&#x251c;" 
d="M488 -136l-30 31q-15 30 -15 71l10 102l-5 15l5 5v66l5 21l-5 15l5 5v158l-5 15l5 5v72l5 5v81l-5 31l5 25l-5 41l5 15l-5 6v56l-5 15l5 25l-10 51v56l51 5q40 -30 35 -76l-5 -5v-92l5 -5v-56l5 -5v-66l5 -21l-5 -5v-81l16 -16h66l46 11h51l5 5h66l66 15h56l31 -15
l10 -36l-20 -20h-77l-25 -10h-61l-6 -6h-50l-6 -5h-61l-20 -5l-15 5l-36 -5l-20 5q-21 -30 -21 -66v-61l5 -5v-87l-5 -5v-71l-5 -15l5 -36l-5 -46l5 -41l-5 -5v-56l-5 -10h-36z" />
    <glyph glyph-name="uni251D" unicode="&#x251d;" 
d="M253 -33l-30 10l-40 40v20l10 25l20 6l86 -21h141l5 5h50q116 21 207 116q46 71 71 152v70q-10 81 -61 152l-30 20v10l-106 40h-121q-101 -15 -177 -85l-30 -86v-106l30 -91q61 -50 142 -50q55 15 101 55q35 56 35 126l-20 41l-56 25l-45 -20l-25 -61q20 -40 30 -86
l-30 -10l-46 36l-25 50v71l35 55q56 40 131 35q61 -15 101 -65q36 -56 36 -126q-10 -86 -86 -147q-35 -30 -86 -40h-121q-65 20 -121 71q-66 80 -66 186l11 76l-5 20l30 81q116 116 277 121h76l15 -5l15 5q126 -20 217 -126q56 -91 61 -202v-65q-26 -101 -91 -187
q-61 -66 -141 -101l-91 -25h-56l-5 -5h-141l-5 -5h-56z" />
    <glyph glyph-name="uni2520" unicode="&#x2520;" horiz-adv-x="935" 
d="M397 -63l-5 5h-71q-75 15 -130 71q-70 95 -80 216q15 20 40 15q45 -25 90 -36h50q50 16 91 56q35 50 50 110v50l-30 61q-46 -5 -71 30l-5 25q30 30 76 30l20 -5l35 5q135 -20 236 -121q40 -65 55 -135v-95l-45 -111q-126 -156 -306 -171zM522 48q80 55 136 135l20 116
q-15 85 -71 150q-60 41 -135 51v-15q25 -46 30 -101q-5 -80 -45 -145q-35 -46 -85 -71l-96 -20l-75 10v-10q15 -65 65 -115l65 -30h51q75 10 140 45z" />
    <glyph glyph-name="uni2523" unicode="&#x2523;" 
d="M596 -31l-90 20v10l-114 40q-45 -30 -105 -30q-124 10 -218 94q-30 65 -30 144q10 50 55 85l54 20l10 39l-5 5v55l5 15l-5 15q10 70 60 119l60 25h64l70 -40l44 -44q55 69 135 69q64 -5 109 -49l30 -40h20l35 15l29 -5l15 5q45 -5 80 -45q40 -45 45 -104v-50l5 -25
q-5 -55 -30 -99h49l20 -30q-49 -55 -119 -70h-70l-14 5q-10 -45 -30 -79l-15 -5l-5 -15l-100 -50l-34 5zM680 58l35 70l-25 55q20 15 45 10l64 -10q55 30 75 89l10 25v90l-30 79l-50 10l-74 -45l-30 -44l-30 -5l-30 24v30q25 30 20 70l-30 35l-49 10q-70 -40 -115 -105
l-19 -59l-20 -5l-40 19l-5 40l10 60l-30 50q-25 19 -65 14l-44 -29q-25 -35 -30 -80v-99q30 -60 64 -115l-19 -24h-15l-25 9l-30 50l-40 10l-40 -45l-5 -49l35 -85q65 -40 144 -40l55 20l35 90l40 5l29 -20v-25l-9 -50l39 -35q55 -24 120 -24z" />
    <glyph glyph-name="SF090000" unicode="&#x2524;" 
d="M489 -140l-41 31v61l5 5v81l5 5v116l5 5v112l5 30l-15 16h-238l-97 -16h-60l-41 26l-10 30l41 20l5 -5h86l5 5h71l51 11h162l25 -6l15 26v304l-5 46l5 5v50l-5 46h51l35 -35v-16l-10 -35l5 -15l-5 -16l5 -5v-91l5 -5v-61l-5 -15l5 -5v-86l-5 -5v-87l21 -50l-21 -56l5 -25
l-5 -26l5 -20l-5 -5v-91l-5 -5v-81l-10 -31l5 -5v-86q0 -25 -20 -41z" />
    <glyph glyph-name="uni2525" unicode="&#x2525;" horiz-adv-x="702" 
d="M318 30q-51 10 -88 52q-36 41 -51 93v93q56 176 129 341l41 11l78 -21v-31l-5 -21q88 -145 93 -326q-11 -88 -67 -160l-73 -31h-57zM375 113q41 46 47 108v78q-6 103 -52 191l-16 5q-67 -134 -98 -279q0 -62 47 -103l57 -11z" />
    <glyph glyph-name="uni2528" unicode="&#x2528;" horiz-adv-x="995" 
d="M633 78q-42 29 -42 79l145 272l43 12l42 -19l6 -42q-85 -139 -145 -291zM173 84l-36 17l-24 56l200 326q30 18 73 12l30 -30v-18q-133 -170 -213 -358zM416 113l-48 50v24q60 145 163 278l24 18h60l25 -18v-30q-61 -43 -91 -109q-61 -97 -97 -207z" />
    <glyph glyph-name="uni252B" unicode="&#x252b;" 
d="M451 -123q-116 0 -207 56q-50 45 -80 106l-6 45q16 86 66 162l-101 116l-5 25l-15 5l-5 30l35 5l141 -156h16l5 20q-51 50 -66 116v71l20 40l106 61l10 25v141l10 25l61 15h76l95 10l26 -20v-35l-10 -15v-71l-6 -5v-60q61 -51 91 -121l10 -61l-40 -91h25q61 96 136 187
l31 10q25 -20 15 -50l-5 -11l-20 -15q-51 -70 -91 -146q50 -25 75 -71l16 -121q-5 -40 -36 -70q-131 -126 -302 -152h-71zM663 -7q76 36 126 111v51l-20 70q-46 26 -96 41h-56q-70 -61 -166 -61l-96 31l-81 -61q-40 -55 -40 -126l30 -51q71 -60 162 -65h60q96 15 177 60z
M532 291l20 30l55 26l46 100l-30 61q-36 -5 -61 15l-30 45h-20q-111 -25 -202 -90l-10 -21v-65q10 -56 60 -91q51 -30 106 -40zM766 522l-56 40l-5 5v66l26 30l80 15l25 -10q31 -35 26 -86l-66 -60h-30zM786 577l20 41q-20 15 -45 10l-5 -46l25 -10zM121 597l-40 40v45
q10 41 40 66l36 15h50l55 -35l16 -46l-26 -45l-75 -40h-56zM542 619l15 71l-10 40h-30l-16 -5l-15 5l-45 -15l-15 -91l5 -15h20l25 10h56l5 -5zM202 657v10q20 15 15 41l-25 10l-46 -20l-15 -51l21 -10zM899 704l-51 56l-5 55l25 26h66l35 -21l21 -65l-31 -41
q-25 -15 -60 -10zM929 755v30h-25v-20z" />
    <glyph glyph-name="SF060000" unicode="&#x252c;" 
d="M537 -144l-51 25l-10 51l5 5v96l5 5v107l-5 5v112l-5 5v50l-15 26l-6 5h-76l-45 -5l-97 15h-50l-15 -5l-21 5l-5 -5h-96l-31 35v26l11 10h213l45 -10h375l5 5h213l76 10l31 -20v-31q-31 -30 -71 -30l-15 5l-6 -5h-172l-30 -5l-16 5l-40 -5l-5 5h-71q-25 -21 -15 -51l5 -5
v-66l10 -46v-162l-5 -25l5 -5v-102z" />
    <glyph glyph-name="uni252F" unicode="&#x252f;" horiz-adv-x="972" 
d="M391 -68q-86 5 -142 71q-26 25 -31 61v102q31 66 87 117l56 31h66q81 -21 148 -87q45 -56 45 -132q-15 -67 -71 -112q-71 -46 -158 -51zM412 -2l-112 46v-16q40 -40 96 -40zM325 125q15 61 51 112h-10q-61 -40 -56 -107l10 -10zM417 130l5 11l20 5l10 46l-35 10l-31 -67
l26 -10zM702 212l-66 51l-10 71q15 41 56 61h20q66 -10 117 -66l10 -46l-15 -25q-46 -46 -112 -46zM193 293l-62 36q-25 31 -20 76q10 51 46 87l71 15q41 -5 72 -40q35 -41 30 -97q-25 -46 -71 -71l-16 -6h-50zM519 375l-46 25q-26 36 -21 87q11 36 41 61l5 5h51l61 -56
l5 -51l-15 -46q-36 -30 -81 -25zM223 395l10 46h-15q-20 -15 -15 -46l15 -5z" />
    <glyph glyph-name="uni2530" unicode="&#x2530;" 
d="M511 -28l-6 5h-76q-178 -5 -306 112q-45 56 -51 132l67 92l25 5l36 -20l10 -31q-51 -41 -46 -107q26 -61 87 -81l193 -36h117l6 5h81q112 15 209 66l25 61q-50 41 -76 102l51 11q41 -11 76 -46q36 -56 41 -128l-36 -61q-122 -56 -264 -76h-77l-15 -5l-31 5zM709 135
q-71 97 -71 224l81 168v51l-25 56l20 10q36 0 61 -25q31 -41 36 -92q-36 -102 -86 -194v-56q25 -56 30 -122q-20 -20 -46 -20zM312 165l-31 21l-20 20q-20 41 -31 87v56q46 117 72 244q-21 26 -16 56l5 5h51l31 -25l15 -71q-46 -138 -76 -281q36 -45 41 -107zM505 165
l-25 16q-36 56 -46 127q31 132 87 255q-21 30 -21 66l46 5l26 -10q35 -46 35 -107q-51 -107 -86 -224l20 -118z" />
    <glyph glyph-name="uni2533" unicode="&#x2533;" 
d="M484 -104l-25 21l-5 40l50 20q31 51 41 111v91l-5 15h-20l-31 -61h-30q-25 41 -45 81l-96 46q-61 -16 -101 -66l-15 -35l-36 -10l-35 25l-10 40v66q51 126 156 227q66 60 147 80h50l10 26l-5 25l46 5l25 -20l5 -41q166 -20 287 -161q81 -116 111 -247l-35 -10l-30 15
l-30 50l-26 5l-70 -45l-20 -61l-41 -5q-25 61 -60 111l-41 10l-5 -40l20 -81v-50q-15 -91 -80 -162q-20 -20 -51 -15zM484 249q41 41 91 51h56q50 -20 95 -56q46 41 101 46l5 25l-55 81q-86 106 -212 116l-50 -5l-6 15l-45 5q-91 -25 -161 -96q-56 -55 -76 -131h15l66 15
q96 -10 171 -71zM136 476l-35 31v50q10 121 50 232l36 5l35 -25v-15q-35 -91 -50 -192v-75zM832 497l-30 35l5 35l-10 46v55l-30 111l5 5h50q46 -76 51 -171l-5 -15l5 -21l-5 -25l5 -35q-15 -25 -41 -20zM363 608l-30 20l-10 50l5 5v56l-10 30l35 15q30 0 40 -30l6 -15v-96
l-16 -30z" />
    <glyph glyph-name="SF070000" unicode="&#x2534;" 
d="M451 286l-65 20l-5 -5h-60l-5 5h-140l-15 5l-5 -5h-55l-20 -5q-30 15 -45 45v15l15 14h195l5 -5h170l10 10v50l5 5v140l5 5v75l-5 15l5 5v165l35 10l44 -40v-30l-5 -5v-80l5 -20l-5 -45l5 -25l-10 -50v-120l-5 -30l10 -25l25 -10h55l45 5l15 -5l5 5h150l5 5h50l30 5
l15 -5l25 5l45 -34v-25q-30 -20 -70 -20l-5 5h-75l-75 -10l-5 5h-70l-50 -5l-20 5l-15 -5l-5 5h-75q-25 -20 -64 -20z" />
    <glyph glyph-name="uni2537" unicode="&#x2537;" horiz-adv-x="730" 
d="M404 -45l-112 61l-10 62l31 10l51 -26l5 -15l46 -20q35 30 30 76q-25 46 -76 71l-36 21l-20 46q10 20 40 15q56 -20 102 -56l61 -92v-61q-10 -41 -45 -76q-31 -21 -67 -16zM287 399l-56 20l-25 56l51 15q45 -25 102 -25l35 25v26q-30 51 -86 76l-41 10h-51l-31 36v26
l10 10h77q81 -26 148 -92q51 -51 45 -122q-15 -41 -56 -56l-45 -5l-5 5h-51z" />
    <glyph glyph-name="uni2538" unicode="&#x2538;" 
d="M906 279l-40 31l-15 40l15 50l55 11q41 -6 66 -41l5 -50q-35 -41 -86 -41zM94 300q-50 25 -65 75q20 20 60 20h51l20 -5l45 5l15 -5l5 5h167l50 -5l5 5h66l20 -5l5 5h71l35 -5l60 15l41 -20l10 -10v-55l-96 -15l-50 10h-76l-5 -5h-76l-5 5h-65l-21 5l-5 -5h-121l-30 5z
" />
    <glyph glyph-name="uni253B" unicode="&#x253b;" horiz-adv-x="930" 
d="M222 -91q-60 0 -100 50l-10 50q15 90 75 160l50 30h65q15 20 10 45l-5 25l10 55v64l5 5v70l20 90l30 5q70 -20 139 -40l15 5l25 -5q50 20 100 35l55 -55l-10 -30v-129q5 -105 45 -200l-5 -20l20 -10q20 -40 20 -85q-45 -65 -115 -105l-60 -10l-70 35q-29 25 -39 55v50
q29 65 89 115l65 30l5 25l-25 105v129l-5 5h-50l-60 -10l-59 15h-50q-15 -25 -15 -55v-89l-5 -5v-50l-5 -5v-70q45 -55 55 -120q-35 -65 -100 -120q-45 -40 -110 -40zM232 -26l5 15l-25 45l5 30h-15l-15 -80l40 -15zM621 -21l5 15q-30 5 -60 20v-10l10 -25l40 -5z" />
    <glyph glyph-name="SF050000" unicode="&#x253c;" 
d="M470 -121q-35 20 -35 66l5 5v141l5 5v96l5 5v76l5 45l-5 5h-111l-5 -5h-91l-5 -5h-50l-36 -10l-40 5l-41 -5l-20 15l-25 45l76 26l15 -10h55l41 10h50l5 5h182q15 25 15 50v61l5 5v106l-5 5v90l5 5v122q15 20 40 15l36 -26l5 -35l-10 -45l5 -20l-5 -16l5 -5v-50l-5 -50
l5 -51l-5 -35l5 -51l-10 -65l10 -10h222l5 5h55l101 15l35 -56l-15 -20l-30 -5h-51l-25 -5l-15 5l-40 -10h-101l-30 -5l-5 5h-66l-25 5l-25 -15l-11 -35v-51l6 -25l-11 -50v-71l-5 -5v-146l5 -16q-10 -35 -50 -35z" />
    <glyph glyph-name="uni253F" unicode="&#x253f;" horiz-adv-x="947" 
d="M575 -68q-30 20 -25 66q66 50 111 116q-86 45 -131 126v45l40 126l-30 10h-56q-70 16 -136 41q-20 30 -20 75l10 61l-20 5q-66 -40 -146 -45l-41 30l-20 91l5 5h51l25 -25l5 -16h20q81 46 172 56l30 -25l5 -26l-5 -15l5 -15l-5 -5v-50l-10 -36q86 -45 181 -50l21 5
q35 0 55 -25l5 -41q-30 -80 -50 -166l25 -40l81 -61l30 -65q-66 -56 -96 -132z" />
    <glyph glyph-name="uni2542" unicode="&#x2542;" 
d="M167 -115l-59 28l-40 67l-27 13l-17 75v49l-5 36l5 14l-5 3v112l-4 14l4 4v45l-4 14l4 12l-4 14l4 18l-4 40l4 14l-4 12l4 5v131l9 44v102l8 37l41 35l13 18l49 4l40 -8l37 4l4 -4h67l14 4l4 -4h62l13 -5l14 5l23 -5l22 5l23 -10l85 14l4 -4h80l31 8l4 -4h59l4 -4h108
q35 -14 75 -19l41 5l8 -5q5 -44 33 -80v-44l-5 -28l9 -26v-49l4 -5v-117l4 -5v-98l5 -40l-17 -110l4 -19l-18 -84l9 -41v-49l5 -30l-28 -67l-45 -22h-103l-13 -9h-98l-4 -5h-91l-2 5h-54l-5 -5h-77l-5 5h-115l-32 -10h-155zM908 -25l18 35v79l-9 64l28 173v112l-5 5v75l-5 5
v58l-4 14l4 31q-4 72 -36 130l-116 18l-4 -5h-72l-45 9l-76 -9l-14 5l-12 -5l-23 5l-30 -10l-28 5l-5 -5h-94l-4 5h-50l-4 5h-134l-40 9l-35 -23l-19 -66v-49l-9 -33v-66l-4 -23l4 -13l-4 -4v-210l4 -24l-4 -4v-120l4 -23l-4 -22q4 -80 63 -136l31 -23h58l28 4l4 -4h45l44 9
l13 -5l4 5h68l4 -5h202l13 -4l49 9h76l40 9h63zM528 -2l-17 8q-37 97 -58 200q12 17 35 13l35 -27l19 -93l18 -5l36 5l4 -31l-40 -62zM793 63l-28 26q-9 85 -40 162q18 14 40 9q32 -18 40 -49q13 -58 32 -117l-23 -31h-21zM220 246l-32 19l-13 26v44l-4 5v59l-4 4v49l35 9
l26 -27v-21l-4 -19l4 -5v-58l23 -59zM331 305l-26 21v19q35 30 54 75q17 41 17 90q-17 13 -40 8q-31 -30 -75 -35l-28 45q68 58 117 133v14h-45l-85 -30h-45l-17 39q44 26 98 36h58l36 4q44 -4 75 -30l4 -33l-49 -66h-9v-18q33 -10 54 -35l9 -14v-76q-17 -72 -58 -131z
M533 335q-22 28 -19 68l14 35v45l-9 40l37 14l26 -23l4 -36l-4 -26l4 -32q-4 -40 -18 -80z" />
    <glyph glyph-name="uni254B" unicode="&#x254b;" horiz-adv-x="890" 
d="M441 -130l-127 59l-9 27q46 32 100 41h81l5 18l-18 50l-41 4l-4 -4h-77q-96 4 -168 77q-68 59 -68 150q9 90 59 163q72 27 149 49l5 14q-14 32 -18 68v104l41 91q72 59 158 77h50l68 -32q63 -95 72 -208q-126 -114 -285 -145l-5 -23l19 -27h58q82 -18 141 -91
q27 -40 41 -86v-68q-14 -50 -59 -81l-73 -23l-4 -14l18 -58v-59q-9 -32 -36 -55q-32 -18 -73 -18zM455 119l4 5l-18 50q-63 0 -104 50q-32 27 -27 68q36 54 63 113l-22 36l-23 5q-64 -14 -113 -50l-37 -100v-63q18 -50 64 -86q45 -28 95 -37h104zM573 142q45 41 40 104
l-27 68q-50 55 -122 59l-14 -23l64 -222l22 -4zM428 219v23l-19 72h-13l-23 -59l32 -36h23zM586 604l50 41v27l-32 95l-9 5l-9 22l-50 10q-72 -19 -127 -73q-31 -41 -40 -95l4 -5v-77l14 -27l22 -4z" />
    <glyph glyph-name="filledbox" unicode="&#x25a0;" horiz-adv-x="842" 
d="M687 -20l-21 15l-5 47h-72l-6 -5h-213l-26 -5l-21 5l-5 -5h-62l-42 -6l-5 6h-67q-32 26 -32 62l6 26l-6 5v57l-10 63l5 15l-5 5v99l-5 5v177l-5 5v52l-6 42l42 5q31 -31 73 -36l5 5h52l5 5h52l57 10l5 -5h89l5 5h73l5 -5h88l16 -5l36 5l37 -31v-21l-6 -5v-62l6 -5v-141
l10 -10v-52l5 -5v-63l11 -36v-192q-21 -32 -63 -26zM479 94l6 16l-63 5l-5 -16q26 -15 57 -10zM339 135q21 21 57 16v16h21l5 36l21 16l5 15h37l15 -5l5 42h-10l-16 -6v-10h-15l-5 10l15 6l5 15h16v21h10l6 -16l-6 -15h26v15h-10v11l5 10l42 21v10l10 11l-73 10l16 31h5
l26 -5l21 16l21 5v16l-21 31l-16 5l-15 -21h-11v-10l-36 -11l-47 -10l-5 -16h26l26 6v-6l-5 -10h-31l-32 5v-5h-5l-10 31h-16q5 -31 -10 -52h62l16 5v-15l-68 -78l31 -5v-11h-5v-10l5 -21h-10v-10l-47 -16v-10l-36 -6v-15l-31 -16l-6 -26h37zM651 130v42h-10l-16 -26l5 -16
h21zM526 135v21l16 5l10 32l-5 10h5v-10h11l36 57h5l26 57h-26l-15 -5v-11h5v-5l-31 -15v-21h10v-16h-10v11h-11l-31 -32l-16 -46l-20 -11v-10zM620 167v5l-5 10h-21v-10l21 -11zM635 182l6 16h-11l-5 -11h-5v-10h10zM469 203l5 5l-21 16l-5 -26h16zM214 203v10l26 11v41
h-15l-26 -62h15zM396 234l11 31l-16 6l-16 -42h16zM635 239l6 16h-16l-10 -21h15zM271 255l11 16l26 5l5 21h5l5 -42h21l16 5l15 37h11v10l-11 21l-20 5l-21 -26h-5l-6 16h16l5 20l21 6l16 36l-21 5l-5 -15l-32 -11v11h-10l-16 -6l-10 21l10 26h-15l-16 -5v-10l-26 -11
l-5 11h-10l-6 -16l11 -31l-5 -16l15 -5l11 5l10 26l16 5l5 -20l-5 -32h-11v-20l-15 -11v-15l15 -21zM578 281v16h-10l-5 -16h15zM412 307v16l-21 5l-5 -16zM214 328v15h-15v-15h15zM344 375v15l31 63h6v-6h10l5 -15l16 -5l10 5v-21h11l15 5v16h37v10l-32 52l11 16l-21 5
l-10 -47h5v-5l-21 -10l-5 41l21 11v20h-16l-21 -10v-16h-5l-16 11l-10 -21h10v-10l-26 -21l-10 -26l-16 -5l-10 -37l5 -15h26zM256 411q26 16 57 10v16h-21v16l21 36h-16v-10l-46 -11v-15l5 -11l-21 -5v-16l16 -15zM339 453l5 5l-21 5v-16h11zM615 473l5 16h-11l-10 26
l-36 5v-10l5 -16l-5 -21h10l26 6l10 -11zM240 489v10h-10v-10l5 -5zM308 489v10l21 11l5 15l-31 6l-26 -26h-11v-21h21zM214 510v10h-10v-10l5 -5zM547 567l5 5l-21 5v-10l11 -5z" />
    <glyph glyph-name="H22073" unicode="&#x25a1;" horiz-adv-x="835" 
d="M684 -32l-42 31l-16 31l-5 6h-88l-16 -6l-20 6l-6 -6h-72l-6 -5h-62l-5 -5h-73l-5 -5h-52l-52 -5l-42 46l-15 63v104l-5 5v78l5 5v114l15 99v94q11 20 42 15l67 -31l6 5h88l5 -5h68l5 -5h62l6 -5h145l16 5l88 -36l10 -42l-15 -42v-67l-5 -37l5 -5v-52l5 -5v-156l5 -5v-68
l5 -5v-88l-15 -21h-31zM642 93l5 5v104l-5 5v104l-5 5v198l-26 21h-135l-47 10h-104l-52 5l-78 -26l-16 -73v-57l-5 -5v-146l5 -20l-5 -16l26 -125l5 -5h68l5 5h57l6 6h78l5 5h156l5 -5h52z" />
    <glyph glyph-name="triagup" unicode="&#x25b2;" horiz-adv-x="885" 
d="M161 -21l-47 26l-15 52q159 308 324 617l26 5l41 -20l5 -5v-57q124 -298 309 -566q-36 -41 -88 -36l-66 15l-16 -5l-5 5h-108l-5 -5h-119l-5 5h-82l-5 -5h-57q-41 -15 -87 -26zM603 113l11 41l-21 11v10h-16l-25 -5l-26 10v-10h-21l-10 5v15l5 26h21v10q-21 16 -52 11
l-10 -31h-10l-16 26l11 25l-31 6l-21 -6v47h-5v10l31 5v10h-26v31h-20l-21 -77l16 -5v10h5v-20l-11 -31l-15 -5v-57h-10v-15h20l11 20l36 10l15 -25h10l5 15l-15 31h5l10 -15l16 -6l10 -41l-5 -15l10 -21h26l26 11v10h10l15 20l6 -25l-6 -16l57 -5zM536 118l5 16l-15 5v-21
l5 -5zM330 129v10l-10 26l-20 5l-26 -46l31 -6zM449 134v10h-16v-10l11 -5zM552 201v15h-16v-10l11 -10zM382 232v10h31l5 -10h-36zM500 242v21l-20 10v-21zM449 268v10q15 10 10 31l-15 5v-10l-16 -11v-25h21zM490 319l5 5l-15 36h-16l-10 -31l31 -15zM413 371v20h-5
l-16 -20h21z" />
    <glyph glyph-name="uni25B3" unicode="&#x25b3;" horiz-adv-x="960" 
d="M800 -28l-37 10h-63l-52 11h-63l-58 10h-110l-42 5l-16 -5l-5 5h-184l-37 -15l-31 26v37q157 309 341 603l47 11q158 -305 357 -599l21 -36l-16 -37zM774 50v21q-163 231 -289 478l-21 5q-142 -231 -247 -472l58 -11l16 6l36 -6l37 6l58 -11l16 5l5 -5h79l57 -10h63l6 -6
h63l47 -5z" />
    <glyph glyph-name="triagdn" unicode="&#x25bc;" horiz-adv-x="895" 
d="M432 -30l-26 10q-176 264 -305 548v57q10 21 41 16l47 -5l31 10h67l5 5h52l16 5l5 -5h57l5 5h52l5 -5h98l5 -5h166l46 -36v-21l-46 -16q-150 -274 -290 -558zM401 187q21 31 21 67h-11l-10 -5v16h-31l-5 -52l31 -31zM437 265v15l-15 5v-20h15zM401 275v10h10v21l42 10v16
l-5 15l5 11l15 15l16 21h-16l-15 -5v26l5 10h15v10l-20 5l-16 -20h-10v-11l5 -10v5h-21v-20h-10v20l-26 16l-5 26h-16l-15 -37l-21 -5l-15 5v-10q26 -62 62 -119zM499 321v11l11 26l15 5l21 57h-11q-41 -42 -46 -99l5 -5zM504 394l-20 10v-15h15zM416 415v20h-15v-20h15z
M551 425v15l-21 11v-11l16 -20zM313 440l5 37h-10l-21 20v11h-26v10h-15v-21l15 -5l21 -52l26 -5zM344 440l5 16l-10 52h-21l-5 -31l10 -6l16 -36zM489 456l-26 5v-10h21zM411 466v5l31 6l6 25l-32 11l-15 -47l5 -5zM582 502l-26 6v-16h10z" />
    <glyph glyph-name="uni25BD" unicode="&#x25bd;" horiz-adv-x="877" 
d="M439 -81q-26 21 -26 57l5 32l-84 99q-94 141 -177 292h-11q-47 63 -47 141l26 6l37 -6l5 6h94l5 5h199l36 5l6 -5h94l47 -5l5 5h57l79 -31l5 -32l-26 -16q-162 -266 -287 -548zM460 70q99 204 203 402l-26 11h-89l-20 5l-6 -5h-303l-26 -21q110 -209 261 -397z" />
    <glyph glyph-name="uni25C6" unicode="&#x25c6;" horiz-adv-x="1000" 
d="M425 -100v5q-56 82 -118 164l-15 5q-92 118 -189 230v26l322 384l31 5l41 -26l194 -215v-10l21 -10l87 -77l51 5l26 -20v-16l-52 -41q-35 -56 -92 -107q-97 -77 -184 -179l-10 -16q-36 -46 -57 -102l-5 -5h-51zM400 105l5 15l51 20v21l15 5v15h31l10 31l21 10v-5h15v11
l-15 40l35 21l6 10h20l15 -10l16 36h-10v10h10l15 -5l10 20l-20 21q-10 -21 -41 -15l-15 -11v5h-11v11h-10l-10 -16h-15l-16 -51h16l20 21v-16l-46 -15l-36 -36v-15l-26 -5v-41l-25 -31l-51 -46v-16h20zM528 176v16h-11l-15 -5v-11h26zM389 202l5 10l16 10l5 41h5l26 -10v10
l-11 21q26 5 52 15v16h-11l-5 30l21 5v16h10v-21h20v11l21 25l-10 10h-57v-10q-30 0 -36 -25h-10v-26h-10v-15l5 -16l-20 -5v10h-16v-10l5 -15l-15 -41l-20 -5l-11 -26h-10v-20h10zM574 233l5 20h-16l-15 10v-20l5 -15h15zM599 274l5 15h-20v-21h10zM338 289v20h-15v-20h15z
M384 315l31 15v10h10v16l-5 15l15 5v10l-25 5l-26 -15l-25 5q0 -25 -16 -46l5 -20l31 -6zM343 356l10 20h11v10l-21 5l-46 -10v-25h10l21 10l10 -16zM589 386v21h-10l-11 -5v-16h21zM487 391v11h30v10l-30 10v-5l-26 -5l-5 -16zM440 407l-5 20l5 10h11v16h-11l-10 -16h-15
v-25l20 -10zM568 402v20h-15l-10 -20h25zM461 417l5 5l-20 10v-20h10zM497 427l20 5v11h31v15l-41 10l-26 -10l-10 -31l21 -5zM389 432l5 11h11l15 -6l15 21h26l10 26l21 5v25l-36 10q-26 -15 -21 -40q-25 -26 -61 -26v-31h10zM553 468v21h-10l-5 -16zM389 478l5 6h-25v-11
h15zM512 473v16h-10l-5 -16h15z" />
    <glyph glyph-name="uni25C7" unicode="&#x25c7;" horiz-adv-x="970" 
d="M420 -110q-180 200 -314 432q150 196 330 376q36 15 72 36l46 -26q26 -57 67 -103q98 -144 201 -283l41 -26v-25l-93 -57l-15 -26q-170 -139 -319 -298h-16zM431 -7q159 144 324 288v15q-119 165 -237 335v10h-31l-128 -118q-98 -103 -160 -227q36 -72 93 -128
q51 -93 118 -175l15 -6z" />
    <glyph glyph-name="circle" unicode="&#x25cb;" horiz-adv-x="897" 
d="M422 -49q-142 21 -252 126q-68 94 -74 210l6 5v63q15 136 115 241l53 53h10l42 58q42 26 95 21q152 -32 278 -126q105 -132 115 -305q-10 -136 -94 -241q-100 -79 -226 -105h-68zM606 71q68 37 94 100q32 89 42 184l-5 16l5 15q-21 111 -100 200q-110 52 -231 73l-68 -31
v-11h-10l-6 -15l-47 -32q-110 -121 -115 -283v-53q15 -79 73 -147q68 -52 158 -68h63z" />
    <glyph glyph-name="uni25CE" unicode="&#x25ce;" horiz-adv-x="972" 
d="M414 -51l-5 5h-57q-103 16 -181 93q-46 52 -62 119v57l-5 16l5 5v52q26 165 155 289q83 83 187 104q217 -16 367 -192q36 -57 57 -124v-165l-36 -99l-21 -15l-5 -16q-176 -119 -399 -129zM694 89q72 31 98 103l5 26v134q-5 94 -83 161q-82 72 -181 103h-57l-62 -31
q-20 -36 -72 -31l-36 -26q-88 -108 -124 -243v-114q15 -56 51 -108q62 -36 135 -52h93q124 21 233 78zM425 151q-47 5 -83 46l-26 68q16 82 88 144q41 37 93 37l47 -16q51 -83 72 -176q-41 -67 -108 -93zM487 228l52 47v26l-47 57h-26l-26 -11q-31 -51 -41 -113l5 -16l47 -5
z" />
    <glyph glyph-name="H18533" unicode="&#x25cf;" horiz-adv-x="872" 
d="M383 -36q-73 5 -129 46q-93 108 -155 232v82q47 139 160 247q72 72 170 88q180 -11 303 -155q31 -97 57 -195v-83q-10 -77 -57 -138q-128 -103 -288 -124h-61zM367 72l16 5v11q-16 25 -42 20l-25 -10l-21 5l-5 -15q31 -21 72 -21zM429 93v15h-10l-6 -15h16zM563 144v10
l10 21l36 15l5 21h-10l-16 -5v15l-72 36v11h-20v31l5 15l-16 41l36 67l-25 10q-36 -20 -31 -56l-26 -5v-21l5 -36l-25 -5l-16 5v-10l31 -11v-25l21 -5v-11l-16 -5l-5 -21h10v6h11l10 -26q-16 -21 -16 -52l78 -10l20 5zM269 201q26 51 41 108q-25 0 -46 15l-10 -36l-21 -5
l-5 -67l16 -20h20zM506 206l-21 10v21h11zM686 206l5 20h-20v-15l10 -10zM619 257v11l-10 41h10v15q0 31 -26 36v57h-10l-26 31h-15v-26q15 -46 15 -98h-10v-15h16l5 -52h51zM331 335l31 10q-5 26 10 46h16v21l20 5v10l-31 16l-10 -31l-31 -5l-15 -78h5zM419 443l5 5l-26 10
v-10l15 -11zM660 453l-20 10v-15h15zM449 510l6 15l46 5v16l-31 5l-26 -11l-15 -36h15z" />
    <glyph glyph-name="uni25EF" unicode="&#x25ef;" horiz-adv-x="860" 
d="M397 -42q-127 10 -214 112q-61 87 -76 194v91q66 168 158 326l107 26q152 -5 265 -112q86 -97 122 -214v-92l-5 -5v-97q-51 -127 -179 -188q-86 -26 -178 -41zM601 90v11q51 61 81 127v97l5 5v51q-35 97 -101 183q-62 56 -138 77h-66q-102 -67 -148 -174
q-51 -86 -56 -193q5 -107 76 -189q62 -66 148 -66q107 20 199 71z" />
    <glyph glyph-name="uni2605" unicode="&#x2605;" 
d="M296 -87l-31 51l5 26q-10 159 -119 278l-51 56v16l15 20q119 31 232 72l113 206l52 5q92 -92 139 -206l5 -5h98l5 5h123l26 11l46 -26l5 -31q-97 -98 -169 -211v-20l15 -57v-72l-21 -52l-5 -5h-51q-93 93 -221 93l-42 -21l-15 -25q-72 -67 -154 -108zM651 93l5 5l-36 15
v-15l25 -10zM491 149l46 36l6 31h-11l-15 -5l-26 10l-26 -72l21 -5zM527 144v10l-20 6v-11zM429 149v21h-25l-11 -21l21 -5zM651 160l10 25l-5 21h5l20 -5v25l21 6v10l-5 31l-46 10l-36 -72l10 -26h15v-10l-5 -15l10 -6zM455 175l10 26h-25v5h-11l-20 -31l41 -5zM481 211
l5 15l-15 6l-11 -26h16zM573 226v21h-30l-11 -21h41zM285 237v20h-10l-10 -20h20zM522 237v20l26 62l15 5l10 41h-10v21h-10l-10 -31h-6l-5 36l-20 5v11h-11l-25 -129l20 -21v-20h26zM378 247l20 16v15l-20 5l-16 -31h-10v-10h21zM419 252v16h-15v-16h15zM326 273l21 41
l-41 5l-16 -41l31 -10zM733 283l15 57h-36l-31 -31v-16l47 -15zM404 293v11l5 15l-21 10l-5 -36h21zM491 371v20l-15 5v-25h15zM548 494v10l-16 6l-5 -16h21z" />
    <glyph glyph-name="uni2606" unicode="&#x2606;" 
d="M277 -44l-36 31l-6 48v120l6 6v57l-11 27l-21 10l-115 131v32l42 10h78l95 21l10 32h11q79 110 152 220l21 6l42 -11q68 -100 95 -210q26 -21 68 -16l173 32l26 -21l11 -79q-68 -115 -152 -220l26 -116v-52l5 -37q-26 -32 -79 -21q-120 68 -236 152q-105 -58 -184 -152
h-21zM724 24v11l5 26q-32 89 -37 184l79 63q58 52 68 120l-26 6q-63 -21 -137 -27q-52 0 -94 32q-21 89 -58 173h-10q-95 -89 -132 -205q-89 -26 -183 -42v-10l120 -137l-15 -42v-52l-6 -21l6 -32h15q74 79 168 100q111 -89 237 -147z" />
    <glyph glyph-name="female" unicode="&#x2640;" horiz-adv-x="817" 
d="M410 -87l-35 26l-16 82l5 36l-30 5l-169 -56q-36 20 -36 56q123 46 251 77l20 77q-25 15 -56 10l-21 -5q-107 20 -184 107q-46 72 -41 159q21 102 118 174q61 56 148 51l26 -5l26 5l5 -5h92q92 -10 159 -77q30 -51 30 -112v-82q-10 -52 -51 -87q-77 -57 -164 -98l-25 -92
h35l118 31h57l30 5l26 -15l5 -36q-143 -36 -287 -62q-15 -41 -15 -92l10 -61zM518 349q77 30 118 107l5 41l-5 5v57l-16 51q-41 30 -92 36h-97q-128 5 -215 -93q-41 -61 -46 -133l46 -87q56 -46 133 -51z" />
    <glyph glyph-name="male" unicode="&#x2642;" horiz-adv-x="875" 
d="M296 -62q-91 10 -158 86q-30 46 -40 102v76q15 133 107 230l117 66h56l5 5h71l46 -10q51 66 87 137h-21l-61 -15l-36 26l-5 40l16 11h56q102 30 209 40l40 -15l16 -31l-16 -66v-56l-30 -132l-31 -5q-35 25 -25 66l20 142h-15q-51 -35 -87 -91l-51 -102q82 -66 82 -168
v-87q5 -97 -61 -163q-82 -66 -179 -86h-112zM480 39q61 31 91 87l5 31v51l6 20l-6 15l6 5v61l-31 72l-15 5l-31 -5l-36 25l6 26l-46 15q-87 -31 -174 -71q-76 -82 -86 -194v-66l41 -87l86 -30h87z" />
    <glyph glyph-name="musicalnote" unicode="&#x266a;" horiz-adv-x="907" 
d="M215 -93q-57 5 -99 52l-16 31v52q42 83 115 156q41 36 88 52h78l57 260q-36 26 -31 67l31 6l16 -6l15 37l32 5l31 -16l10 -41q141 -21 250 -109l31 -68q-16 -88 -94 -151l-31 -31h-10l-16 -21l-78 -36l-26 21v31q115 73 182 187v26q-104 68 -229 83q-57 -151 -78 -317
q42 -47 58 -109v-57q-89 -73 -198 -104h-88zM256 -36v10q-46 21 -88 52v-36q36 -31 83 -31zM303 78l36 11v15l-36 6l-10 -32l5 -5zM365 120l-26 5v-10h21z" />
    <glyph glyph-name="uni266D" unicode="&#x266d;" horiz-adv-x="595" 
d="M136 -64l-32 32v26q48 184 69 378v215l36 16l42 -37v-37l-5 -5v-84l-16 -121l27 -5q78 53 173 58l47 -32l11 -15v-79q-37 -126 -142 -221q-89 -84 -210 -89zM241 36l52 31q105 100 126 237h-26l-142 -79q-57 -58 -57 -142v-58l15 -5z" />
    <glyph glyph-name="uni266F" unicode="&#x266f;" horiz-adv-x="747" 
d="M453 -50q-31 11 -36 42l10 36v57l16 72v57l-16 5l-139 -57l-16 -41v-62l10 -36l-31 -42h-20l-36 36v16l10 88l-21 5l-41 -21l-42 26l-5 26q57 42 124 52l11 31l-5 31l15 114l-36 10l-47 -21l-41 42v15q52 21 109 42l5 51l-11 57l21 11q31 0 52 -26l10 -31l-5 -37l21 -10
l170 36l11 16v72q15 21 46 16l36 -42l-5 -51l36 -26v-31l-51 -31l-16 -119l26 -11l47 11l36 -26v-21q-47 -31 -109 -31q-41 -83 -46 -176v-77l-16 -36zM458 292l26 98v52q-26 15 -57 10l-119 -31l-5 -5v-135l-5 -26l31 -5z" />
    <glyph glyph-name="uni3001" unicode="&#x3001;" horiz-adv-x="802" 
d="M337 -47l-46 20l-109 223q21 15 52 10q51 -46 72 -124q47 -52 67 -114q-10 -20 -36 -15z" />
    <glyph glyph-name="uni3002" unicode="&#x3002;" horiz-adv-x="950" 
d="M274 -113l-21 5q-21 26 -26 57q-72 10 -119 77l-5 16q5 134 104 232q46 47 103 62h57q41 -10 77 -46q32 -41 42 -88v-52q-57 -139 -176 -258zM300 0v11q88 82 113 191l-36 62l-41 5l-57 -26q-88 -88 -93 -212q21 -31 57 -36l15 5l26 -5z" />
    <glyph glyph-name="uni3003" unicode="&#x3003;" horiz-adv-x="650" 
d="M394 131q-36 26 -26 78q52 103 93 212l42 5l36 -31v-31l-109 -222zM146 157l-36 26l-5 41q46 109 82 218l42 10q26 -5 36 -31v-26q-52 -109 -78 -222z" />
    <glyph glyph-name="uni3005" unicode="&#x3005;" horiz-adv-x="740" 
d="M569 -46q-130 98 -264 191l-5 26l15 20h36l57 -31q62 130 114 264l-62 5l-47 -10h-67q-98 -129 -150 -279l-36 -5l-36 25v42q77 155 160 305l41 10l57 -31l6 5h108l5 -5h68l46 -26l5 -36l-36 -103l-36 -47l-67 -165q67 -47 119 -99l10 -41q-16 -21 -41 -15z" />
    <glyph glyph-name="uni3006" unicode="&#x3006;" horiz-adv-x="692" 
d="M182 -82l-36 36l-31 109v52l-16 62v124q11 41 31 72l26 5q114 -20 207 -93q104 155 160 336l52 6q26 -26 21 -68q-78 -181 -176 -346l47 -62l15 -5q52 -88 124 -150l-26 -42h-26l-165 197h-16q-82 -114 -155 -228zM203 42q67 93 119 186q-57 52 -130 68q-20 -26 -25 -62
v-52l10 -42v-62l21 -41z" />
    <glyph glyph-name="uni3007" unicode="&#x3007;" horiz-adv-x="845" 
d="M402 8l-38 8h-43q-82 34 -146 107q-52 61 -70 139v50l-8 46q21 136 111 244q65 47 137 80l14 -15h36l4 4h53q95 -26 167 -89q82 -69 120 -164l13 -105l-5 -20l6 -15l-6 -6v-48l-29 -86l-73 -74q-78 -48 -174 -56l-11 4l-18 -4l-23 4zM536 102l69 38q53 46 64 111v71l5 36
q-14 100 -98 174q-58 57 -131 68l-2 -3h-65q-52 -9 -95 -41q-86 -105 -107 -237l8 -13v-46q21 -77 90 -137q32 -30 70 -41h112l12 -4z" />
    <glyph glyph-name="uni3008" unicode="&#x3008;" horiz-adv-x="600" 
d="M466 -69q-145 192 -274 393v42q134 150 227 325l26 68l36 5l26 -10l16 -37q-114 -201 -238 -398q93 -160 202 -315l31 -21v-31q-16 -26 -52 -21z" />
    <glyph glyph-name="uni3009" unicode="&#x3009;" horiz-adv-x="602" 
d="M156 -93l-31 16l-5 15q92 194 205 379q-133 189 -215 399l5 5h51q41 -51 56 -107h11q66 -179 184 -338q-138 -164 -220 -353z" />
    <glyph glyph-name="uni300A" unicode="&#x300a;" horiz-adv-x="900" 
d="M518 -100q-180 247 -303 520q133 134 231 288l26 72l36 5l26 -10l15 -31l-201 -283l-15 -5l-31 -67q113 -247 278 -474q-26 -25 -62 -15zM755 -69l-62 46q-93 170 -211 330l-77 87v31l108 103h10q72 108 165 211l62 15l15 -31q-56 -77 -123 -154l-16 -5
q-67 -88 -128 -175q61 -57 102 -124q62 -77 98 -169l16 -6q46 -67 77 -144z" />
    <glyph glyph-name="uni300B" unicode="&#x300b;" horiz-adv-x="902" 
d="M224 -103l-37 31v16q94 238 192 476l-160 155q-57 52 -88 119q20 26 51 15l93 -93l99 -119l93 -77l5 -36q-114 -213 -181 -445q-31 -31 -67 -42zM425 -87q-20 15 -20 46q82 244 196 471q-129 160 -274 295v31q21 15 47 10l46 -46v-11l78 -67l93 -103q57 -73 114 -135
q-145 -217 -218 -470q-25 -21 -62 -21z" />
    <glyph glyph-name="uni300C" unicode="&#x300c;" horiz-adv-x="700" 
d="M375 212l-46 41v41l10 26v103l5 5v113q-15 87 -61 159l36 16l72 -10q103 30 216 51l31 -21v-30l-16 -11h-51q-83 -36 -175 -41v-31q20 -46 25 -103v-82l-5 -5v-98l-5 -51l10 -36l-20 -36h-26z" />
    <glyph glyph-name="uni300D" unicode="&#x300d;" horiz-adv-x="702" 
d="M150 -58q-36 16 -46 57l36 26h52l139 31l5 15q-41 77 -47 165v118l21 103l21 5l46 -31l5 -26l-15 -36v-51l-6 -5v-77q11 -129 67 -237l-10 -16h-36l-5 6h-57q-82 -26 -170 -47z" />
    <glyph glyph-name="uni300E" unicode="&#x300e;" horiz-adv-x="700" 
d="M201 327l-35 36v21q51 148 71 312l-15 77l41 10l25 -10h72l190 30q30 -25 46 -61l5 -26l-5 -15l51 -133l-10 -21h-108l-82 16l-10 -41q10 -82 51 -154q-25 -15 -56 -10l-5 5h-72q-77 -15 -154 -36zM396 419v31l-20 51v82l-6 36l11 21l41 5q35 -26 76 -36h52l10 31l-36 76
l-10 5v16h-26l-41 -10h-71l-6 -6h-51l-15 -20v-102l-46 -180q20 -15 46 -10l5 5h56z" />
    <glyph glyph-name="uni300F" unicode="&#x300f;" horiz-adv-x="700" 
d="M152 -113l-36 20l-31 134v72l36 11l77 -42h57l57 21l5 15l-41 150q-52 20 -103 46l-11 31l31 10l5 -5h67l5 5h98l5 5h52l103 26l41 -31l5 -26q-46 -139 -62 -293v-87l5 -26l-41 -10l-5 5h-56l-196 -31l-26 5zM440 -21v11l5 5v67l36 242q-20 15 -51 10l-103 -15v-16
q46 -87 57 -190h10l5 -36q-62 -26 -129 -36h-56l-46 10q-16 -21 -11 -52l11 -25l36 -11z" />
    <glyph glyph-name="uni3010" unicode="&#x3010;" horiz-adv-x="607" 
d="M264 -83l-31 30l-5 31q20 62 26 134v108l5 5v52l5 5v93l10 51v67l5 5v196l-36 113l31 10q57 -31 118 -41h78l61 10l36 -25v-26q-56 -31 -82 -88q-51 -118 -67 -247v-56l-5 -16l5 -36l-5 -25l5 -42l-5 -51q10 -88 51 -160h11l41 -36v-20l-21 -26h-51l-5 -5h-72l-41 -10
h-62z" />
    <glyph glyph-name="uni3011" unicode="&#x3011;" horiz-adv-x="600" 
d="M335 -96l-37 26h-62l-36 5l-83 -16l-36 36v26q104 176 114 388v155q-16 140 -93 249q10 25 41 20l67 -15h83l5 5h57l31 -21l5 -41q-31 -47 -25 -104l5 -15l-5 -5v-83l5 -21l-5 -36l5 -21l-11 -41v-72l11 -62l-5 -16l5 -5v-145l5 -5v-88l10 -36l-15 -57z" />
    <glyph glyph-name="uni3012" unicode="&#x3012;" horiz-adv-x="872" 
d="M432 -102l-36 26v108l-5 26l5 31l-5 5v140l5 21l-10 31l-5 5h-57l-186 -31l-31 26v31q98 20 201 36l26 -5q207 20 409 67l41 -31v-16l-21 -25q-113 -11 -227 -37h-52l-15 -15v-78l5 -15l-10 -16v-88l5 -5v-62l-5 -26l10 -72l-26 -31h-16zM215 534l-26 26v36l26 10l5 -5
h88l6 5h87l6 6h150l41 5l62 -26l5 -31q-26 -21 -67 -21l-21 10h-145l-5 -5h-57l-25 -10h-130z" />
    <glyph glyph-name="uni3013" unicode="&#x3013;" horiz-adv-x="802" 
d="M194 74l-36 31v26l21 42l5 5h62l16 -5l124 20h62l36 11h57l20 -5l32 5l46 -42v-31q-26 -36 -72 -26l-6 6h-175l-124 -37h-68zM205 354q-37 20 -26 62l36 41h41l6 -5h129l5 5h114l46 10q47 0 78 -36l5 -15l-15 -26l-88 -10l-31 5l-6 -5h-77l-31 -11h-73z" />
    <glyph glyph-name="uni3014" unicode="&#x3014;" horiz-adv-x="597" 
d="M471 -95l-190 107l-10 36l16 36v51l5 5v216l-5 5v51l-6 5v67l-5 5v56l-20 67l97 66q41 46 72 97h25l31 -15l10 -36q-61 -82 -138 -153v-77l5 -5v-72l5 -5v-51l5 -5v-267l-5 -46q67 -56 149 -82l5 -46z" />
    <glyph glyph-name="uni3015" unicode="&#x3015;" horiz-adv-x="602" 
d="M140 -116q-36 11 -31 46q72 92 168 143v25l-10 46v102l-5 5v77l-5 5v122l5 5v51l26 112q-67 20 -118 71q-40 36 -40 87l40 10l51 -56v-10q72 -56 158 -76l5 -41q-30 -51 -45 -112v-92l-6 -5v-66l6 -5v-112l5 -6v-91l15 -92q-82 -31 -148 -87q-5 -30 -36 -51z" />
    <glyph glyph-name="uni301D" unicode="&#x301d;" horiz-adv-x="807" 
d="M409 466q-25 15 -20 50q41 137 96 263h20l26 -10l10 -26q-46 -136 -91 -272zM243 481l-30 20v26q55 116 85 242l41 5l35 -26v-25q-50 -116 -96 -237z" />
    <glyph glyph-name="uni301F" unicode="&#x301f;" horiz-adv-x="800" 
d="M451 -83q-25 16 -25 46l122 238l30 10q20 -25 15 -55q-61 -112 -96 -234zM259 -72q-31 20 -26 50q31 142 127 259l36 15l30 -25v-21l-66 -71l-51 -137v-55q-20 -26 -50 -15z" />
    <glyph glyph-name="uni3041" unicode="&#x3041;" horiz-adv-x="797" 
d="M570 -101l-21 11v41q41 71 41 163l-31 57l-20 5q-87 -103 -133 -215l-5 -5h-57l-92 -31h-51l-61 41q-21 26 -16 66q31 67 97 123l113 72l5 31l-25 25q-62 -35 -128 -46l-36 31v26q82 35 164 56l5 5v51l-11 46q21 26 57 16l20 -16l5 -20v-51l16 -5q51 25 112 35l31 -25
v-31l-10 -20l36 -16l5 -36l-10 -46q56 -20 76 -77l11 -35v-72l-26 -108l5 -20l-20 -26h-46zM308 12l41 41v56l-10 36l-15 5q-82 -46 -123 -128v-30l31 -11zM426 130l31 61l-31 5l-15 -5l-5 -15v-51h15zM493 258l31 82h-11q-56 -16 -107 -36l-5 -46l10 -10h66z" />
    <glyph glyph-name="uni3042" unicode="&#x3042;" horiz-adv-x="942" 
d="M722 -101q-26 15 -26 46q46 75 56 166v106q-10 71 -61 121l-35 15q-35 -35 -60 -81q-66 -106 -127 -216q11 -41 36 -71q-20 -30 -61 -25l-35 25l-5 20l-15 5l-30 -15l-6 -15q-65 -51 -151 -51l-40 21l-36 65v71q51 111 152 202l106 65l10 66l-5 45h-30q-86 -35 -182 -55
l-40 35v25q126 40 252 71l5 5v121q20 25 55 15l31 -35v-31l-11 -45l36 -5q65 25 136 35l40 -20l10 -35l-10 -25l15 -5v-36l-15 -60l66 -46q71 -70 81 -166v-91q-16 -111 -61 -207zM268 5l121 96v35l-5 5v101l5 20l-20 5l-61 -55h-10l-25 -35l-15 -5q-46 -71 -66 -147l10 -35
h40zM469 187v10q61 65 81 146l-25 5l-66 -30l-5 -5v-76l-5 -40zM596 419q25 45 30 96l-30 10l-127 -41l-10 -80l31 -11z" />
    <glyph glyph-name="uni3043" unicode="&#x3043;" horiz-adv-x="760" 
d="M246 -49q-30 0 -41 30q-40 127 -86 249q26 30 61 20q46 -117 91 -233l26 -15l5 -26l-15 -20zM550 7l-45 40v15l5 6v96l5 25l-5 5v102l-5 15q20 20 50 15l26 -20v-46l-6 -15l6 -5v-101l5 -16l-5 -25l10 -36q-16 -30 -41 -55z" />
    <glyph glyph-name="uni3044" unicode="&#x3044;" horiz-adv-x="890" 
d="M268 -30l-36 26q-73 187 -109 385l57 10l31 -36v-52q26 -135 94 -249l26 -21v-31l-16 -26zM731 59l-21 10l-15 21v145l-6 6v52l-26 156q21 26 58 15l25 -31v-57l16 -68v-52l5 -5v-120l5 -41l-15 -26z" />
    <glyph glyph-name="uni3045" unicode="&#x3045;" horiz-adv-x="642" 
d="M312 -83l-26 20v21q108 103 134 242l-31 36l-67 5q-82 -41 -170 -72l-20 15l-6 36q78 62 175 83h57q77 0 123 -62l16 -67q-31 -134 -134 -242zM368 339l-144 149v31q21 25 52 15q51 -77 133 -118l11 -41l-21 -31z" />
    <glyph glyph-name="uni3046" unicode="&#x3046;" horiz-adv-x="762" 
d="M442 -99l-30 36q122 159 158 348l-15 26l-26 15h-97q-148 -20 -282 -87l-25 21l-5 36q123 76 271 92h128q56 -5 97 -46q26 -41 26 -98q-36 -189 -169 -337zM463 521l-26 26l-25 41l-139 117l11 21l40 5l190 -159v-25l-10 -26h-41z" />
    <glyph glyph-name="uni3047" unicode="&#x3047;" horiz-adv-x="880" 
d="M212 -85q-26 16 -20 46q116 141 206 298h-20q-111 -31 -217 -71l-30 15l-10 35q101 46 207 66l5 20q-91 91 -126 207q25 15 55 10q66 -106 141 -212l31 -5l45 5l25 -20v-35q-55 -61 -80 -132l50 -35q30 -70 96 -126h20q55 25 91 81l15 45l25 5l25 -15l10 -40
q-15 -51 -60 -86q-40 -35 -86 -56h-55q-51 26 -91 71l-51 81h-15l-121 -106l-20 -40z" />
    <glyph glyph-name="uni3048" unicode="&#x3048;" horiz-adv-x="962" 
d="M165 -101q-35 25 -30 66q111 161 232 318l30 30h10l51 86h-25q-152 -26 -278 -96q-35 20 -30 60q116 66 252 91v10l-25 25v61l-56 222l31 10l40 -30q40 -116 50 -243l-15 -50l26 -5l5 5h100l41 -30v-15l-10 -21l-66 -75h-10q-60 -86 -126 -167h20l35 10l56 -35
q30 -81 106 -121h45q91 35 177 91l5 15l45 10l5 -25l-40 -61q-91 -80 -207 -101q-76 11 -131 71l-55 81h-21q-106 -66 -191 -162l-15 -30h-21z" />
    <glyph glyph-name="uni3049" unicode="&#x3049;" horiz-adv-x="802" 
d="M192 -98l-41 26q-20 20 -15 50l56 82l81 65l5 16v50l-10 71h-25q-36 -25 -77 -30l-35 20l-10 36q61 25 127 40l5 21l-5 45q15 20 40 15l36 -30l5 -30l15 -6l76 11l20 -46l-15 -20l-15 -5h-61q-15 -21 -10 -46l5 -5v-56l10 -20l25 -5l5 5h77q50 -5 91 -46q25 -30 20 -71
q-5 -50 -35 -86l-31 -5l-20 10l-10 41l25 71q-35 35 -86 30l-66 -10q-10 -86 -51 -162l-35 -26h-71zM232 -37l31 61h-15q-31 -25 -31 -61l10 -5zM613 136q-61 55 -122 121v36l40 15l21 -10l5 -15l15 -5l66 -66l15 -61l-10 -15h-30z" />
    <glyph glyph-name="uni304A" unicode="&#x304a;" horiz-adv-x="940" 
d="M638 -76l-31 30v16l25 25h11l51 133l-21 47q-41 35 -92 35l-15 -5l-15 5l-159 -66q-16 -87 -56 -164q-36 -26 -82 -26l-87 36l-16 36q67 97 164 159l10 97l-5 31l5 5v77l-10 20l-15 5q-67 -30 -144 -41l-36 36v16q88 35 185 56l5 31l-15 66l46 16q35 -11 41 -47l-6 -15
l11 -31h36q41 21 87 21l20 -10l5 -46l-41 -21h-77l-20 -10l-5 -5v-77l5 -5v-67l-5 -5v-56h20q57 30 123 46h77q61 -10 113 -51q41 -46 41 -113q-21 -97 -77 -179zM274 21l21 51h-16l-25 -20l-6 -31l21 -5zM807 292l-47 21q-51 71 -117 133v31l46 15l31 -20l20 -36l41 -31
q41 -41 56 -97q-5 -21 -30 -16z" />
    <glyph glyph-name="uni304B" unicode="&#x304b;" horiz-adv-x="1075" 
d="M442 -103l-26 26v25q72 118 108 251v67q-11 30 -41 41h-57l-92 -21l-102 -287l-26 -5l-31 31v20q21 103 62 195h-10l-62 -31l-41 31v31l149 71q35 123 66 246l31 5l36 -30v-21l-46 -169l25 -10l5 5h87q57 -10 98 -56l15 -36v-97q-20 -144 -97 -267q-21 -20 -51 -15z
M933 230l-31 15q-128 210 -317 384l-5 41l41 5q189 -179 338 -389l5 -41z" />
    <glyph glyph-name="uni304C" unicode="&#x304c;" horiz-adv-x="1040" 
d="M218 -86l-25 21v35l51 241l-20 5l-103 -72l-41 26l-5 21q92 66 179 122v154l51 5q31 -20 21 -56l-5 -5v-77l46 -5l20 10h87l52 -31l25 -87q-5 -148 -71 -276l-52 -5l-20 41q66 123 72 266l-21 36l-5 5h-67l-61 -26l-15 -77v-61q-26 -102 -52 -205zM807 144
q-97 164 -235 308l-41 41v25l36 10l81 -71q123 -138 210 -287l-15 -20zM787 406q-72 97 -149 199v21q21 15 46 10q72 -82 139 -179l5 -31q-16 -20 -41 -20zM940 421q-61 107 -143 210l-21 15l-5 36l41 10l36 -20l16 -31l15 -5q82 -92 97 -215h-36z" />
    <glyph glyph-name="uni304D" unicode="&#x304d;" horiz-adv-x="787" 
d="M428 -118v8q-161 115 -314 244v30l30 9q144 -94 283 -208q33 -24 33 -61q-8 -16 -35 -11v-11h3zM510 186l-27 18v21q30 25 30 68l-51 112h-34l-164 -54h-47l-38 33v19q117 39 243 70l6 18l-40 109h-44q-60 -20 -124 -35h-48l-38 38v17q8 17 26 17h60l143 36l6 18l-10 48
q17 13 43 8l28 -28v-32h34l129 25l42 -33v-16q-33 -28 -81 -33l-30 5l-63 -16l-6 -23l41 -98l18 -6q76 25 149 40l38 -19l8 -30q-81 -33 -174 -59v-19q40 -74 55 -157q-19 -43 -62 -62h-18z" />
    <glyph glyph-name="uni304E" unicode="&#x304e;" horiz-adv-x="980" 
d="M412 -82q-138 46 -255 148l-10 25l40 21q133 -102 286 -158l5 -15q-26 -31 -66 -21zM473 107l-16 35l21 51l-36 82l-25 5q-107 -46 -219 -66l-31 25l-5 26q127 40 250 81v31l-31 76h-25l-148 -56h-51l-31 31v25l219 66v26l-25 66q20 26 56 15l31 -35l15 -46l20 -5l112 25
l31 -20v-31q-61 -30 -133 -35l-5 -31l26 -61l20 -5q66 35 143 46l15 -5l5 25q-41 107 -66 219q20 15 46 10l35 -30q31 -143 72 -280l-26 -11l-51 21q-76 -31 -158 -56v-31l41 -92v-66q-30 -30 -76 -25zM880 372l-40 40q-46 143 -97 281l35 10l41 -31q61 -137 87 -290z" />
    <glyph glyph-name="uni304F" unicode="&#x304f;" horiz-adv-x="600" 
d="M426 -49l-112 92v10l-46 35l-71 82l-16 36l-15 5q-36 41 -41 91q143 107 275 225h36l20 -46q-122 -107 -239 -209l25 -51l21 -20q76 -113 183 -174l26 -10l20 -35l-20 -31h-46z" />
    <glyph glyph-name="uni3050" unicode="&#x3050;" horiz-adv-x="910" 
d="M527 -72q-189 71 -343 225l-5 15l-20 11q-36 35 -41 87l281 291h36l26 -20v-36l-251 -256v-25q113 -134 256 -200l87 -31l5 -36zM620 337l-41 41l-52 256q21 16 52 10l35 -35v-52q16 -92 46 -179l-5 -15l5 -15q-15 -16 -40 -11zM778 373l-36 31v77l-35 158v62l46 5
l30 -26l26 -184v-51l5 -5v-57z" />
    <glyph glyph-name="uni3051" unicode="&#x3051;" horiz-adv-x="900" 
d="M562 -81l-20 56l5 5v97l-5 16l10 50v97l10 41v66l5 31l-41 5l-183 -36q-31 21 -31 56l250 46v71l-5 6v61l-15 51l50 10l41 -36v-51l-5 -46l15 -51h26q36 21 81 16l46 -16l5 -25l-25 -26l-36 -5h-71l-26 -10l-5 -5v-148l-10 -45v-82l-5 -5v-61l-5 -5v-67l5 -15l-10 -25
l5 -16l-5 -5h-51zM215 36l-50 57q-36 81 -46 178l5 5v51l-5 20l10 41v82l-5 20l30 10l41 -25l5 -31l-5 -5v-122l-5 -51l5 -5v-51l26 -72l40 -20l11 -25l-16 -46z" />
    <glyph glyph-name="uni3052" unicode="&#x3052;" horiz-adv-x="912" 
d="M521 -93l-31 20v81l11 25v87l5 5v50l5 5v56l5 5v81l-36 11l-147 -26l-50 31l-5 20q20 25 55 20l21 -5l15 10h66l71 15l5 26l-21 91l36 20l35 -25l21 -101l50 -6l16 6v10l-112 284l46 15q86 -137 111 -309l21 -41l-36 -20h-66l-20 -10l-5 -5v-137l-15 -87v-65l-11 -26
v-101zM227 -68l-51 30q-56 97 -56 213l5 5v153l11 65l-5 21l15 20l30 5l31 -20l5 -41l-10 -25v-51l-6 -5v-147l6 -5v-71l30 -51l40 41h16q25 -15 20 -41l-61 -91zM774 358l-25 15q-5 51 -20 96v87q-10 91 -41 172l36 15l35 -15q36 -71 41 -157v-132l10 -76z" />
    <glyph glyph-name="uni3053" unicode="&#x3053;" horiz-adv-x="730" 
d="M170 -48l-40 50l25 20h70q187 21 364 61q25 -15 25 -45q-66 -41 -146 -51h-51l-106 -25h-55l-71 -10l-5 5zM488 401l-15 35l-66 15h-50l-61 10l-40 -5l-15 5l-86 -15l-35 51q15 25 50 25h81l20 5l5 -5h86q106 -10 201 -46l11 -45q-36 -35 -86 -30z" />
    <glyph glyph-name="uni3054" unicode="&#x3054;" horiz-adv-x="850" 
d="M257 -42q-61 0 -102 41l-5 30l10 11h51l51 -16h101q97 21 188 51l15 -30q-101 -76 -233 -87h-76zM708 288l-41 35v188l-10 51v50l-5 5v51l-5 31l36 10l40 -21l10 -60l-5 -16l10 -40v-198l-15 -81zM566 339l-41 15q-55 147 -71 314l41 10l35 -20l16 -35v-92
q15 -86 45 -172zM434 349q-142 81 -304 121l-5 21q25 25 61 15q157 -25 294 -96l5 -31l-31 -30h-20z" />
    <glyph glyph-name="uni3055" unicode="&#x3055;" horiz-adv-x="942" 
d="M433 -93q-112 107 -183 239v25q20 26 56 16q76 -133 173 -255q-20 -25 -46 -25zM586 115l-30 41l30 26v25q-35 82 -71 163l-26 5q-163 -46 -326 -81l-45 41v15l20 25h51l275 61v21q-51 51 -61 122l46 15l15 -20l25 -10q16 -61 46 -112h46q102 40 214 46l26 -57l-31 -20
l-31 5l-168 -41v-20q56 -102 77 -214q-36 -36 -82 -36z" />
    <glyph glyph-name="uni3056" unicode="&#x3056;" horiz-adv-x="992" 
d="M496 -103q-142 36 -259 138q-26 25 -31 56q20 15 51 10l25 -15q62 -71 143 -102l97 -25l10 -31zM537 132l-41 15q-35 117 -81 234h-20q-123 -40 -240 -91l-36 30v16q128 71 276 101v26q-41 61 -51 132l25 11l46 -26l46 -117h25q72 10 138 46l5 15q-71 92 -117 194
q20 15 46 10l30 -20q77 -118 138 -240l-16 -20q-117 -16 -229 -46l-5 -15q46 -113 97 -225zM848 555l-31 20q-56 107 -96 219l35 10l31 -15l86 -209l-10 -20z" />
    <glyph glyph-name="uni3057" unicode="&#x3057;" horiz-adv-x="732" 
d="M400 -80q-72 10 -128 56q-98 92 -92 225v87l-6 5v149l6 5v138q20 21 51 16l25 -21v-36l-5 -5v-118l-5 -5v-112l5 -5v-82l5 -5v-57q11 -87 72 -148q41 -26 92 -31l82 36l5 15l51 10l21 -15v-20q-72 -77 -179 -82z" />
    <glyph glyph-name="uni3058" unicode="&#x3058;" horiz-adv-x="770" 
d="M268 -53l-76 46q-66 61 -66 153v203l5 6v86l10 41l46 5l20 -15v-51l-10 -56v-133l-5 -5v-81q5 -72 51 -123l56 -20q66 46 143 71q20 -15 15 -40q-56 -56 -128 -87h-61zM421 253q-76 96 -92 219q21 15 46 10l26 -15q15 -112 81 -204l-10 -10h-51zM635 278l-30 26
q-26 137 -67 265l46 5l26 -21q35 -97 61 -198v-62z" />
    <glyph glyph-name="uni3059" unicode="&#x3059;" horiz-adv-x="882" 
d="M592 -96l-51 41v20l15 36v56l5 15l-5 36h-10q-36 -41 -92 -36q-66 10 -117 61l-20 41v61l-5 15q25 67 71 123q36 35 86 35l67 -20v117l-41 10q-178 -20 -331 -96l-36 30l-5 31l5 10q138 51 285 76h62l45 16l5 15l-15 71q15 26 46 21l36 -36v-56q20 -15 46 -10l51 15
l35 -10l26 5l30 -21l5 -25l-25 -25h-15l-6 5h-66l-25 -5l-16 5l-25 -16l-5 -5v-56l5 -20l-5 -5v-112l-5 -5v-51l30 -118v-193l-20 -31l-10 -15h-5zM485 143v11q30 35 35 81v51l-40 51h-21q-40 -36 -71 -81l-10 -77l35 -36l46 -10z" />
    <glyph glyph-name="uni305A" unicode="&#x305a;" horiz-adv-x="1002" 
d="M527 -112l-40 60q20 60 30 130l-20 5l-10 -10h-59q-60 30 -85 90l-15 50v85q10 45 40 85l15 10h50l79 -45l5 15v94l-10 30l-30 5q-169 -30 -319 -104l-40 49q170 85 364 115l5 20l-29 75l39 10l25 -15l35 -80l30 -5l35 5v15q-30 70 -50 150l35 15l40 -25q5 -80 50 -150
l25 -5l20 5l40 -5l10 20l-35 195l25 10l40 -25q15 -150 60 -285l-30 -15q-40 40 -95 45l-35 -5q10 -35 -25 -35l-35 20l-15 20h-60l-15 -25l10 -40v-69l-5 -5v-85l-10 -15v-60l15 -80v-105l-5 -5v-60l-15 -60zM448 133q39 55 39 130l-34 60l-25 10l-30 -30l-5 -25v-65
q5 -55 50 -85z" />
    <glyph glyph-name="uni305B" unicode="&#x305b;" horiz-adv-x="872" 
d="M475 -76q-76 21 -136 81q-97 117 -107 274l-15 5q-25 -25 -61 -25l-25 15l-10 51l101 35l5 26l-20 126l45 16l36 -46l-5 -25l5 -6v-55l25 -10l183 45l5 5v112q20 15 51 10q25 -25 25 -66l-10 -46h35l10 11h71l51 5q25 -21 20 -51l-15 -15h-51l-60 -15l-36 5l-25 -26v-96
l-26 -122l-35 -5l-20 15l-5 46l20 96v61l-20 10l-173 -50l-5 -21q5 -152 102 -263q50 -51 126 -46l36 10l40 -10v-20q-55 -46 -132 -41z" />
    <glyph glyph-name="uni305C" unicode="&#x305c;" horiz-adv-x="1060" 
d="M517 -58q-66 20 -117 71q-86 107 -96 238h-20q-61 -45 -132 -55l-31 50q87 46 173 76l5 5v87l-5 35l30 10l36 -20l10 -46l-5 -40l20 -5l177 45l21 56v51l5 5v51l35 10l31 -26v-50l-16 -76q26 -16 56 -11l76 21v30l-86 193l5 10l20 5l46 -25q61 -132 112 -264l-16 -15h-76
l-5 -5h-76l-5 -5h-51q-35 -56 -30 -122l5 -5v-56l-46 -15l-30 30v21l5 5v56l5 5v50l-40 5l-127 -40l-5 -46q5 -116 91 -203l71 -35h61q76 30 157 56l10 -31q-61 -61 -137 -81h-111zM938 403l-36 31q-35 127 -76 253l36 11l30 -16q46 -126 71 -258z" />
    <glyph glyph-name="uni305D" unicode="&#x305d;" horiz-adv-x="732" 
d="M512 -116q-51 26 -97 71q-60 66 -60 157q66 112 142 218h-11q-126 -45 -258 -81h-56l-35 31v20l299 243v15h-51l-51 -15l-30 5l-142 -20q-30 20 -35 56q20 20 50 15l51 -5l40 10h66l71 15h66l5 5h71l21 -35q-127 -137 -264 -248h30q122 40 254 60l25 -20v-25
q-116 -137 -182 -289q15 -61 71 -112l66 -30l5 -31q-26 -15 -61 -10z" />
    <glyph glyph-name="uni305E" unicode="&#x305e;" horiz-adv-x="972" 
d="M496 -63q-56 25 -81 81l-10 41v61l60 147h-15q-147 -61 -294 -132q-30 20 -25 56l243 253h10l5 15l16 5l5 16l45 40v15h-40q-97 -20 -188 -55l-25 15l-15 40q96 36 202 61h122l46 -20l10 -26q-112 -126 -223 -253h15l187 61l36 -20l5 -31q-76 -91 -112 -203v-60l21 -41
q30 -15 66 -25l5 -21l-21 -20h-50zM673 307q-51 142 -66 299l31 10l35 -25l5 -5v-51q21 -116 56 -223l-5 -5h-56zM851 368q-56 132 -66 279l25 10l36 -20q25 -127 45 -259q-15 -15 -40 -10z" />
    <glyph glyph-name="uni305F" unicode="&#x305f;" horiz-adv-x="920" 
d="M246 -119l-37 14l-19 57v51l-5 4v111l56 331h-27l-10 -10h-51q-27 13 -22 47q61 19 132 35l25 133l40 5l27 -42l-16 -61l36 -6q79 34 166 44l32 -32v-15q-126 -29 -251 -79q-26 -96 -46 -191v-50l-25 -104v-148q30 -36 35 -80zM750 -15l-24 10h-65q-103 14 -205 37
l-13 39l40 14q78 -15 158 -30h59l87 -24l4 -12l-9 -20zM463 267l-40 36v16q107 67 228 92h49q26 -18 21 -48l-21 -18h-54q-101 -25 -183 -78z" />
    <glyph glyph-name="uni3060" unicode="&#x3060;" horiz-adv-x="930" 
d="M246 -128l-56 61l-31 102v56l-5 5v77q26 101 46 203l-10 21l-51 15l-16 41l107 46q21 86 62 142l40 -15l11 -36l-21 -66h10q77 31 163 46l31 -15l5 -26q-117 -46 -239 -86q-51 -163 -67 -337l5 -5v-71l31 -82l31 -20l5 -25q-21 -31 -51 -31zM511 66l-51 25l-10 36l35 10
l5 -5h87l5 5h173l15 -36l-56 -35l-20 10h-56l-31 -10h-96zM450 295l-31 36v15q122 66 265 91l36 -25v-31q-138 -35 -270 -86zM643 478l-41 16q-51 86 -81 183l36 15l40 -20q31 -92 67 -178zM786 509q-31 117 -66 229q20 15 45 10l36 -30l20 -82v-97l6 -20q-16 -15 -41 -10z
" />
    <glyph glyph-name="uni3061" unicode="&#x3061;" horiz-adv-x="877" 
d="M617 -93l-31 26v20q72 87 98 200l-31 72l-57 10q-117 -36 -220 -113l-20 -30l-26 -11l-46 36l-5 62l31 230l-26 5q-61 -26 -128 -36q-36 26 -36 62q98 30 200 56l10 15v67q16 26 46 15l36 -51l-5 -26l41 -5l143 31l46 -26l6 -35l-57 -16h-51l-138 -36q-16 -35 -21 -76
v-52l-15 -92h10q87 67 195 92h66q52 -10 87 -61l31 -72v-56q-15 -113 -97 -200z" />
    <glyph glyph-name="uni3062" unicode="&#x3062;" horiz-adv-x="955" 
d="M602 -97l-36 31v31q67 76 87 174l-20 51q-26 26 -67 20q-143 -51 -271 -153l-5 -16l-36 -10l-41 36v41q31 148 67 292l-47 5q-30 -21 -76 -15q-36 20 -31 61q87 15 169 41l10 20v57l41 10l31 -31v-15l-5 -26l10 -10h51q41 21 92 21l36 -6l31 11l5 5v56l-5 16l5 5v76
q10 21 41 16l36 -36v-46l-5 -5v-179l-5 -6v-61l10 -46l-31 -15l-36 25l-15 77l5 36q-21 15 -46 10l-108 -20h-51l-15 5l-21 -16q-20 -128 -51 -251h10q113 98 261 108q62 -5 108 -51l41 -67v-82l-61 -128l-16 -5l-15 -31zM797 344l-26 25l-15 51v103l-5 5v51l-11 36v56l36 5
l36 -30l5 -21v-56l5 -31l-5 -15l5 -5v-118l5 -31l-5 -25h-25z" />
    <glyph glyph-name="uni3063" unicode="&#x3063;" horiz-adv-x="757" 
d="M455 -47l-42 31l-5 20q67 52 98 135l16 67l-10 21l-42 15q-134 -31 -243 -124l-36 -57h-36l-26 47q77 103 191 150q78 36 166 36q51 -10 93 -52l15 -62q-26 -114 -93 -207z" />
    <glyph glyph-name="uni3064" unicode="&#x3064;" horiz-adv-x="872" 
d="M591 -62l-41 31v15q31 15 46 46h10q46 72 67 154v82q-21 61 -72 107l-66 21q-180 -57 -323 -190l-31 -36h-20l-36 26v26q133 122 287 199l82 26h76q57 -16 103 -62q56 -56 71 -128v-97q-40 -118 -117 -215z" />
    <glyph glyph-name="uni3065" unicode="&#x3065;" horiz-adv-x="970" 
d="M482 -53l-31 21v30q87 71 127 172q36 81 41 173l-21 40l-55 20q-213 -65 -401 -202l-25 45q193 173 446 208q46 -10 86 -40v30l-30 91v51l-5 25l50 10l26 -25v-61q20 -71 35 -147l-40 -10l-5 -25l10 -71q-41 -183 -168 -330zM822 327l-26 26v56l-5 5v111l-10 96
q20 16 46 11q35 -51 35 -122v-61l-5 -5v-96l-10 -21h-25z" />
    <glyph glyph-name="uni3066" unicode="&#x3066;" horiz-adv-x="810" 
d="M579 -85q-50 0 -85 41q-77 81 -87 193v94q36 143 122 274h-34q-161 -68 -326 -109q-34 9 -43 44v16q252 72 504 140l44 -25l5 -27l-92 -98q-84 -130 -116 -288q16 -101 74 -184l68 -21l9 -27l-19 -23h-24z" />
    <glyph glyph-name="uni3067" unicode="&#x3067;" horiz-adv-x="1007" 
d="M529 -68q-110 0 -180 83q-39 60 -39 140q35 170 162 318h-19q-148 -35 -299 -55q-32 18 -32 50l8 13h69q194 45 394 71l29 -15l13 -35q-140 -96 -216 -244q-31 -51 -41 -108v-57l31 -63q37 -30 95 -26l24 5l42 -32v-23q-13 -22 -41 -22zM884 397q-22 19 -27 42v91
l-30 161q8 18 34 13l30 -20q19 -53 29 -113v-146l-9 -23zM722 407l-22 19l-26 100v60l-25 111q13 17 41 12l37 -24l16 -89v-56l25 -115l-13 -18h-33z" />
    <glyph glyph-name="uni3068" unicode="&#x3068;" horiz-adv-x="817" 
d="M372 -42q-67 36 -97 102v61l46 76q-102 179 -189 362q21 15 46 10l36 -30l137 -281l16 -5q81 92 178 158l35 -20l6 -31l-77 -66h-10l-5 -15q-87 -87 -148 -189v-25q15 -36 51 -46h41q86 31 158 87l15 20h41l30 -51l-20 -10l-5 -15q-97 -56 -199 -92h-86z" />
    <glyph glyph-name="uni3069" unicode="&#x3069;" horiz-adv-x="955" 
d="M363 -67q-51 16 -93 62l-25 51v57q20 77 67 144q-103 196 -191 396l41 16l21 -11q87 -169 160 -344l20 -5q67 92 165 102l26 -20v-26q-52 -20 -98 -56q-36 -42 -57 -93q-41 -21 -62 -67l-20 -93l20 -30q36 -21 88 -21q123 31 226 113l31 -10l16 -46q-119 -83 -258 -119
h-77zM651 324q-82 129 -123 273q20 15 51 10l26 -20q26 -114 82 -216l16 -6l5 -20q-26 -21 -57 -21zM821 381q-46 129 -87 262q20 16 51 11q57 -88 67 -196v-51l5 -21z" />
    <glyph glyph-name="uni306A" unicode="&#x306a;" horiz-adv-x="1030" 
d="M462 -98q-66 36 -102 102l-5 51q87 56 189 66l25 122v56l5 51l-5 41l36 10l35 -25l6 -5v-51l-6 -16l6 -30l-26 -173q82 -31 153 -87l5 -31q-15 -25 -46 -20q-51 51 -117 71q-25 -61 -56 -117l-31 -15h-66zM498 -32q30 31 30 71l-25 11l-66 -31l-5 -25q15 -31 51 -36z
M243 126l-30 31l-6 61l56 214h-15l-81 -31l-41 41v20l183 66l36 107l31 6l35 -21l5 -25l-15 -51l15 -5l87 15l46 -46l-16 -20h-50l-6 -5h-76l-36 -16q-56 -112 -81 -239v-51h10l5 -36q-20 -20 -56 -15zM854 401q-101 56 -198 133l-5 35l35 5q107 -81 230 -127l5 -26
q-26 -25 -67 -20z" />
    <glyph glyph-name="uni306B" unicode="&#x306b;" horiz-adv-x="842" 
d="M213 -102q-77 72 -87 174v190l5 5v77l10 35v67q21 15 46 10l36 -31v-41l-20 -66v-51l-6 -5v-118l-5 -21l5 -5v-56l16 -67h20l36 5l15 -35q-20 -26 -25 -62zM525 98q-46 0 -82 25l-10 41q20 16 51 11l82 -11q41 -5 67 0l15 5l67 -20l5 -36l-36 -15h-103l-20 5zM407 303
l-30 30v26q133 51 281 77l31 -16l10 -41q-25 -20 -61 -25h-51q-93 -26 -180 -51z" />
    <glyph glyph-name="uni306C" unicode="&#x306c;" horiz-adv-x="1045" 
d="M179 -39q-40 26 -55 66l-5 20v65q35 100 125 181l35 30v30l-5 5v55l-15 101q25 15 55 10q25 -25 25 -61v-80l20 -5l126 55l10 40v61q20 15 45 10l20 -20v-66q86 -10 156 -65q75 -85 75 -201l-10 -65l126 -60l15 -50l-46 -20l-120 70l-70 -80l-40 -16h-51q-55 10 -90 61
l-15 60q25 40 70 60l15 5h81l45 -10q25 35 20 80q-10 66 -50 121q-46 45 -111 45l-25 -25q-55 -136 -130 -261l10 -40l-10 -15h-56q-55 -55 -115 -91h-55zM229 32q70 55 95 125l-30 75h-15q-80 -80 -90 -185l10 -25h15zM656 47l25 45l-10 10h-66l-45 -30v-15l30 -30h30z
M385 222l65 131h-15l-81 -55v-35l26 -46z" />
    <glyph glyph-name="uni306D" unicode="&#x306d;" horiz-adv-x="1012" 
d="M376 -71l-46 30l-5 30v51l-10 51v66l-20 5q-66 -51 -91 -122l-51 -5q-25 20 -20 51q76 101 177 172v107l-20 5q-61 -36 -122 -61l-40 25l-6 31l183 81v81l-5 5v50l-5 26l45 20l41 -35v-21l-5 -5v-71q30 -10 61 -15l10 -30q-25 -36 -66 -41l-5 -40l5 -26l-5 -25l20 -5
q132 101 294 137q56 0 97 -41q45 -61 50 -142q-10 -81 -40 -152l20 -20l71 -127l-15 -30h-15l-31 15l-61 111h-15q-51 -60 -132 -55q-56 10 -96 55l-5 31q40 56 101 86l66 10l56 -10l20 61v76l-25 56l-61 15q-152 -61 -284 -157l-10 -15v-71l5 -6v-55l30 -137
q-15 -26 -40 -20zM680 86l20 40l-20 10l-66 -40l-5 -20l36 -11z" />
    <glyph glyph-name="uni306E" unicode="&#x306e;" horiz-adv-x="920" 
d="M203 -38q-41 0 -71 31l-10 35v56q10 122 71 218q131 137 314 147q81 -5 142 -66q127 -127 152 -299v-76l-20 -25h-26q-35 10 -40 45q20 31 15 66q-30 147 -142 264l-41 20q-60 -192 -192 -360q-41 -45 -91 -56h-61zM264 33q126 132 197 289l16 51l-26 10
q-106 -40 -198 -127q-60 -101 -65 -228q15 -20 40 -15z" />
    <glyph glyph-name="uni306F" unicode="&#x306f;" horiz-adv-x="942" 
d="M201 -56q-35 15 -50 51l-16 57v96l-5 5v143l-4 14l4 4v130l-5 31q18 23 46 13l31 -25v-39l-6 -5v-129l-5 -44l5 -6v-52l6 -26l-6 -21l6 -27l-6 -27l22 -67l20 -10l6 -36l-25 -30h-18zM778 -24q-42 61 -103 100h-19l-44 -70q-25 -19 -56 -24h-63q-41 5 -71 39l-11 14v51
l42 52l68 36h54l18 18v164q-24 18 -59 12q-79 -22 -148 -53l-34 20l-8 33q107 50 244 62l5 51l-16 74q14 23 47 12l35 -34v-25l-5 -43l6 -30h51l47 5l28 -25v-16l-54 -25l-55 5l-18 -18v-167l-5 -29q86 -75 170 -144l6 -32q-18 -23 -52 -13zM553 42q35 28 29 69l-31 13
q-45 -18 -68 -62v-19q25 -19 54 -13z" />
    <glyph glyph-name="uni3070" unicode="&#x3070;" horiz-adv-x="1035" 
d="M180 -47q-31 20 -47 56l-5 20v103l-5 15l10 46v57l6 5v56l10 56v72l36 15l35 -25l6 -41l-21 -144v-61l-5 -5v-51l-5 -51l5 -31h15q21 31 57 20l15 -30q-20 -52 -67 -82h-40zM809 -37l-66 61v11l-57 30l-41 -61q-35 -26 -81 -21q-62 16 -108 72l-5 41q20 46 66 72l16 5h77
l10 10v164l-10 25l-21 6q-107 -11 -200 -57l-35 21l-11 36q123 61 261 71l6 5v62l-6 15l16 21h31l35 -31v-31l-5 -25l11 -11h61l36 -25v-26l-41 -15l-16 5l-35 -15l-5 -6v-71l5 -5v-118l-5 -21l158 -148l5 -26q-15 -25 -46 -20zM594 55v10l16 41l-36 10l-41 -35v-26l36 -10z
M799 470q-82 97 -107 215l40 10l36 -26q36 -97 62 -199h-31zM917 485l-21 10q-46 108 -66 226l30 10l36 -21q26 -97 46 -199l-10 -26h-15z" />
    <glyph glyph-name="uni3071" unicode="&#x3071;" horiz-adv-x="970" 
d="M197 -42l-56 61l-20 112v285l30 16l41 -16l5 -5v-61l-5 -41l5 -5v-71l-5 -5v-71l5 -6v-81l16 -36h15l46 41h20l15 -36l-51 -71q-25 -15 -61 -10zM518 9q-51 10 -91 56q-26 20 -21 56q56 66 133 76l15 46v92l-36 15q-86 -41 -178 -66l-20 10l-16 41q107 56 230 76l5 31
l-16 56l36 15l36 -25l20 -67l26 -5l5 5h51l35 -25v-15l-15 -21l-56 -5l-20 5l-16 -15v-127l-5 -21q51 -35 112 -51l5 -15l46 -15l10 -41l-45 -20l-57 30l-5 16l-76 25l-41 -102q-20 -20 -51 -15zM513 80l10 36h-15l-15 -36l15 -5zM748 421q-97 57 -194 123q-51 51 -46 122
q15 61 66 107l67 36h71q56 -11 97 -46q35 -46 51 -97v-76l-87 -163zM732 508v10l56 107v51l-25 51q-31 26 -77 21l-71 -46l-31 -82l36 -61q51 -41 112 -51z" />
    <glyph glyph-name="uni3072" unicode="&#x3072;" horiz-adv-x="952" 
d="M412 -39q-50 31 -81 81l-15 56v137l30 172h-15q-76 -55 -162 -86l-41 36v20q152 81 315 142l20 -10l10 -36q-81 -111 -86 -258v-122l30 -61l31 -10q66 61 106 137q41 66 41 152l-5 31q15 20 45 15l26 -15q40 -97 116 -178l61 -51v-20l-51 -15q-71 61 -137 127
q-35 -97 -91 -183q-40 -40 -91 -61h-56z" />
    <glyph glyph-name="uni3073" unicode="&#x3073;" horiz-adv-x="1060" 
d="M402 -34q-41 10 -71 46l-31 52v107q20 123 77 236h-10q-98 -57 -205 -93l-41 36v21q179 82 368 143l31 -10l5 -26q-153 -169 -158 -399l20 -36l41 -10q113 102 179 225l26 62v56q20 15 51 10q77 -184 159 -369l-41 -30l-46 46l-72 184l-20 5q-62 -128 -175 -235l-35 -21
h-52zM930 279q-26 25 -26 61v61l-41 282l36 10l36 -20l10 -26v-56l26 -143v-67l-5 -5v-92zM771 330q-31 15 -46 46l-67 240q16 21 41 16l36 -21q36 -133 62 -271z" />
    <glyph glyph-name="uni3074" unicode="&#x3074;" horiz-adv-x="1040" 
d="M374 -57l-61 36q-35 36 -46 87v91q26 118 72 230h-26l-107 -41h-56q-30 20 -25 56q178 30 341 102l26 -10l20 -36q-81 -66 -127 -153q-31 -81 -46 -173v-66l30 -51l31 -5q107 96 163 219l10 25v56l31 15l46 -25q40 -122 132 -224l20 -15v-31l-15 -20h-36l-35 15
q-26 81 -82 148l-25 5q-51 -117 -153 -219l-31 -16h-51zM767 325l-26 21v10l-102 71q-71 67 -71 158q61 92 158 138l82 10q45 -5 76 -46q36 -61 36 -142q-11 -123 -102 -214zM792 407v10q41 56 56 128v50l-25 67l-36 10q-61 -26 -112 -66l-25 -82l45 -71q41 -46 97 -46z" />
    <glyph glyph-name="uni3075" unicode="&#x3075;" horiz-adv-x="1022" 
d="M442 -63l-40 20l-10 26q96 55 137 157l5 56q-51 111 -142 213l147 116l5 20q-56 26 -122 26l-116 -21l-36 31v25l15 10h61l5 5h91q102 -15 193 -55l5 -31l-157 -162q86 -71 117 -167v-91q-36 -87 -112 -158zM169 18l-31 15l-15 51q71 112 157 213h20l31 -25v-21
q-91 -101 -127 -223zM873 18l-30 5q-5 56 -41 97l-35 25q-56 56 -86 122l30 15l46 -26q91 -101 152 -212l-21 -26h-15z" />
    <glyph glyph-name="uni3076" unicode="&#x3076;" horiz-adv-x="1002" 
d="M392 -98l-36 20l-5 20l25 26q31 5 51 30q51 66 71 142l-45 66l-142 91l-11 25q97 66 183 147v21l-56 15h-51q-60 0 -111 35l-10 36q25 15 56 10q126 -15 238 -76l20 -41l-46 -66l-111 -86v-20q61 -25 111 -76q51 -41 46 -106q-20 -102 -101 -183q-36 -25 -76 -30z
M153 -68l-30 30v36q56 81 91 167l26 5l40 -30v-20q-51 -87 -86 -178zM787 13l-20 15l-5 36l-147 106l-5 31q20 15 50 10l183 -147v-36zM696 287l-36 40l-40 188q20 15 45 10q46 -111 76 -223q-15 -20 -45 -15zM868 292l-30 30l-41 239q21 15 46 10l35 -36v-20l-5 -15l15 -86
v-51l11 -71h-31z" />
    <glyph glyph-name="uni3077" unicode="&#x3077;" horiz-adv-x="1057" 
d="M387 -88l-40 20l-10 36q81 35 142 111q30 36 30 81q-86 81 -172 157v21q101 65 177 162q-111 20 -213 61l-5 40l41 10q126 -30 248 -76q0 66 56 112q35 30 81 45h81l107 -60q45 -46 60 -102v-50q-20 -87 -101 -153l-61 -40h-51q-81 61 -141 142l-16 45l-15 6l-51 -77
l-96 -81v-15q76 -56 132 -127l10 -65q-20 -61 -71 -112zM174 -53l-40 26l-10 50l86 168l25 10l41 -26l10 -20q-46 -61 -71 -132l30 -45q-30 -31 -71 -31zM788 -22l-46 40v10l-40 31q-66 56 -92 127l36 10q101 -92 188 -193l-16 -20zM813 378q76 61 86 147q-10 46 -50 81
q-41 31 -97 26q-60 -31 -91 -92v-50q15 -56 56 -97l81 -25z" />
    <glyph glyph-name="uni3078" unicode="&#x3078;" horiz-adv-x="910" 
d="M746 5q-135 185 -270 364l-124 -129h-10l-30 -45l-70 -75q-10 -50 -45 -90l-30 -5l-30 20l-10 40q75 110 170 210h10l139 154l40 5l50 -30l110 -144l105 -190l40 -25l10 -45l-5 -10z" />
    <glyph glyph-name="uni3079" unicode="&#x3079;" horiz-adv-x="1022" 
d="M155 -1l-30 25v31q92 198 255 366l51 11q101 -72 188 -163v188l15 77l41 5l31 -21l5 -51l-16 -71v-117l6 -31q-16 -25 -51 -15v-10q81 -102 163 -194l-11 -20l-25 -10l-56 40q-133 169 -290 311h-16l-15 -5l-15 -25l-82 -107h-10q-66 -97 -92 -209zM833 202l-31 36v127
l26 184l25 10l46 -25l5 -26l-10 -15v-56l-25 -194l5 -30l-5 -11h-36z" />
    <glyph glyph-name="uni307A" unicode="&#x307a;" horiz-adv-x="995" 
d="M743 -41l-309 360h-26q-144 -134 -200 -303l5 -21l-26 -26h-21l-41 36v21q57 154 170 288q57 72 134 87l20 -10q170 -190 335 -375l5 -26l-15 -21zM732 216l-20 16q-88 41 -165 108l-26 51v67q21 62 78 113q61 57 139 67q66 0 113 -56q36 -57 31 -129q-21 -129 -114 -227
zM732 309q52 72 72 159v57l-36 41l-30 5q-88 -41 -129 -123l-10 -62l31 -46q41 -36 97 -36z" />
    <glyph glyph-name="uni307B" unicode="&#x307b;" horiz-adv-x="930" 
d="M512 -46l-90 54q-39 34 -34 88q35 48 84 68l56 15h73l11 29v83l-16 44h-29l-146 -36l-33 34v20q99 20 198 46l6 24l-37 130l-33 11l-142 -25q-38 23 -33 60l8 8h62l5 5h61l5 5h146l36 -5l6 5h48l38 -23l4 -26l-60 -18l-4 4h-67v-66l21 -69h39l85 20l33 -19l4 -21
q-67 -28 -147 -45v-71l5 -5v-117l129 -73l14 -32q-13 -22 -41 -22l-105 57q-22 -38 -31 -74l-21 -14l-15 -25l-39 -24h-54zM203 -21q-40 29 -60 78l-20 106v244l5 31l-5 19l18 28h28l33 -29v-33l-11 -46v-107l-5 -32l5 -6v-50l6 -14l-6 -21l22 -74q25 -10 35 -39v-37
q-19 -23 -45 -18zM555 17q37 42 42 98l-35 11l-100 -47l-12 -29l49 -44h39z" />
    <glyph glyph-name="uni307C" unicode="&#x307c;" horiz-adv-x="1040" 
d="M213 -71l-56 46l-31 72v56l-5 5v123l5 5v93q5 112 46 210h20l31 -21l5 -46q-25 -67 -30 -143v-67l-6 -5v-195l16 -46h10l36 21l20 -16v-20l-30 -67zM525 -30q-77 36 -107 118v15q61 41 133 52l10 46v97l-31 5q-82 -26 -169 -41l-41 36v20l236 52l5 5v77l-10 35h-56
l-98 -20h-51q-26 20 -26 51l31 15h62l71 16h159l36 -26l5 -20q-20 -21 -51 -21l-5 -5v-87l36 -10l76 20l26 -10l10 -31q-61 -35 -138 -46l-10 -36l5 -20l-5 -5v-56l-5 -36q87 -36 169 -77l5 -36l-46 -10l-118 51l-16 -15v-67q-10 -31 -41 -36h-51zM541 32l15 46l-31 5
l-20 -15v-21l15 -20h16zM786 446l-41 26q-30 128 -66 256l41 10l31 -20l66 -256zM894 498l-26 46l5 25l-41 169q21 16 47 10l30 -25l21 -138v-57l-10 -25z" />
    <glyph glyph-name="uni307D" unicode="&#x307d;" horiz-adv-x="1000" 
d="M215 -69q-55 40 -80 95l-15 56v136l5 5v86l30 131l35 10l35 -50l-30 -121v-76l-5 -5v-121l25 -66h21l5 15l25 6l20 -46l-25 -50zM473 -44l-66 30l-25 35v51q20 35 55 55l46 15h75l10 26l-5 5v60l-25 15l-111 -25h-70l-36 36v20l10 10h86l136 30l5 30l-10 36v55l-5 45h-40
q-91 -25 -182 -55l-35 35v20q96 41 202 61h80l5 25l-10 81l41 55q40 31 86 36h70q61 -15 101 -71q40 -50 35 -121q-5 -66 -50 -116l-25 -10l-31 -40l-55 -16l-30 21l-10 40l-81 45v-25l5 -5v-76l10 -25l20 -5q25 25 61 25l30 -15l5 -30q-50 -35 -111 -45l-5 -36l5 -5v-106
q71 -45 141 -95l10 -36l-15 -20h-30l-101 71l-30 -56q-30 -30 -76 -35h-60zM543 26l20 51q-20 15 -45 10l-61 -35l-5 -26q21 -25 51 -20zM770 465q41 41 56 91v56l-46 60l-60 10l-81 -45l-5 -20l5 -21l-5 -35l56 -45l10 -31l65 -25z" />
    <glyph glyph-name="uni307E" unicode="&#x307e;" horiz-adv-x="822" 
d="M235 -52l-71 40q-26 26 -26 62l31 45q97 62 209 82l5 5v122l-15 61l-16 6l-71 -26h-56l-31 31v15q82 25 169 41l5 5v71l-11 46l-45 5q-82 -15 -158 -41l-31 31v25q56 26 117 36h61l56 10l6 5v51l40 5q36 -15 31 -61q30 -20 71 -15l51 5l26 -10l10 -36l-31 -15h-56l-5 5
h-56q-15 -31 -15 -66l15 -51l20 -5q77 5 148 25l26 -25v-21q-26 -20 -56 -25h-72l-5 -5h-51l-10 -10v-82l10 -56l-5 -5v-56q133 -36 240 -128l5 -20l15 -5l5 -15l-5 -26l-46 -5l-15 21l-21 10q-66 61 -142 107h-41q-25 -72 -76 -133q-36 -25 -82 -30h-51zM312 19
q40 36 45 87h-20l-117 -56l-10 -36l46 -20z" />
    <glyph glyph-name="uni307F" unicode="&#x307f;" horiz-adv-x="880" 
d="M243 -17q-56 16 -97 61q-25 26 -25 67q102 97 229 137q21 56 31 112v97l-21 46l-35 10l-26 -5l-35 51l30 15h61l77 -61l15 -66v-107l-10 -71l5 -5h66l5 5h61l16 -5q35 86 45 188v71q16 26 46 21l26 -16l15 -45l-51 -230l97 -30l10 -51l-46 -10l-66 30l-15 -5
q-31 -92 -51 -188l-31 -11l-35 26v41l40 153l-51 5l-117 -26q-41 -102 -117 -188zM248 50l56 101h-15l-87 -61v-25q16 -26 41 -21z" />
    <glyph glyph-name="uni3080" unicode="&#x3080;" horiz-adv-x="890" 
d="M600 -43q-86 5 -157 56l-40 51h-16q-10 -41 -45 -71l-26 -5l-71 30q-50 51 -45 122q5 56 40 101q31 31 76 21l51 -26l41 218l-21 10q-116 -30 -233 -71q-30 21 -30 56q137 51 279 81l5 15l-10 51l35 10l36 -30v-36h55l51 5l25 -15l5 -35l-10 -10h-50l-6 -5h-50
q-31 -168 -66 -330l35 -71q46 -41 107 -56h61l50 26l46 71l30 -31l5 -35l-40 -61q-56 -31 -117 -36zM301 49q36 55 41 121l-20 26h-26l-25 -26l-15 -71l20 -45l20 -10zM752 236q-91 66 -172 137v15q15 21 46 15l131 -101q26 -20 26 -51z" />
    <glyph glyph-name="uni3081" unicode="&#x3081;" horiz-adv-x="950" 
d="M183 -11l-56 56v51q15 102 102 173l97 71v16l-46 158q15 20 46 15l25 -15l31 -133h25q56 26 117 46l31 97h31l30 -21v-45l-5 -26q102 -10 178 -97q36 -46 46 -102v-96q-20 -77 -81 -138l-26 -5l-30 15l-11 31l6 25l30 10l46 97v61l-51 92q-51 41 -112 46l-26 -15
q-56 -128 -137 -240l15 -56q-10 -20 -41 -15l-35 20q-61 -56 -138 -76h-61zM280 75l86 72v35q-5 46 -30 77l-102 -87q-36 -51 -46 -117l36 -10zM428 228l61 112h-10l-72 -35l-5 -36l21 -46z" />
    <glyph glyph-name="uni3082" unicode="&#x3082;" horiz-adv-x="850" 
d="M521 -75q-57 21 -108 62q-62 60 -77 142v70l-13 12h-106l-41 -5l-39 25l-10 38l8 7h85l5 -5h81l35 12l32 178l-26 6l-99 -21l-39 15l-19 43l13 18h66l128 21l63 193l27 5l34 -19l5 -49l-43 -107l38 -14l6 7h70l39 -30v-17l-19 -19h-130l-28 -11l-43 -187l13 -13h59l58 10
h97l22 -26q-52 -39 -130 -39h-63l-59 -16l-7 -7v-75q10 -70 69 -123q33 -26 82 -21l101 63l26 36l27 9l18 -42q-50 -75 -127 -121l-25 -5h-56z" />
    <glyph glyph-name="uni3083" unicode="&#x3083;" horiz-adv-x="827" 
d="M331 -72q-65 95 -75 210l-20 5l-50 -55h-40l-25 45q55 55 120 95v15l-25 124q20 25 50 15q40 -49 30 -114h20l80 50l25 124l40 5l25 -25v-30l-15 -44l20 -10l5 5h59q60 -5 100 -55l10 -25v-65q-30 -70 -100 -115l-39 -15l-40 25l-10 25q45 10 79 45q45 45 40 105
q-35 35 -89 25l-45 -20l-20 -100l5 -20q-10 -35 -45 -25l-25 25v25l5 50l-20 5l-50 -40v-25q15 -85 50 -165q25 -25 20 -65z" />
    <glyph glyph-name="uni3084" unicode="&#x3084;" horiz-adv-x="952" 
d="M448 -113q-60 40 -85 111q-51 131 -61 278h-15l-96 -91h-20l-41 30l-5 20l162 111l5 51l-10 40v50l-10 41q25 25 60 15l20 -56l-5 -25l5 -5v-55h21l121 55l30 187l30 5l25 -15l5 -5v-51l-15 -81l31 -10l30 10h91q55 -10 95 -60q21 -35 21 -81q-26 -80 -96 -141
q-41 -45 -96 -55l-35 25v15l50 25l20 30q56 51 86 116v41l-5 15l-61 25h-60l-71 -20l-15 -61v-80l-10 -20h-40l-25 20v35l10 55l-26 6l-100 -66v-40q25 -177 95 -328l26 -10l5 -46q-16 -15 -41 -10z" />
    <glyph glyph-name="uni3085" unicode="&#x3085;" horiz-adv-x="837" 
d="M457 -73l-35 55l5 35l-5 5v127l-10 45h-15q-66 -81 -127 -156l-15 -71l-45 -5l-35 35l-15 81v50q-11 86 -41 162l15 20h41l35 -35l20 -152h10q71 91 157 152h10l10 90l30 11l35 -21l10 -25h21l5 5h55l20 5q41 -10 71 -40l25 -40v-61q-10 -106 -96 -177q-25 -20 -65 -15
l-25 5v-30l5 -30l-21 -25h-30zM533 68l55 65q31 56 31 122l-31 30h-40l-56 -25l-10 -51l5 -5v-81l16 -60l15 -5z" />
    <glyph glyph-name="uni3086" unicode="&#x3086;" horiz-adv-x="922" 
d="M429 -110q-36 11 -46 41l10 20v51l5 5v122l5 5v91l5 5v86h-15q-106 -111 -142 -248l-40 -5q-56 177 -92 365q21 15 51 10q46 -101 51 -218l15 -5q56 91 137 167l30 15l5 16v60l-15 107l51 10l25 -25v-76l5 -26h15q61 31 127 51h71q56 -10 101 -61q21 -51 21 -111
q-51 -142 -157 -264q-31 -36 -71 -46h-61l-46 26l-5 -5v-76l-5 -21l10 -45l-5 -16zM560 93q117 107 173 244l10 60l-26 51l-50 20q-102 -15 -183 -81l-10 -15v-213l-5 -51l5 -15l71 -10z" />
    <glyph glyph-name="uni3087" unicode="&#x3087;" horiz-adv-x="772" 
d="M229 -89l-76 51l-30 60q70 61 161 61l10 45q0 111 -50 202l10 25l-35 96l55 10q30 -40 35 -91l31 -5q96 56 212 71l35 -25v-20q-126 -36 -247 -86l-5 -25l10 -21v-50l20 -126q121 -41 227 -101v-30q-15 -21 -45 -15q-86 65 -187 90l-56 -90q-30 -26 -75 -26zM254 -28v10
l20 45l-15 5l-61 -50q16 -20 41 -15z" />
    <glyph glyph-name="uni3088" unicode="&#x3088;" horiz-adv-x="822" 
d="M201 -69q-51 21 -77 72v40l41 41l77 26h66l25 10l16 66l-5 15l5 5v102l-11 26l-35 20l-5 15l30 21v30q-30 107 -81 204q15 21 46 15l30 -30q46 -92 72 -189l25 -5l234 72l46 -21l5 -30q-147 -36 -295 -82l-5 -35l10 -46v-77l-5 -5v-71q142 -31 265 -107l10 -46
q-26 -15 -56 -10l-15 25q-97 61 -214 77q-31 -72 -92 -123l-20 -5h-87zM272 -8q36 26 41 67l-25 5q-51 -10 -92 -46l-5 -20q20 -26 51 -21z" />
    <glyph glyph-name="uni3089" unicode="&#x3089;" horiz-adv-x="707" 
d="M435 -63l-36 36v25q51 35 71 91l36 102v50l-10 10h-56q-122 -25 -218 -101l-36 -41h-30l-30 31v35l5 5v82l5 5v76l5 25l-15 86l35 10l30 -20l16 -41v-116l-5 -5v-56l15 -5q91 61 197 81h76q41 -5 71 -40l16 -26v-56q-31 -121 -102 -228zM414 459l-40 46q-96 35 -188 96
l-10 26q15 20 46 15q127 -71 258 -132l5 -15l-20 -26z" />
    <glyph glyph-name="uni308A" unicode="&#x308a;" horiz-adv-x="687" 
d="M460 -58l-25 51q15 30 15 66v96l5 5v294q-10 66 -30 127l20 10l45 -15q31 -66 36 -137v-56l5 -15l-5 -5v-61l5 -20l-5 -5v-61l5 -15l-5 -5v-61l-5 -5v-132l-15 -51zM222 165l-36 21l-25 81v91l41 243l30 5l30 -20l5 -15l-30 -142v-61l-5 -5v-117q25 -20 25 -55l-20 -26
h-15z" />
    <glyph glyph-name="uni308B" unicode="&#x308b;" horiz-adv-x="707" 
d="M305 -83l-102 56l-5 21q76 66 178 76h66l51 15l26 87l-26 56l-61 36h-81q-77 -16 -138 -72l-31 -30h-25l-31 51q143 127 235 285l25 81q-20 16 -51 11l-122 -31l-41 36v15q66 20 133 31h61l76 -31q26 -20 21 -56q-62 -122 -143 -234l15 -5h77q76 -6 127 -62l46 -81v-61
l-56 -112q-61 -56 -133 -82h-76l-5 5zM412 -22l40 46h-51l-106 -36l-6 -20l16 -10h61z" />
    <glyph glyph-name="uni308C" unicode="&#x308c;" horiz-adv-x="970" 
d="M350 -49q-35 35 -30 91l5 35l-20 5q-66 -50 -146 -71l-31 46l197 101l10 55v106l5 40l-20 10q-76 -40 -161 -50q-31 20 -26 50l202 66l10 15v71l5 5v55l5 10l46 5q25 -15 25 -45l-15 -86l65 -20l5 -35l-70 -30l-5 -5v-76l-5 -5v-86h15q151 86 303 172l25 -16l10 -35
l-20 -65v-101q10 -76 40 -147l35 -5l41 10l15 -30q-30 -35 -81 -35l-60 45q-46 71 -56 157v121l-20 5q-121 -81 -247 -142l-10 -15v-55l5 -5v-101q-15 -20 -46 -15z" />
    <glyph glyph-name="uni308D" unicode="&#x308d;" horiz-adv-x="717" 
d="M384 -101l-20 16v30q96 76 147 183l10 66l-10 25l-51 25h-55q-107 -20 -193 -101l-20 -26h-41q-25 21 -25 51l71 51l76 101l15 5q66 107 127 218l-10 10h-66l-122 -25q-30 20 -25 56l187 25q61 0 112 -30l5 -31q-76 -131 -162 -258l15 -5l15 10h96q56 -10 102 -51l25 -61
v-55q-46 -122 -152 -218z" />
    <glyph glyph-name="uni308E" unicode="&#x308e;" horiz-adv-x="817" 
d="M556 -85q-26 16 -26 46q56 55 66 126l-20 40l-36 15h-50l-5 -5h-50l-71 -25l-10 -80l10 -16v-75l-40 -10l-31 35v40l5 26l-5 40h-15q-35 -35 -81 -46l-30 46q61 45 131 76l10 55v56l-20 10l-126 -41l-35 36v15l176 55l5 41l-5 20l41 10l25 -20l5 -36l35 -5l46 10
q35 -15 30 -55l-5 -5h-91l-25 -20v-86l35 -10q56 15 111 20q71 -5 121 -56l25 -45v-60l-45 -106z" />
    <glyph glyph-name="uni308F" unicode="&#x308f;" horiz-adv-x="932" 
d="M719 -56l-31 20l-5 21l67 179v82l-26 26h-92q-123 -21 -231 -72l-5 -5v-82q5 -77 41 -144q-20 -20 -51 -20l-36 31l-25 107v62l-26 5q-67 -46 -148 -62l-31 46l200 98l15 66l-5 5v72h-16l-128 -46l-46 26l-5 30l195 57l10 51v92l46 10q31 0 41 -31v-20l-15 -61l20 -11
l62 21l46 -16l10 -25q-72 -26 -143 -46l-6 -5v-128l16 -5q118 46 251 56l5 -5h71q47 -16 72 -57l5 -46v-66q-25 -108 -77 -200z" />
    <glyph glyph-name="uni3090" unicode="&#x3090;" horiz-adv-x="845" 
d="M478 -91q-82 5 -137 66q-21 25 -15 55q35 51 86 71l101 26h91l46 -5l15 35v51l-25 46q-71 60 -167 71q-77 -132 -213 -229l-61 -15q-46 20 -66 66l-10 41v76q10 40 45 71q66 40 147 50h102q76 102 121 218l-71 10l-5 -5h-60l-21 -5l-35 26l-10 30l15 15h111
q87 -5 163 -40l10 -31q-71 -106 -122 -218q107 -30 188 -111l30 -56v-81q-5 -51 -30 -96q-61 -66 -132 -117l-26 -10h-50zM533 -15l76 66v15l-5 5h-50q-81 -10 -142 -56l-5 -25q35 -25 76 -25zM224 157q96 66 152 162l-35 6q-71 -11 -127 -46l-30 -81l15 -46h20z" />
    <glyph glyph-name="uni3091" unicode="&#x3091;" horiz-adv-x="1042" 
d="M149 -123q-31 21 -31 52q150 83 279 196l-5 6h-82q-68 15 -119 62l-21 51l36 57q67 52 155 57h93l124 -31l6 47l-31 51q-62 42 -135 47l-93 -31l-31 21l-10 41q93 41 165 129l21 42q-31 15 -67 15l-114 -21l-31 26v26q36 26 83 26h108q62 0 109 -31l5 -31
q-16 -57 -62 -103l-36 -47l129 -67q41 -42 52 -93v-78q-5 -57 -37 -109q-62 -51 -134 -98h-10v-15q77 5 124 -52l36 -62h21q129 52 258 109l31 -21v-26q-150 -88 -320 -134q-47 20 -62 67l-21 51l-62 11q-160 -62 -321 -140zM485 219l62 56q-56 21 -119 26l-5 -5h-57
l-108 -52l-11 -41l52 -21h88z" />
    <glyph glyph-name="uni3092" unicode="&#x3092;" horiz-adv-x="905" 
d="M440 -64q-93 5 -164 67q-31 25 -26 66q67 113 164 215h10v26q-56 15 -97 72q-31 41 -36 92l-51 5l-5 -5h-87l-26 41q15 20 46 15l51 -5l62 15l10 21v72l-10 56l41 5l25 -20l5 -31l-5 -15l5 -6v-51l31 -5l92 36l5 15l26 11h62l25 -21v-26q-107 -46 -225 -81l-5 -6v-51
l51 -71l56 -31q77 82 179 92l31 -21v-15l-138 -77l-5 -15l82 -77l15 -56l-15 -36l-31 -10l-36 30v31l5 26l-41 51h-30q-108 -102 -164 -225q56 -46 133 -46h51q128 30 246 92l25 -10l11 -36q-123 -77 -272 -103h-76z" />
    <glyph glyph-name="uni3093" unicode="&#x3093;" horiz-adv-x="940" 
d="M164 -95l-36 25l-5 31q137 299 244 608l45 5l26 -36q-92 -192 -168 -395h16l106 101l51 6q40 -11 71 -46q35 -107 91 -203l20 -5q96 51 142 142l31 5q25 -20 15 -56l-66 -86q-56 -61 -137 -66l-56 31q-71 101 -96 218l-31 5q-136 -97 -218 -233l-25 -46z" />
    <glyph glyph-name="uni309B" unicode="&#x309b;" horiz-adv-x="602" 
d="M205 446l-41 15l-15 36v186l-6 42q21 21 52 15l21 -10l15 -21v-62l-5 -5v-93l10 -41l-5 -16l11 -31zM376 451l-21 15l-5 26l31 155v57l5 5v62q21 26 57 16l31 -52l-15 -57l5 -20l-31 -119v-73l-5 -10z" />
    <glyph glyph-name="uni309C" unicode="&#x309c;" horiz-adv-x="802" 
d="M293 432q-56 11 -97 52l-26 82q10 67 51 124q52 51 124 61q77 -20 139 -77l15 -26v-56q-46 -93 -144 -149zM334 515q62 36 88 103v25q-36 41 -93 31q-41 -20 -61 -62l-16 -87q26 -31 67 -21z" />
    <glyph glyph-name="uni309D" unicode="&#x309d;" horiz-adv-x="600" 
d="M271 30l-16 52q78 99 131 209l-21 36l-26 11q-89 83 -194 136l-31 21l-10 36l47 21q104 -47 193 -125l5 -16l42 -26l5 -16l47 -31q37 -37 37 -84q-63 -83 -110 -177l-42 -42z" />
    <glyph glyph-name="uni309E" unicode="&#x309e;" horiz-adv-x="767" 
d="M388 38q-52 11 -36 67l77 57l31 62q-98 119 -227 197l-130 57l-10 46l46 16q109 -57 213 -124l5 -16l88 -67l93 -103v-42q-16 -46 -57 -88l-67 -62h-26zM626 421l-16 46l5 21q-15 78 -31 155l11 11h51q31 -26 37 -68v-77l5 -21l-16 -62zM486 431q-36 21 -47 57v16l6 36
l-26 119l20 26h21l36 -16q16 -108 42 -212q-21 -31 -52 -26z" />
    <glyph glyph-name="uni30A1" unicode="&#x30a1;" horiz-adv-x="745" 
d="M393 -100l-41 25q-26 26 -26 62v91l-5 5v51l-20 138q20 15 51 10q25 -20 25 -46v-56l11 -46h15q66 87 81 199l-45 5q-123 -20 -230 -81h-51q-30 25 -25 61q122 46 255 71h71l46 5q35 0 56 -25l10 -16v-56q-51 -117 -122 -224l-21 -5l-30 5l-5 -15l5 -5v-51l25 -71
l-25 -31h-5z" />
    <glyph glyph-name="uni30A2" unicode="&#x30a2;" horiz-adv-x="920" 
d="M491 -103l-46 26l-5 20l10 36v169l-5 5v61l-41 149q20 25 56 15l26 -15q25 -87 41 -179v-57l5 -5v-71l-5 -26l5 -15l-5 -21l15 -46l-15 -36zM578 148l-26 20v16q72 82 128 174l46 107l-20 11l-5 -6h-62q-256 -35 -481 -133q-31 21 -31 57q231 97 487 133h128l56 -26
l10 -51q-51 -149 -169 -271l-30 -31h-16l-5 5z" />
    <glyph glyph-name="uni30A3" unicode="&#x30a3;" horiz-adv-x="665" 
d="M404 -96l-13 14l-21 31v92l-5 5v124q0 31 -20 41q-93 -98 -160 -211h-25l-37 31v21l114 128h10q36 57 82 108l16 5l98 119l36 5l30 -21l6 -20l-83 -83v-25l5 -31l-5 -47l5 -5v-67l6 -15l-6 -21l6 -5v-77l10 -15v-67z" />
    <glyph glyph-name="uni30A4" unicode="&#x30a4;" horiz-adv-x="862" 
d="M536 -83l-40 26v15l5 6v61l-11 56l6 5v57l-16 97v56l-25 21q-139 -123 -262 -256h-30l-36 46q271 246 553 491l36 6l30 -26v-26l-204 -164v-40l10 -31v-57l10 -35v-52l5 -5v-102l5 -5v-57l21 -51q-21 -30 -57 -36z" />
    <glyph glyph-name="uni30A5" unicode="&#x30a5;" horiz-adv-x="742" 
d="M474 -103q-36 30 -26 82l52 252l-21 5l-5 -5h-51l-145 -26h-51v-10q36 -57 46 -123l-46 -16l-41 52q-36 92 -67 190q21 15 46 10l41 -41h93l26 16l5 25l-5 5v62l-5 5v67l-6 16l42 10l36 -31v-108l15 -41l5 -5h57l5 5h98l25 -36q-46 -175 -87 -350z" />
    <glyph glyph-name="uni30A6" unicode="&#x30a6;" horiz-adv-x="830" 
d="M555 -68l-45 56q71 203 106 426h-40l-6 -5h-50l-238 -51h-51v-25q30 -66 40 -137l-45 -21q-56 132 -107 269q21 25 56 15l25 -20l11 -25l25 -5l167 35l5 15l-10 15v56l-10 56v76l-5 15l10 10h51l20 -20v-137l20 -66l41 -5l86 15h71q30 -20 25 -50q-55 -244 -126 -482z
" />
    <glyph glyph-name="uni30A7" unicode="&#x30a7;" horiz-adv-x="810" 
d="M252 -70l-21 10l-15 46q15 21 41 16l26 -6l41 16l5 41l-5 5v159l5 30l-36 11q-62 -26 -133 -26l-31 51l15 16h52q138 25 271 56l25 -5l21 5l61 -15l11 -31q-21 -26 -52 -26h-66l-41 5l-26 -25v-67l-5 -5v-138l5 -26l26 -5l5 5h67l71 16h51l26 -26v-15q-31 -36 -82 -31
h-51l-51 -10h-62q-66 -31 -148 -31z" />
    <glyph glyph-name="uni30A8" unicode="&#x30a8;" horiz-adv-x="845" 
d="M149 -66q-31 20 -26 56q112 30 225 45v21l-6 5v97l-5 20l5 5v61l-5 5v112l-10 26h-46l-112 -26l-35 31v36l239 30h71l5 5h62l51 11l45 -6l31 6l36 -21l5 -36l-10 -10h-57l-45 -10l-5 5h-123l-30 -10l-5 -5v-122l5 -5v-82l5 -15l-5 -5v-92l5 -15l56 -5l5 5h61l97 25h66
q36 -20 31 -56q-26 -20 -61 -20h-51l-143 -21l-15 5q-158 -20 -311 -50z" />
    <glyph glyph-name="uni30A9" unicode="&#x30a9;" horiz-adv-x="760" 
d="M154 -99l-26 57q138 152 255 315h-36q-92 -20 -183 -40l-41 35v16l10 20l117 20h62l71 16l5 51l-15 112l35 5l31 -21l10 -25l-5 -26l5 -5v-71l26 -20l96 15l26 -15l5 -46l-20 -10h-102l-26 -21v-25l5 -5v-87q16 -107 46 -209l-20 -30h-31l-30 30l-11 41l6 41l-21 122h-10
q-87 -97 -163 -204l-20 -30z" />
    </font>
</defs>
</svg>
